<mxfile host="app.diagrams.net" modified="2024-04-25T18:59:27.561Z" agent="Mozilla/5.0 (Windows NT 10.0; Win64; x64) AppleWebKit/537.36 (KHTML, like Gecko) Chrome/123.0.0.0 Safari/537.36" etag="NqWKSeCTSEnp3HGccSw1" version="24.3.0" type="google">
  <diagram name="PÃ¡gina-1" id="RXc2RLLWSJeJABgzcuFo">
    <mxGraphModel grid="1" page="1" gridSize="10" guides="1" tooltips="1" connect="1" arrows="1" fold="1" pageScale="1" pageWidth="827" pageHeight="1169" math="0" shadow="0">
      <root>
        <mxCell id="0" />
        <mxCell id="1" parent="0" />
        <mxCell id="Q8bI6oUkw9Ppd8dmuiiR-107" value="" style="rounded=0;whiteSpace=wrap;html=1;rotation=90;fillColor=#f5f5f5;fontColor=#333333;strokeColor=#666666;" vertex="1" parent="1">
          <mxGeometry x="-745.17" y="-40.99" width="1221.11" height="1243.07" as="geometry" />
        </mxCell>
        <mxCell id="Phphtxd2D6d0RNNB2ZdB-5" value="Models" style="swimlane;whiteSpace=wrap;html=1;" vertex="1" parent="1">
          <mxGeometry x="30" width="180" height="1110" as="geometry" />
        </mxCell>
        <mxCell id="Phphtxd2D6d0RNNB2ZdB-6" value="Students Profile" style="swimlane;fontStyle=0;childLayout=stackLayout;horizontal=1;startSize=19;horizontalStack=0;resizeParent=1;resizeParentMax=0;resizeLast=0;collapsible=1;marginBottom=0;whiteSpace=wrap;html=1;" vertex="1" parent="Phphtxd2D6d0RNNB2ZdB-5">
          <mxGeometry x="20" y="31" width="140" height="219" as="geometry">
            <mxRectangle x="30" y="40" width="130" height="30" as="alternateBounds" />
          </mxGeometry>
        </mxCell>
        <mxCell id="UBcfyfctAIULLASqHLvR-9" value="ID" style="text;strokeColor=none;fillColor=none;align=left;verticalAlign=middle;spacingLeft=4;spacingRight=4;overflow=hidden;points=[[0,0.5],[1,0.5]];portConstraint=eastwest;rotatable=0;whiteSpace=wrap;html=1;" vertex="1" parent="Phphtxd2D6d0RNNB2ZdB-6">
          <mxGeometry y="19" width="140" height="30" as="geometry" />
        </mxCell>
        <mxCell id="Phphtxd2D6d0RNNB2ZdB-7" value="Names" style="text;strokeColor=none;fillColor=none;align=left;verticalAlign=middle;spacingLeft=4;spacingRight=4;overflow=hidden;points=[[0,0.5],[1,0.5]];portConstraint=eastwest;rotatable=0;whiteSpace=wrap;html=1;" vertex="1" parent="Phphtxd2D6d0RNNB2ZdB-6">
          <mxGeometry y="49" width="140" height="30" as="geometry" />
        </mxCell>
        <mxCell id="Phphtxd2D6d0RNNB2ZdB-8" value="Photos" style="text;strokeColor=none;fillColor=none;align=left;verticalAlign=middle;spacingLeft=4;spacingRight=4;overflow=hidden;points=[[0,0.5],[1,0.5]];portConstraint=eastwest;rotatable=0;whiteSpace=wrap;html=1;" vertex="1" parent="Phphtxd2D6d0RNNB2ZdB-6">
          <mxGeometry y="79" width="140" height="30" as="geometry" />
        </mxCell>
        <mxCell id="Phphtxd2D6d0RNNB2ZdB-9" value="Country" style="text;strokeColor=none;fillColor=none;align=left;verticalAlign=middle;spacingLeft=4;spacingRight=4;overflow=hidden;points=[[0,0.5],[1,0.5]];portConstraint=eastwest;rotatable=0;whiteSpace=wrap;html=1;" vertex="1" parent="Phphtxd2D6d0RNNB2ZdB-6">
          <mxGeometry y="109" width="140" height="30" as="geometry" />
        </mxCell>
        <mxCell id="3PP495jiauaJpkdDZrHe-1" value="Description" style="text;strokeColor=none;fillColor=none;align=left;verticalAlign=middle;spacingLeft=4;spacingRight=4;overflow=hidden;points=[[0,0.5],[1,0.5]];portConstraint=eastwest;rotatable=0;whiteSpace=wrap;html=1;" vertex="1" parent="Phphtxd2D6d0RNNB2ZdB-6">
          <mxGeometry y="139" width="140" height="40" as="geometry" />
        </mxCell>
        <mxCell id="UBcfyfctAIULLASqHLvR-37" value="Time Zone" style="text;strokeColor=none;fillColor=none;align=left;verticalAlign=middle;spacingLeft=4;spacingRight=4;overflow=hidden;points=[[0,0.5],[1,0.5]];portConstraint=eastwest;rotatable=0;whiteSpace=wrap;html=1;" vertex="1" parent="Phphtxd2D6d0RNNB2ZdB-6">
          <mxGeometry y="179" width="140" height="40" as="geometry" />
        </mxCell>
        <mxCell id="9Jy4nu5iVQ67U5WA-zAP-16" value="Member reviews" style="swimlane;fontStyle=0;childLayout=stackLayout;horizontal=1;startSize=20;horizontalStack=0;resizeParent=1;resizeParentMax=0;resizeLast=0;collapsible=1;marginBottom=0;whiteSpace=wrap;html=1;" vertex="1" parent="Phphtxd2D6d0RNNB2ZdB-5">
          <mxGeometry x="20" y="710" width="140" height="200" as="geometry" />
        </mxCell>
        <mxCell id="UBcfyfctAIULLASqHLvR-29" value="ID" style="text;strokeColor=none;fillColor=none;align=left;verticalAlign=middle;spacingLeft=4;spacingRight=4;overflow=hidden;points=[[0,0.5],[1,0.5]];portConstraint=eastwest;rotatable=0;whiteSpace=wrap;html=1;" vertex="1" parent="9Jy4nu5iVQ67U5WA-zAP-16">
          <mxGeometry y="20" width="140" height="30" as="geometry" />
        </mxCell>
        <mxCell id="9Jy4nu5iVQ67U5WA-zAP-17" value="Characteristics" style="text;strokeColor=none;fillColor=none;align=left;verticalAlign=middle;spacingLeft=4;spacingRight=4;overflow=hidden;points=[[0,0.5],[1,0.5]];portConstraint=eastwest;rotatable=0;whiteSpace=wrap;html=1;" vertex="1" parent="9Jy4nu5iVQ67U5WA-zAP-16">
          <mxGeometry y="50" width="140" height="30" as="geometry" />
        </mxCell>
        <mxCell id="9Jy4nu5iVQ67U5WA-zAP-18" value="Answers" style="text;strokeColor=none;fillColor=none;align=left;verticalAlign=middle;spacingLeft=4;spacingRight=4;overflow=hidden;points=[[0,0.5],[1,0.5]];portConstraint=eastwest;rotatable=0;whiteSpace=wrap;html=1;" vertex="1" parent="9Jy4nu5iVQ67U5WA-zAP-16">
          <mxGeometry y="80" width="140" height="30" as="geometry" />
        </mxCell>
        <mxCell id="9Jy4nu5iVQ67U5WA-zAP-19" value="Grade" style="text;strokeColor=none;fillColor=none;align=left;verticalAlign=middle;spacingLeft=4;spacingRight=4;overflow=hidden;points=[[0,0.5],[1,0.5]];portConstraint=eastwest;rotatable=0;whiteSpace=wrap;html=1;" vertex="1" parent="9Jy4nu5iVQ67U5WA-zAP-16">
          <mxGeometry y="110" width="140" height="30" as="geometry" />
        </mxCell>
        <mxCell id="9Jy4nu5iVQ67U5WA-zAP-26" value="Observation" style="text;strokeColor=none;fillColor=none;align=left;verticalAlign=middle;spacingLeft=4;spacingRight=4;overflow=hidden;points=[[0,0.5],[1,0.5]];portConstraint=eastwest;rotatable=0;whiteSpace=wrap;html=1;" vertex="1" parent="9Jy4nu5iVQ67U5WA-zAP-16">
          <mxGeometry y="140" width="140" height="30" as="geometry" />
        </mxCell>
        <mxCell id="9Jy4nu5iVQ67U5WA-zAP-117" value="Photo" style="text;strokeColor=none;fillColor=none;align=left;verticalAlign=middle;spacingLeft=4;spacingRight=4;overflow=hidden;points=[[0,0.5],[1,0.5]];portConstraint=eastwest;rotatable=0;whiteSpace=wrap;html=1;" vertex="1" parent="9Jy4nu5iVQ67U5WA-zAP-16">
          <mxGeometry y="170" width="140" height="30" as="geometry" />
        </mxCell>
        <mxCell id="9Jy4nu5iVQ67U5WA-zAP-20" value="Given to User" style="swimlane;fontStyle=0;childLayout=stackLayout;horizontal=1;startSize=20;horizontalStack=0;resizeParent=1;resizeParentMax=0;resizeLast=0;collapsible=1;marginBottom=0;whiteSpace=wrap;html=1;" vertex="1" parent="Phphtxd2D6d0RNNB2ZdB-5">
          <mxGeometry x="20" y="920" width="140" height="110" as="geometry" />
        </mxCell>
        <mxCell id="9Jy4nu5iVQ67U5WA-zAP-21" value="Caracteristics" style="text;strokeColor=none;fillColor=none;align=left;verticalAlign=middle;spacingLeft=4;spacingRight=4;overflow=hidden;points=[[0,0.5],[1,0.5]];portConstraint=eastwest;rotatable=0;whiteSpace=wrap;html=1;" vertex="1" parent="9Jy4nu5iVQ67U5WA-zAP-20">
          <mxGeometry y="20" width="140" height="30" as="geometry" />
        </mxCell>
        <mxCell id="9Jy4nu5iVQ67U5WA-zAP-22" value="Grade" style="text;strokeColor=none;fillColor=none;align=left;verticalAlign=middle;spacingLeft=4;spacingRight=4;overflow=hidden;points=[[0,0.5],[1,0.5]];portConstraint=eastwest;rotatable=0;whiteSpace=wrap;html=1;" vertex="1" parent="9Jy4nu5iVQ67U5WA-zAP-20">
          <mxGeometry y="50" width="140" height="30" as="geometry" />
        </mxCell>
        <mxCell id="9Jy4nu5iVQ67U5WA-zAP-23" value="Observation" style="text;strokeColor=none;fillColor=none;align=left;verticalAlign=middle;spacingLeft=4;spacingRight=4;overflow=hidden;points=[[0,0.5],[1,0.5]];portConstraint=eastwest;rotatable=0;whiteSpace=wrap;html=1;" vertex="1" parent="9Jy4nu5iVQ67U5WA-zAP-20">
          <mxGeometry y="80" width="140" height="30" as="geometry" />
        </mxCell>
        <mxCell id="9Jy4nu5iVQ67U5WA-zAP-78" value="Personal Bio" style="swimlane;fontStyle=0;childLayout=stackLayout;horizontal=1;startSize=20;horizontalStack=0;resizeParent=1;resizeParentMax=0;resizeLast=0;collapsible=1;marginBottom=0;whiteSpace=wrap;html=1;" vertex="1" parent="Phphtxd2D6d0RNNB2ZdB-5">
          <mxGeometry x="20" y="260" width="140" height="170" as="geometry" />
        </mxCell>
        <mxCell id="UBcfyfctAIULLASqHLvR-16" value="ID" style="text;strokeColor=none;fillColor=none;align=left;verticalAlign=middle;spacingLeft=4;spacingRight=4;overflow=hidden;points=[[0,0.5],[1,0.5]];portConstraint=eastwest;rotatable=0;whiteSpace=wrap;html=1;" vertex="1" parent="9Jy4nu5iVQ67U5WA-zAP-78">
          <mxGeometry y="20" width="140" height="30" as="geometry" />
        </mxCell>
        <mxCell id="9Jy4nu5iVQ67U5WA-zAP-79" value="Personal Photo" style="text;strokeColor=none;fillColor=none;align=left;verticalAlign=middle;spacingLeft=4;spacingRight=4;overflow=hidden;points=[[0,0.5],[1,0.5]];portConstraint=eastwest;rotatable=0;whiteSpace=wrap;html=1;" vertex="1" parent="9Jy4nu5iVQ67U5WA-zAP-78">
          <mxGeometry y="50" width="140" height="30" as="geometry" />
        </mxCell>
        <mxCell id="9Jy4nu5iVQ67U5WA-zAP-80" value="Tags" style="text;strokeColor=none;fillColor=none;align=left;verticalAlign=middle;spacingLeft=4;spacingRight=4;overflow=hidden;points=[[0,0.5],[1,0.5]];portConstraint=eastwest;rotatable=0;whiteSpace=wrap;html=1;" vertex="1" parent="9Jy4nu5iVQ67U5WA-zAP-78">
          <mxGeometry y="80" width="140" height="30" as="geometry" />
        </mxCell>
        <mxCell id="9Jy4nu5iVQ67U5WA-zAP-81" value="Characteristics" style="text;strokeColor=none;fillColor=none;align=left;verticalAlign=middle;spacingLeft=4;spacingRight=4;overflow=hidden;points=[[0,0.5],[1,0.5]];portConstraint=eastwest;rotatable=0;whiteSpace=wrap;html=1;" vertex="1" parent="9Jy4nu5iVQ67U5WA-zAP-78">
          <mxGeometry y="110" width="140" height="30" as="geometry" />
        </mxCell>
        <mxCell id="9Jy4nu5iVQ67U5WA-zAP-86" value="Answers in Full" style="text;strokeColor=none;fillColor=none;align=left;verticalAlign=middle;spacingLeft=4;spacingRight=4;overflow=hidden;points=[[0,0.5],[1,0.5]];portConstraint=eastwest;rotatable=0;whiteSpace=wrap;html=1;" vertex="1" parent="9Jy4nu5iVQ67U5WA-zAP-78">
          <mxGeometry y="140" width="140" height="30" as="geometry" />
        </mxCell>
        <mxCell id="9Jy4nu5iVQ67U5WA-zAP-102" value="Login Information" style="swimlane;fontStyle=0;childLayout=stackLayout;horizontal=1;startSize=19;horizontalStack=0;resizeParent=1;resizeParentMax=0;resizeLast=0;collapsible=1;marginBottom=0;whiteSpace=wrap;html=1;align=center;" vertex="1" parent="Phphtxd2D6d0RNNB2ZdB-5">
          <mxGeometry x="20" y="440" width="140" height="109" as="geometry" />
        </mxCell>
        <mxCell id="UBcfyfctAIULLASqHLvR-19" value="ID" style="text;strokeColor=none;fillColor=none;align=left;verticalAlign=middle;spacingLeft=4;spacingRight=4;overflow=hidden;points=[[0,0.5],[1,0.5]];portConstraint=eastwest;rotatable=0;whiteSpace=wrap;html=1;" vertex="1" parent="9Jy4nu5iVQ67U5WA-zAP-102">
          <mxGeometry y="19" width="140" height="30" as="geometry" />
        </mxCell>
        <mxCell id="9Jy4nu5iVQ67U5WA-zAP-103" value="Email" style="text;strokeColor=none;fillColor=none;align=left;verticalAlign=middle;spacingLeft=4;spacingRight=4;overflow=hidden;points=[[0,0.5],[1,0.5]];portConstraint=eastwest;rotatable=0;whiteSpace=wrap;html=1;" vertex="1" parent="9Jy4nu5iVQ67U5WA-zAP-102">
          <mxGeometry y="49" width="140" height="30" as="geometry" />
        </mxCell>
        <mxCell id="9Jy4nu5iVQ67U5WA-zAP-104" value="Password&amp;nbsp;" style="text;strokeColor=none;fillColor=none;align=left;verticalAlign=middle;spacingLeft=4;spacingRight=4;overflow=hidden;points=[[0,0.5],[1,0.5]];portConstraint=eastwest;rotatable=0;whiteSpace=wrap;html=1;" vertex="1" parent="9Jy4nu5iVQ67U5WA-zAP-102">
          <mxGeometry y="79" width="140" height="30" as="geometry" />
        </mxCell>
        <mxCell id="3PP495jiauaJpkdDZrHe-91" value="Task" style="swimlane;fontStyle=0;childLayout=stackLayout;horizontal=1;startSize=20;horizontalStack=0;resizeParent=1;resizeParentMax=0;resizeLast=0;collapsible=1;marginBottom=0;whiteSpace=wrap;html=1;" vertex="1" parent="Phphtxd2D6d0RNNB2ZdB-5">
          <mxGeometry x="20" y="560" width="140" height="140" as="geometry" />
        </mxCell>
        <mxCell id="UBcfyfctAIULLASqHLvR-28" value="ID" style="text;strokeColor=none;fillColor=none;align=left;verticalAlign=middle;spacingLeft=4;spacingRight=4;overflow=hidden;points=[[0,0.5],[1,0.5]];portConstraint=eastwest;rotatable=0;whiteSpace=wrap;html=1;" vertex="1" parent="3PP495jiauaJpkdDZrHe-91">
          <mxGeometry y="20" width="140" height="30" as="geometry" />
        </mxCell>
        <mxCell id="3PP495jiauaJpkdDZrHe-92" value="Title of task" style="text;strokeColor=none;fillColor=none;align=left;verticalAlign=middle;spacingLeft=4;spacingRight=4;overflow=hidden;points=[[0,0.5],[1,0.5]];portConstraint=eastwest;rotatable=0;whiteSpace=wrap;html=1;" vertex="1" parent="3PP495jiauaJpkdDZrHe-91">
          <mxGeometry y="50" width="140" height="30" as="geometry" />
        </mxCell>
        <mxCell id="9Jy4nu5iVQ67U5WA-zAP-111" value="Box" style="text;strokeColor=none;fillColor=none;align=left;verticalAlign=middle;spacingLeft=4;spacingRight=4;overflow=hidden;points=[[0,0.5],[1,0.5]];portConstraint=eastwest;rotatable=0;whiteSpace=wrap;html=1;" vertex="1" parent="3PP495jiauaJpkdDZrHe-91">
          <mxGeometry y="80" width="140" height="30" as="geometry" />
        </mxCell>
        <mxCell id="9Jy4nu5iVQ67U5WA-zAP-113" value="Order" style="text;strokeColor=none;fillColor=none;align=left;verticalAlign=middle;spacingLeft=4;spacingRight=4;overflow=hidden;points=[[0,0.5],[1,0.5]];portConstraint=eastwest;rotatable=0;whiteSpace=wrap;html=1;" vertex="1" parent="3PP495jiauaJpkdDZrHe-91">
          <mxGeometry y="110" width="140" height="30" as="geometry" />
        </mxCell>
        <mxCell id="Q8bI6oUkw9Ppd8dmuiiR-91" value="Text Report" style="swimlane;fontStyle=0;childLayout=stackLayout;horizontal=1;startSize=21;horizontalStack=0;resizeParent=1;resizeParentMax=0;resizeLast=0;collapsible=1;marginBottom=0;whiteSpace=wrap;html=1;" vertex="1" parent="Phphtxd2D6d0RNNB2ZdB-5">
          <mxGeometry x="20" y="1050" width="140" height="51" as="geometry" />
        </mxCell>
        <mxCell id="Q8bI6oUkw9Ppd8dmuiiR-92" value="Text Members" style="text;strokeColor=none;fillColor=none;align=left;verticalAlign=middle;spacingLeft=4;spacingRight=4;overflow=hidden;points=[[0,0.5],[1,0.5]];portConstraint=eastwest;rotatable=0;whiteSpace=wrap;html=1;" vertex="1" parent="Q8bI6oUkw9Ppd8dmuiiR-91">
          <mxGeometry y="21" width="140" height="30" as="geometry" />
        </mxCell>
        <mxCell id="Phphtxd2D6d0RNNB2ZdB-15" value="Controller" style="swimlane;whiteSpace=wrap;html=1;strokeColor=default;rounded=0;swimlaneLine=1;" vertex="1" parent="1">
          <mxGeometry x="-200" y="-2" width="200" height="1112" as="geometry" />
        </mxCell>
        <mxCell id="3PP495jiauaJpkdDZrHe-73" value="Task" style="swimlane;fontStyle=0;childLayout=stackLayout;horizontal=1;startSize=30;horizontalStack=0;resizeParent=1;resizeParentMax=0;resizeLast=0;collapsible=1;marginBottom=0;whiteSpace=wrap;html=1;" vertex="1" parent="Phphtxd2D6d0RNNB2ZdB-15">
          <mxGeometry x="30" y="351" width="140" height="150" as="geometry" />
        </mxCell>
        <mxCell id="3PP495jiauaJpkdDZrHe-74" value="List" style="text;strokeColor=none;fillColor=none;align=left;verticalAlign=middle;spacingLeft=4;spacingRight=4;overflow=hidden;points=[[0,0.5],[1,0.5]];portConstraint=eastwest;rotatable=0;whiteSpace=wrap;html=1;" vertex="1" parent="3PP495jiauaJpkdDZrHe-73">
          <mxGeometry y="30" width="140" height="30" as="geometry" />
        </mxCell>
        <mxCell id="3PP495jiauaJpkdDZrHe-75" value="Update" style="text;strokeColor=none;fillColor=none;align=left;verticalAlign=middle;spacingLeft=4;spacingRight=4;overflow=hidden;points=[[0,0.5],[1,0.5]];portConstraint=eastwest;rotatable=0;whiteSpace=wrap;html=1;" vertex="1" parent="3PP495jiauaJpkdDZrHe-73">
          <mxGeometry y="60" width="140" height="30" as="geometry" />
        </mxCell>
        <mxCell id="3PP495jiauaJpkdDZrHe-76" value="Search" style="text;strokeColor=none;fillColor=none;align=left;verticalAlign=middle;spacingLeft=4;spacingRight=4;overflow=hidden;points=[[0,0.5],[1,0.5]];portConstraint=eastwest;rotatable=0;whiteSpace=wrap;html=1;" vertex="1" parent="3PP495jiauaJpkdDZrHe-73">
          <mxGeometry y="90" width="140" height="30" as="geometry" />
        </mxCell>
        <mxCell id="3PP495jiauaJpkdDZrHe-77" value="Save" style="text;strokeColor=none;fillColor=none;align=left;verticalAlign=middle;spacingLeft=4;spacingRight=4;overflow=hidden;points=[[0,0.5],[1,0.5]];portConstraint=eastwest;rotatable=0;whiteSpace=wrap;html=1;" vertex="1" parent="3PP495jiauaJpkdDZrHe-73">
          <mxGeometry y="120" width="140" height="30" as="geometry" />
        </mxCell>
        <mxCell id="9Jy4nu5iVQ67U5WA-zAP-71" value="User" style="swimlane;fontStyle=0;childLayout=stackLayout;horizontal=1;startSize=30;horizontalStack=0;resizeParent=1;resizeParentMax=0;resizeLast=0;collapsible=1;marginBottom=0;whiteSpace=wrap;html=1;" vertex="1" parent="Phphtxd2D6d0RNNB2ZdB-15">
          <mxGeometry x="30" y="41" width="140" height="150" as="geometry" />
        </mxCell>
        <mxCell id="9Jy4nu5iVQ67U5WA-zAP-72" value="List" style="text;strokeColor=none;fillColor=none;align=left;verticalAlign=middle;spacingLeft=4;spacingRight=4;overflow=hidden;points=[[0,0.5],[1,0.5]];portConstraint=eastwest;rotatable=0;whiteSpace=wrap;html=1;" vertex="1" parent="9Jy4nu5iVQ67U5WA-zAP-71">
          <mxGeometry y="30" width="140" height="30" as="geometry" />
        </mxCell>
        <mxCell id="9Jy4nu5iVQ67U5WA-zAP-73" value="Update" style="text;strokeColor=none;fillColor=none;align=left;verticalAlign=middle;spacingLeft=4;spacingRight=4;overflow=hidden;points=[[0,0.5],[1,0.5]];portConstraint=eastwest;rotatable=0;whiteSpace=wrap;html=1;" vertex="1" parent="9Jy4nu5iVQ67U5WA-zAP-71">
          <mxGeometry y="60" width="140" height="30" as="geometry" />
        </mxCell>
        <mxCell id="9Jy4nu5iVQ67U5WA-zAP-74" value="Search" style="text;strokeColor=none;fillColor=none;align=left;verticalAlign=middle;spacingLeft=4;spacingRight=4;overflow=hidden;points=[[0,0.5],[1,0.5]];portConstraint=eastwest;rotatable=0;whiteSpace=wrap;html=1;" vertex="1" parent="9Jy4nu5iVQ67U5WA-zAP-71">
          <mxGeometry y="90" width="140" height="30" as="geometry" />
        </mxCell>
        <mxCell id="9Jy4nu5iVQ67U5WA-zAP-75" value="Save" style="text;strokeColor=none;fillColor=none;align=left;verticalAlign=middle;spacingLeft=4;spacingRight=4;overflow=hidden;points=[[0,0.5],[1,0.5]];portConstraint=eastwest;rotatable=0;whiteSpace=wrap;html=1;" vertex="1" parent="9Jy4nu5iVQ67U5WA-zAP-71">
          <mxGeometry y="120" width="140" height="30" as="geometry" />
        </mxCell>
        <mxCell id="nOtUrchcvmmtRtQINzbd-34" value="Rating Process/Reports" style="swimlane;fontStyle=0;childLayout=stackLayout;horizontal=1;startSize=31;horizontalStack=0;resizeParent=1;resizeParentMax=0;resizeLast=0;collapsible=1;marginBottom=0;whiteSpace=wrap;html=1;" vertex="1" parent="Phphtxd2D6d0RNNB2ZdB-15">
          <mxGeometry x="30" y="211" width="140" height="91" as="geometry" />
        </mxCell>
        <mxCell id="nOtUrchcvmmtRtQINzbd-36" value="Save" style="text;strokeColor=none;fillColor=none;align=left;verticalAlign=middle;spacingLeft=4;spacingRight=4;overflow=hidden;points=[[0,0.5],[1,0.5]];portConstraint=eastwest;rotatable=0;whiteSpace=wrap;html=1;" vertex="1" parent="nOtUrchcvmmtRtQINzbd-34">
          <mxGeometry y="31" width="140" height="30" as="geometry" />
        </mxCell>
        <mxCell id="nOtUrchcvmmtRtQINzbd-35" value="Update" style="text;strokeColor=none;fillColor=none;align=left;verticalAlign=middle;spacingLeft=4;spacingRight=4;overflow=hidden;points=[[0,0.5],[1,0.5]];portConstraint=eastwest;rotatable=0;whiteSpace=wrap;html=1;" vertex="1" parent="nOtUrchcvmmtRtQINzbd-34">
          <mxGeometry y="61" width="140" height="30" as="geometry" />
        </mxCell>
        <mxCell id="nOtUrchcvmmtRtQINzbd-32" style="edgeStyle=orthogonalEdgeStyle;rounded=0;orthogonalLoop=1;jettySize=auto;html=1;entryX=0;entryY=0.5;entryDx=0;entryDy=0;exitX=0.999;exitY=0.167;exitDx=0;exitDy=0;exitPerimeter=0;" edge="1" parent="Phphtxd2D6d0RNNB2ZdB-15">
          <mxGeometry relative="1" as="geometry">
            <mxPoint x="-60.139999999999986" y="115.52999999999997" as="sourcePoint" />
            <mxPoint x="30" y="116.5" as="targetPoint" />
            <Array as="points">
              <mxPoint x="-60" y="117" />
              <mxPoint x="30" y="117" />
            </Array>
          </mxGeometry>
        </mxCell>
        <mxCell id="UBcfyfctAIULLASqHLvR-45" value="" style="shape=image;verticalLabelPosition=bottom;labelBackgroundColor=default;verticalAlign=top;aspect=fixed;imageAspect=0;image=data:image/svg+xml,PHN2ZyB4bWxucz0iaHR0cDovL3d3dy53My5vcmcvMjAwMC9zdmciIHZpZXdCb3g9IjAgMCA0NDIuMzcgMjcwLjkyOSIgdmVyc2lvbj0iMS4yIiBoZWlnaHQ9IjM2MS4yMzgiIHdpZHRoPSI1ODkuODI3Ij48ZGVmcz48Y2xpcFBhdGggaWQ9ImEiPjxwYXRoIGQ9Ik0yMzkuMDMgMjI2LjYwNWwtNDIuMTMgMjQuMzE3Yy0xLjU3OC45MS0yLjU0NiAyLjU5LTIuNTQ2IDQuNDA2djQ4LjY2OGMwIDEuODE3Ljk2OCAzLjQ5NiAyLjU0NiA0LjQwNmw0Mi4xMzMgMjQuMzM2YzEuNTc1LjkwNyAzLjUxNy45MDcgNS4wOSAwbDQyLjEyNi0yNC4zMzZjMS41Ny0uOTEgMi41NC0yLjU5IDIuNTQtNC40MDZ2LTQ4LjY2OGMwLTEuODE2LS45Ny0zLjQ5Ni0yLjU1LTQuNDA2bC00Mi4xMi0yNC4zMTdjLS43OS0uNDUzLTEuNjctLjY4LTIuNTUtLjY4LS44OCAwLTEuNzYuMjI3LTIuNTUuNjgiLz48L2NsaXBQYXRoPjxsaW5lYXJHcmFkaWVudCBncmFkaWVudFVuaXRzPSJ1c2VyU3BhY2VPblVzZSIgZ3JhZGllbnRUcmFuc2Zvcm09InJvdGF0ZSgxMTYuMTE0IDUzLjEgMjAyLjk3KSBzY2FsZSg4Ni40OCkiIHgyPSIxLjI1MSIgeDE9Ii0uMzQ4IiBpZD0iYiI+PHN0b3Agc3RvcC1jb2xvcj0iIzNFODYzRCIgb2Zmc2V0PSIuMyIvPjxzdG9wIHN0b3AtY29sb3I9IiM1NTkzNEYiIG9mZnNldD0iLjUiLz48c3RvcCBzdG9wLWNvbG9yPSIjNUFBRDQ1IiBvZmZzZXQ9Ii44Ii8+PC9saW5lYXJHcmFkaWVudD48Y2xpcFBhdGggaWQ9ImMiPjxwYXRoIGQ9Ik0xOTUuMzk4IDMwNy4wODZjLjQwMy41MjMuOTA3Ljk3NiAxLjUgMS4zMTZsMzYuMTQgMjAuODc1IDYuMDIgMy40NmMuOS41MiAxLjkyNi43NCAyLjkzNC42NjUuMzM2LS4wMjcuNjcyLS4wOSAxLS4xODNsNDQuNDM0LTgxLjM2Yy0uMzQtLjM3LS43MzgtLjY4LTEuMTg0LS45NGwtMjcuNTg2LTE1LjkzLTE0LjU4Mi04LjM5Yy0uNDE0LS4yNC0uODYzLS40MS0xLjMyLS41M3ptMCAwIi8+PC9jbGlwUGF0aD48bGluZWFyR3JhZGllbnQgZ3JhZGllbnRVbml0cz0idXNlclNwYWNlT25Vc2UiIGdyYWRpZW50VHJhbnNmb3JtPSJyb3RhdGUoLTM2LjQ2IDU1MC44NDYgLTIxNC4zMzcpIHNjYWxlKDEzMi43OTgpIiB4Mj0iLjU4MiIgeDE9Ii0uNDU2IiBpZD0iZCI+PHN0b3Agc3RvcC1jb2xvcj0iIzNFODYzRCIgb2Zmc2V0PSIuNTciLz48c3RvcCBzdG9wLWNvbG9yPSIjNjE5ODU3IiBvZmZzZXQ9Ii43MiIvPjxzdG9wIHN0b3AtY29sb3I9IiM3NkFDNjQiIG9mZnNldD0iMSIvPjwvbGluZWFyR3JhZGllbnQ+PGNsaXBQYXRoIGlkPSJlIj48cGF0aCBkPSJNMjQxLjA2NiAyMjUuOTUzYy0uNzA3LjA3LTEuMzk4LjI5LTIuMDM1LjY1MmwtNDIuMDEgMjQuMjQ3IDQ1LjMgODIuNTFjLjYzLS4wOSAxLjI1LS4zIDEuODEtLjYyNGw0Mi4xMy0yNC4zMzZjMS4zLS43NTQgMi4xOS0yLjAzIDIuNDYtMy40NzZsLTQ2LjE4LTc4Ljg5Yy0uMzQtLjA2Ny0uNjgtLjEwMi0xLjAzLS4xMDItLjE0IDAtLjI4LjAwNy0uNDIuMDIiLz48L2NsaXBQYXRoPjxsaW5lYXJHcmFkaWVudCBncmFkaWVudFVuaXRzPSJ1c2VyU3BhY2VPblVzZSIgZ3JhZGllbnRUcmFuc2Zvcm09InRyYW5zbGF0ZSgxOTIuODYyIDI3OS42NTIpIHNjYWxlKDk3LjQxNykiIHgyPSIuOTg0IiB4MT0iLjA0MyIgaWQ9ImYiPjxzdG9wIHN0b3AtY29sb3I9IiM2QkJGNDciIG9mZnNldD0iLjE2Ii8+PHN0b3Agc3RvcC1jb2xvcj0iIzc5QjQ2MSIgb2Zmc2V0PSIuMzgiLz48c3RvcCBzdG9wLWNvbG9yPSIjNzVBQzY0IiBvZmZzZXQ9Ii40NyIvPjxzdG9wIHN0b3AtY29sb3I9IiM2NTlFNUEiIG9mZnNldD0iLjciLz48c3RvcCBzdG9wLWNvbG9yPSIjM0U4NjNEIiBvZmZzZXQ9Ii45Ii8+PC9saW5lYXJHcmFkaWVudD48L2RlZnM+PHBhdGggZD0iTTIxOC42NDcgMjcwLjkzYy0xLjQ2IDAtMi45MS0uMzgzLTQuMTktMS4xMmwtMTMuMzM3LTcuODk2Yy0xLjk5Mi0xLjExNC0xLjAyLTEuNTA4LS4zNjMtMS43MzUgMi42NTYtLjkzIDMuMTk1LTEuMTQgNi4wMy0yLjc1LjI5OC0uMTcuNjg4LS4xMS45OTMuMDdsMTAuMjQ2IDYuMDhjLjM3LjIuODk1LjIgMS4yMzggMGwzOS45NS0yMy4wNmMuMzctLjIxLjYxLS42NC42MS0xLjA4di00Ni4xYzAtLjQ2LS4yNC0uODctLjYxOC0xLjFsLTM5LjkzNC0yMy4wNGMtLjM3LS4yMi0uODYtLjIyLTEuMjMgMGwtMzkuOTI2IDIzLjA0Yy0uMzg3LjIyLS42MzMuNjUtLjYzMyAxLjA5djQ2LjFjMCAuNDQuMjQuODYuNjIgMS4wN2wxMC45NCA2LjMyYzUuOTQgMi45NyA5LjU3LS41MyA5LjU3LTQuMDV2LTQ1LjVjMC0uNjUuNTEtMS4xNSAxLjE2LTEuMTVoNS4wNmMuNjMgMCAxLjE1LjUgMS4xNSAxLjE1djQ1LjUyYzAgNy45Mi00LjMyIDEyLjQ3LTExLjgzIDEyLjQ3LTIuMzEgMC00LjEzIDAtOS4yMS0yLjVsLTEwLjQ4LTYuMDRjLTIuNTktMS41LTQuMTktNC4zLTQuMTktNy4yOXYtNDYuMWMwLTMgMS42LTUuOCA0LjE5LTcuMjhsMzkuOTktMjMuMDdjMi41My0xLjQzIDUuODktMS40MyA4LjQgMGwzOS45NCAyMy4wOGMyLjU4IDEuNDkgNC4xOSA0LjI4IDQuMTkgNy4yOHY0Ni4xYzAgMi45OS0xLjYxIDUuNzgtNC4xOSA3LjI4bC0zOS45NCAyMy4wN2MtMS4yOC43NC0yLjczIDEuMTItNC4yMSAxLjEyIiBmaWxsPSIjNjg5ZjYzIi8+PHBhdGggZD0iTTIzMC45ODcgMjM5LjE2NGMtMTcuNDggMC0yMS4xNDUtOC4wMjQtMjEuMTQ1LTE0Ljc1NCAwLS42NC41MTYtMS4xNSAxLjE1Ny0xLjE1aDUuMTZjLjU3IDAgMS4wNS40MTUgMS4xNC45NzguNzggNS4yNTggMy4xIDcuOTEgMTMuNjcgNy45MSA4LjQyIDAgMTItMS45MDIgMTItNi4zNjcgMC0yLjU3LTEuMDItNC40OC0xNC4xLTUuNzYtMTAuOTQtMS4wOC0xNy43LTMuNDktMTcuNy0xMi4yNCAwLTguMDYgNi44LTEyLjg2IDE4LjE5LTEyLjg2IDEyLjc5IDAgMTkuMTMgNC40NCAxOS45MyAxMy45OC4wMy4zMy0uMDkuNjUtLjMxLjg5LS4yMi4yMy0uNTMuMzctLjg1LjM3aC01LjE5Yy0uNTQgMC0xLjAxLS4zOC0xLjEyLS45LTEuMjUtNS41My00LjI3LTcuMy0xMi40OC03LjMtOS4xOSAwLTEwLjI2IDMuMi0xMC4yNiA1LjYgMCAyLjkxIDEuMjYgMy43NiAxMy42NiA1LjQgMTIuMjggMS42MyAxOC4xMSAzLjkzIDE4LjExIDEyLjU2IDAgOC43LTcuMjYgMTMuNjktMTkuOTIgMTMuNjltNDguNjYtNDguODloMS4zNGMxLjEgMCAxLjMxLS43NyAxLjMxLTEuMjIgMC0xLjE4LS44MS0xLjE4LTEuMjYtMS4xOGgtMS4zOHptLTEuNjMtMy43OGgyLjk3YzEuMDIgMCAzLjAyIDAgMy4wMiAyLjI4IDAgMS41OS0xLjAyIDEuOTItMS42MyAyLjEyIDEuMTkuMDggMS4yNy44NiAxLjQzIDEuOTYuMDguNjkuMjEgMS44OC40NSAyLjI4aC0xLjgzYy0uMDUtLjQtLjMzLTIuNi0uMzMtMi43Mi0uMTItLjQ5LS4yOS0uNzMtLjktLjczaC0xLjUxdjMuNDZoLTEuNjd6bS0zLjU3IDQuM2MwIDMuNTggMi44OSA2LjQ4IDYuNDQgNi40OCAzLjU4IDAgNi40Ny0yLjk2IDYuNDctNi40OCAwLTMuNTktMi45My02LjQ0LTYuNDgtNi40NC0zLjUgMC02LjQ0IDIuODEtNi40NCA2LjQzbTE0LjE2LjAzYzAgNC4yNC0zLjQ3IDcuNy03LjcgNy43LTQuMiAwLTcuNy0zLjQyLTcuNy03LjcgMC00LjM2IDMuNTgtNy43IDcuNy03LjcgNC4xNSAwIDcuNjkgMy4zNSA3LjY5IDcuNyIgZmlsbD0iIzY4OWY2MyIvPjxwYXRoIGQ9Ik05NC45MzYgOTAuNTVjMC0xLjg0LS45Ny0zLjUzLTIuNTU4LTQuNDQ1bC00Mi4zNTYtMjQuMzdjLS43MTUtLjQyLTEuNTE2LS42NC0yLjMyOC0uNjdoLS40MzhjLS44MTIuMDMtMS42MTMuMjUtMi4zNC42N0wyLjU2MiA4Ni4xMDVDLjk4NCA4Ny4wMjUgMCA4OC43MTUgMCA5MC41NTVsLjA5MyA2NS42NGMwIC45MS40NyAxLjc2IDEuMjcgMi4yMS43OC40OCAxLjc2LjQ4IDIuNTQgMGwyNS4xOC0xNC40MmMxLjU5LS45NDYgMi41Ni0yLjYxOCAyLjU2LTQuNDRWMTA4Ljg4YzAtMS44My45Ny0zLjUyIDIuNTU1LTQuNDNsMTAuNzItNi4xNzRjLjc5Ni0uNDYgMS42Ny0uNjg4IDIuNTYtLjY4OC44NzYgMCAxLjc3LjIyNiAyLjU0NC42ODdsMTAuNzE1IDYuMTcyYzEuNTg2LjkxIDIuNTYgMi42IDIuNTYgNC40M3YzMC42NjNjMCAxLjgyLjk4MyAzLjUgMi41NjUgNC40NGwyNS4xNjQgMTQuNDFjLjc5LjQ3IDEuNzczLjQ3IDIuNTYgMCAuNzc2LS40NSAxLjI2OC0xLjMgMS4yNjgtMi4yMXptMTk5Ljg2OCAzNC4xNzZjMCAuNDU3LS4yNDMuODgtLjY0IDEuMTA2bC0xNC41NDggOC4zODZjLS4zOTUuMjI3LS44ODMuMjI3LTEuMjc3IDBsLTE0LjU1LTguMzg2Yy0uNC0uMjI3LS42NC0uNjUtLjY0LTEuMTA2VjEwNy45M2MwLS40NTguMjQtLjg4LjYzLTEuMTFsMTQuNTQtOC40Yy40LS4yMy44OS0uMjMgMS4yOSAwbDE0LjU1IDguNGMuNC4yMy42NC42NTIuNjQgMS4xMXpNMjk4LjczNC4zMjRjLS43OTQtLjQ0Mi0xLjc2LS40My0yLjU0NC4wMjctLjc4LjQ2LTEuMjYyIDEuMy0xLjI2MiAyLjIxdjY1YzAgLjY0LS4zNCAxLjIzLS44OTQgMS41NS0uNTUuMzItMS4yMzUuMzItMS43OSAwTDI4MS42MzQgNjNjLTEuNTgtLjkxNC0zLjUyNi0uOTE0LTUuMTEyIDBsLTQyLjM3IDI0LjQ1M2MtMS41ODMuOTEtMi41NiAyLjYtMi41NiA0LjQydjQ4LjkyYzAgMS44My45NzcgMy41MSAyLjU2IDQuNDNsNDIuMzcgMjQuNDdjMS41ODIuOTEgMy41My45MSA1LjExNyAwbDQyLjM3LTI0LjQ4YzEuNTgtLjkyIDIuNTYtMi42IDIuNTYtNC40M1YxOC44NjNjMC0xLjg1Ni0xLjAxLTMuNTYzLTIuNjMtNC40N3ptMTQxLjA5MyAxMDcuMTY0YzEuNTc0LS45MTQgMi41NDMtMi42MDIgMi41NDMtNC40MjJWOTEuMjFjMC0xLjgyNC0uOTctMy41MDctMi41NDctNC40MjVsLTQyLjEtMjQuNDRjLTEuNTktLjkyLTMuNTQtLjkyLTUuMTMgMGwtNDIuMzYgMjQuNDVjLTEuNTkuOTItMi41NiAyLjYtMi41NiA0LjQzdjQ4LjljMCAxLjg0Ljk5IDMuNTQgMi41OCA0LjQ1bDQyLjA5IDIzLjk5YzEuNTUuODkgMy40NS45IDUuMDIuMDNsMjUuNDYtMTQuMTVjLjgtLjQ1IDEuMzEtMS4zIDEuMzEtMi4yMiAwLS45Mi0uNDktMS43OC0xLjI5LTIuMjNsLTQyLjYyLTI0LjQ2Yy0uOC0uNDUtMS4yOS0xLjMtMS4yOS0yLjIxdi0xNS4zNGMwLS45MTYuNDgtMS43NiAxLjI4LTIuMjE2bDEzLjI2LTcuNjVjLjc5LS40NiAxLjc2LS40NiAyLjU1IDBsMTMuMjcgNy42NWMuNzkuNDUgMS4yOCAxLjMgMS4yOCAyLjIxdjEyLjA2YzAgLjkxLjQ5IDEuNzYgMS4yOCAyLjIyLjc5LjQ1IDEuNzcuNDUgMi41Ni0uMDF6bTAgMCIgZmlsbC1ydWxlPSJldmVub2RkIiBmaWxsPSIjMzMzIi8+PHBhdGggZD0iTTM5NC41MzggMTA1LjJjLjMtLjE3Ny42NzYtLjE3Ny45OCAwbDguMTMgNC42OWMuMzA0LjE3Ni40OS41LjQ5Ljg1djkuMzljMCAuMzUtLjE4Ni42NzQtLjQ5Ljg1bC04LjEzIDQuNjljLS4zMDQuMTc3LS42OC4xNzctLjk4IDBsLTguMTI1LTQuNjljLS4zMS0uMTc2LS41LS41LS41LS44NXYtOS4zOWMwLS4zNS4xOC0uNjc0LjQ5LS44NXptMCAwIiBmaWxsLXJ1bGU9ImV2ZW5vZGQiIGZpbGw9IiM2ODlmNjMiLz48ZyB0cmFuc2Zvcm09InRyYW5zbGF0ZSgtNzguMzA2IC0xNjQuMDE2KSIgY2xpcC1wYXRoPSJ1cmwoI2EpIj48cGF0aCBkPSJNMzMxLjM2MyAyNDYuNzkzbC0xMTguNzE1LTU4LjE5LTYwLjg3IDEyNC4xNzRMMjcwLjQ5IDM3MC45N3ptMCAwIiBmaWxsPSJ1cmwoI2IpIi8+PC9nPjxnIHRyYW5zZm9ybT0idHJhbnNsYXRlKC03OC4zMDYgLTE2NC4wMTYpIiBjbGlwLXBhdGg9InVybCgjYykiPjxwYXRoIGQ9Ik0xNDQuMDcgMjY0LjAwNGw4My44MjUgMTEzLjQ1MyAxMTAuODYtODEuOTA2LTgzLjgzLTExMy40NXptMCAwIiBmaWxsPSJ1cmwoI2QpIi8+PC9nPjxnIHRyYW5zZm9ybT0idHJhbnNsYXRlKC03OC4zMDYgLTE2NC4wMTYpIiBjbGlwLXBhdGg9InVybCgjZSkiPjxwYXRoIGQ9Ik0xOTcuMDIgMjI1LjkzNHYxMDcuNDNoOTEuNjgzdi0xMDcuNDN6bTAgMCIgZmlsbD0idXJsKCNmKSIvPjwvZz48L3N2Zz4=;" vertex="1" parent="Phphtxd2D6d0RNNB2ZdB-15">
          <mxGeometry x="10" y="872" width="180" height="110.14" as="geometry" />
        </mxCell>
        <mxCell id="UBcfyfctAIULLASqHLvR-44" value="" style="shape=image;verticalLabelPosition=bottom;labelBackgroundColor=default;verticalAlign=top;aspect=fixed;imageAspect=0;image=data:image/webp,UklGRq4IAABXRUJQVlA4WAoAAAAIAAAAjwEAKwEAVlA4IM4HAAAQOACdASqQASwBPm02mUmkIyKhIJSYgIANiWlu4XaxGj1KOB6EbzrOzvaBbzHfaB7wH+A1GD0Y/LSpz39D0X/uL2c+X7AHOz0d9hewj+TnAgZQ/3X849vuY6qlUAPzJ6yv+T5Nvpv2E/5d/aOtwDWxeyDZ5mL2QbPMxeyDZ5mL2QbPMxeyDZ5mL2QbPMxeyDZ5mL2QbPMxeyDZ5mL2QbPMxeyDZ5mL2QbPMxeyDZ5mL2QbPMxeyDZlCNfBQF7INnmYvZBs77SS1tGkfcZ4sRBeyDZ5cayC84+15luVXrQMeA8tdy9ctSwtkHt2ItW1gkbA4WucMo+t0I7hsL3lyiHtTWEIn/PCvMhFHaRE9CnGBn2b+Jr6Fs/m3cyhY0EQTjLu7pTOdgSIz3hv/Knk2YKtqilCLopVolNaOWSer2QbPMw6N2tqH9lnSIxx2ILWWR8cRHj1LG8grrO0fw7V0k3xE3mrTEd+WOIyrWQhFBkGPM6K8g4H58si9kGzzMXsg2eZi9kGzzMXsg2eZi9kGzzMXsg2eZi9kGzzMXsg2eZi9kGzzMXsg2eZi9kGzzMXsg2eZi9kGzzMXsg2eZi9kGzzMXsg2eZi9hAAAP7/zDD+KoZFv+0pjir4AAAAAAABhkHkXg/87xBmjO8G/AHOwt+8UuvApIMCv3HIrLXAV9oBl+G87v8JohkGt2p1kPTUrWyRCkDdCgVUspLs0Z80xEOSoRfWGXv3J/QWcxgApUjNf99ttkbdL0Py/M2divy8Jbdh0jx7zk025g8GWj4eVG2HopvT2joDwzz1VwjIFB6KpM71FbWYa3B99jTI8DGmDr2N8RwC960tFwy6b83roxUMbJl3hymurUC7eMlHAcPFBGvUQz9pzfCEfiZ5NZGRzusvdz5aDhQ0q5VtPGF+yluEx/QQFxlgh2/ASZ9FIgK5bFaIhQWd9H8u+VmqMS0/+F+0963ZM5UsnqsOlyA1i7H5IOCFr+q7HLtbgSi2fCGY/r452teF6brb9QgpeY62er8yQGb+QxhNfMeq9jRu9z2Ih7tjvAfk/w0ZvR1HQ/0Hu1HsEb9L84SPoa7PkK7Vnn4MY6nUSPorIOkn1WZg7BHiRwJx3UX9/NXA2fvYFzKjwFMU45/RMfKWCrojiyrfrag0FQPbkpnfRs/gkyCwWCasiO9SutoVdL+vJWmsz2y6gn/TtqNK9m3sS+nrTl6np9IEumy3cE6GQmkcqVU3C5hHyutS5nTKMQZ+PkkJYYv+mZQwf2KuLQfeUh7XAj5gbVlUksx/FC1mDikPvmpVw6Jbieet0/XDkUyiA/4uSfbgzyCuWdcChN4cNBIOudY3WvM8i8myFMJzKRaH9CwG8pUQdiWDZbuo8u3Or6lnI39xZxmV7C+fzvL8DMhKvH7Cny8OoY4o++i4m0ytKZ2jC05TSuuu8zJm9EZnftBskFDWLu+K7JA0j/A+TW4lswxPTKtd1hgWN9H9rQ9y3zQV5x+PslzfRXnpZ3KYBSV68bwEAKBoz5WjfH15m6s4QF/FFQm3IFdGFprsaH9sD3huUullMrma3q8vpVMRMc4wu79+jigEscNZMB6qAH91fO8jBFhsmObIIvTXDBxAuVA3cEEQh0hrt1COT1k58wGfAHYpV/+dH3R205myRekTy+GsCHO28aapylnWzBJcXN5wqIETgu7cdWYlppKzm8nJPHxJpvWVN/8pkG0jmITr+uGU7TeQyY8Ewp2wiq6HZ4JFt8h3l1gUpi/Fs1Ga3HY/T+Y1nvFhCWyLEmCqU/NS+SVPxb4JbJ9bbPzysOaJVUqhjNyCs+su/FWoX9S4JjZC+Vb3qSwH51izGF+UQcAszliIV1AzdmP0L7xWOboHeiO1oZl5e1CoFaL5qpOmqNPuD37WTQ6dwnD5ckVP7aRuVQPoky/9NtlOfKMey84TWkmX8JPwRp7x46S33IQGH5/z4v89ks+eIU5fAJbd1a+ARgiw11bzzJNflqVeH9nl4KS4FE7E2fjjJovUDSUmAKzsAs6YZ6WABNgNNLkuacG3Ad0P4994zxWfqrdowm6rAD4iy5WslbXYdFCchG9hfpAOJRAUamQmT8XGUFBBOhLGrbvnNUYEqUu1nb6qSBaF64+q4H8MYm2y7BbSfGJhCm+QooiEQ7549WwdoCCqaLNdI8wVkRDc0xrT4gqmGGZjQvNGyl9ICIyUFMIcyXQvWeT6OtH2K792pB4qv/B7Qr+uRz6Go9Xj88YXwsXX+GxyprO2DY5vVRq2rOikikL15gYeNLPbAbzh2vuXDB+eC8MMYg7yffJjUoIJu+iMcGEunBQM+LmeG0Odvbh8dha8l5Ew3otrrtlrSgXfjlxg80w4v4dkJPBnVWPwtPYf8KrRUXBYhP0t2MHczSStR/70D4d9cgiEuqoR41ECqpn2PGI1cCEasvUO9bEt7SHBZSiTGIC1Re2l2eUSXfvVGvXPWRTJh7GDCXaL3NQdz0qEqE/eN4mreDinAa/pEHK0xUA1tt+nzzxhYJGJd1wf0PnPjSrh2ssve97Nya+O2bAvTVmwtVGpnG8C634a9tV5cU5HY4d848GdqzcYuuxte5rxCZc8JYB3jHIeBfiGYpTYe1Xe2IAkvRbfhZ1iIs2X31L0UuldooPoqS4AAAAAAAAAAAAAAABFWElGugAAAEV4aWYAAElJKgAIAAAABgASAQMAAQAAAAEAAAAaAQUAAQAAAFYAAAAbAQUAAQAAAF4AAAAoAQMAAQAAAAIAAAATAgMAAQAAAAEAAABphwQAAQAAAGYAAAAAAAAASAAAAAEAAABIAAAAAQAAAAYAAJAHAAQAAAAwMjEwAZEHAAQAAAABAgMAAKAHAAQAAAAwMTAwAaADAAEAAAD//wAAAqAEAAEAAACQAQAAA6AEAAEAAAAsAQAAAAAAAA==;" vertex="1" parent="Phphtxd2D6d0RNNB2ZdB-15">
          <mxGeometry x="40" y="1002" width="120" height="90" as="geometry" />
        </mxCell>
        <mxCell id="Phphtxd2D6d0RNNB2ZdB-27" value="Servidor de BD" style="swimlane;whiteSpace=wrap;html=1;" vertex="1" parent="1">
          <mxGeometry x="270" width="200" height="1110" as="geometry" />
        </mxCell>
        <mxCell id="Phphtxd2D6d0RNNB2ZdB-28" value="" style="image;sketch=0;aspect=fixed;html=1;points=[];align=center;fontSize=12;image=img/lib/mscae/Azure_Database_for_PostgreSQL_servers.svg;" vertex="1" parent="Phphtxd2D6d0RNNB2ZdB-27">
          <mxGeometry x="90" y="50" width="57" height="75" as="geometry" />
        </mxCell>
        <mxCell id="Phphtxd2D6d0RNNB2ZdB-29" value="" style="image;points=[];aspect=fixed;html=1;align=center;shadow=0;dashed=0;image=img/lib/allied_telesis/computer_and_terminals/Server_Desktop.svg;" vertex="1" parent="Phphtxd2D6d0RNNB2ZdB-27">
          <mxGeometry x="157.4" y="30" width="42.599999999999994" height="54" as="geometry" />
        </mxCell>
        <mxCell id="nOtUrchcvmmtRtQINzbd-27" style="edgeStyle=orthogonalEdgeStyle;rounded=0;orthogonalLoop=1;jettySize=auto;html=1;entryX=0.131;entryY=0.048;entryDx=0;entryDy=0;entryPerimeter=0;exitX=1.001;exitY=0.097;exitDx=0;exitDy=0;exitPerimeter=0;" edge="1" parent="Phphtxd2D6d0RNNB2ZdB-27" source="9Jy4nu5iVQ67U5WA-zAP-102">
          <mxGeometry relative="1" as="geometry">
            <mxPoint x="-147" y="544.0400000000002" as="sourcePoint" />
            <mxPoint x="143.09760000000006" y="124.99541000000004" as="targetPoint" />
          </mxGeometry>
        </mxCell>
        <mxCell id="UBcfyfctAIULLASqHLvR-42" value="" style="endArrow=classic;html=1;rounded=0;entryX=0.367;entryY=0.995;entryDx=0;entryDy=0;entryPerimeter=0;exitX=0.994;exitY=0.175;exitDx=0;exitDy=0;exitPerimeter=0;" edge="1" parent="Phphtxd2D6d0RNNB2ZdB-27" source="Q8bI6oUkw9Ppd8dmuiiR-91">
          <mxGeometry width="50" height="50" relative="1" as="geometry">
            <mxPoint x="-80" y="1085.3700000000001" as="sourcePoint" />
            <mxPoint x="101.91899999999987" y="124.995" as="targetPoint" />
            <Array as="points">
              <mxPoint x="10" y="1060" />
              <mxPoint x="110" y="1060" />
            </Array>
          </mxGeometry>
        </mxCell>
        <mxCell id="Phphtxd2D6d0RNNB2ZdB-20" value="Views" style="swimlane;whiteSpace=wrap;html=1;fillColor=#FFFFFF;" vertex="1" parent="1">
          <mxGeometry x="-430" width="200" height="1110" as="geometry" />
        </mxCell>
        <mxCell id="Phphtxd2D6d0RNNB2ZdB-21" value="Team Page" style="swimlane;fontStyle=0;childLayout=stackLayout;horizontal=1;startSize=20;horizontalStack=0;resizeParent=1;resizeParentMax=0;resizeLast=0;collapsible=1;marginBottom=0;whiteSpace=wrap;html=1;" vertex="1" parent="Phphtxd2D6d0RNNB2ZdB-20">
          <mxGeometry x="30" y="40" width="140" height="50" as="geometry" />
        </mxCell>
        <mxCell id="Phphtxd2D6d0RNNB2ZdB-24" value="Profile Boxes" style="text;strokeColor=none;fillColor=none;align=left;verticalAlign=middle;spacingLeft=4;spacingRight=4;overflow=hidden;points=[[0,0.5],[1,0.5]];portConstraint=eastwest;rotatable=0;whiteSpace=wrap;html=1;" vertex="1" parent="Phphtxd2D6d0RNNB2ZdB-21">
          <mxGeometry y="20" width="140" height="30" as="geometry" />
        </mxCell>
        <mxCell id="9Jy4nu5iVQ67U5WA-zAP-1" value="Rating Page" style="swimlane;fontStyle=0;childLayout=stackLayout;horizontal=1;startSize=30;horizontalStack=0;resizeParent=1;resizeParentMax=0;resizeLast=0;collapsible=1;marginBottom=0;whiteSpace=wrap;html=1;" vertex="1" parent="Phphtxd2D6d0RNNB2ZdB-20">
          <mxGeometry x="30" y="400" width="140" height="150" as="geometry" />
        </mxCell>
        <mxCell id="9Jy4nu5iVQ67U5WA-zAP-2" value="&lt;div&gt;&lt;span style=&quot;background-color: initial;&quot;&gt;Stages&lt;/span&gt;&lt;br&gt;&lt;/div&gt;" style="text;strokeColor=none;fillColor=none;align=left;verticalAlign=middle;spacingLeft=4;spacingRight=4;overflow=hidden;points=[[0,0.5],[1,0.5]];portConstraint=eastwest;rotatable=0;whiteSpace=wrap;html=1;" vertex="1" parent="9Jy4nu5iVQ67U5WA-zAP-1">
          <mxGeometry y="30" width="140" height="30" as="geometry" />
        </mxCell>
        <mxCell id="9Jy4nu5iVQ67U5WA-zAP-3" value="Caracteristics" style="text;strokeColor=none;fillColor=none;align=left;verticalAlign=middle;spacingLeft=4;spacingRight=4;overflow=hidden;points=[[0,0.5],[1,0.5]];portConstraint=eastwest;rotatable=0;whiteSpace=wrap;html=1;" vertex="1" parent="9Jy4nu5iVQ67U5WA-zAP-1">
          <mxGeometry y="60" width="140" height="30" as="geometry" />
        </mxCell>
        <mxCell id="Q8bI6oUkw9Ppd8dmuiiR-25" value="Answers" style="text;strokeColor=none;fillColor=none;align=left;verticalAlign=middle;spacingLeft=4;spacingRight=4;overflow=hidden;points=[[0,0.5],[1,0.5]];portConstraint=eastwest;rotatable=0;whiteSpace=wrap;html=1;" vertex="1" parent="9Jy4nu5iVQ67U5WA-zAP-1">
          <mxGeometry y="90" width="140" height="30" as="geometry" />
        </mxCell>
        <mxCell id="9Jy4nu5iVQ67U5WA-zAP-5" value="Grades" style="text;strokeColor=none;fillColor=none;align=left;verticalAlign=middle;spacingLeft=4;spacingRight=4;overflow=hidden;points=[[0,0.5],[1,0.5]];portConstraint=eastwest;rotatable=0;whiteSpace=wrap;html=1;" vertex="1" parent="9Jy4nu5iVQ67U5WA-zAP-1">
          <mxGeometry y="120" width="140" height="30" as="geometry" />
        </mxCell>
        <mxCell id="3PP495jiauaJpkdDZrHe-56" value="Student Profile" style="swimlane;fontStyle=0;childLayout=stackLayout;horizontal=1;startSize=30;horizontalStack=0;resizeParent=1;resizeParentMax=0;resizeLast=0;collapsible=1;marginBottom=0;whiteSpace=wrap;html=1;" vertex="1" parent="Phphtxd2D6d0RNNB2ZdB-20">
          <mxGeometry x="30" y="100" width="140" height="90" as="geometry" />
        </mxCell>
        <mxCell id="3PP495jiauaJpkdDZrHe-58" value="Image" style="text;strokeColor=none;fillColor=none;align=left;verticalAlign=middle;spacingLeft=4;spacingRight=4;overflow=hidden;points=[[0,0.5],[1,0.5]];portConstraint=eastwest;rotatable=0;whiteSpace=wrap;html=1;" vertex="1" parent="3PP495jiauaJpkdDZrHe-56">
          <mxGeometry y="30" width="140" height="30" as="geometry" />
        </mxCell>
        <mxCell id="9Jy4nu5iVQ67U5WA-zAP-76" value="Word slots" style="text;strokeColor=none;fillColor=none;align=left;verticalAlign=middle;spacingLeft=4;spacingRight=4;overflow=hidden;points=[[0,0.5],[1,0.5]];portConstraint=eastwest;rotatable=0;whiteSpace=wrap;html=1;" vertex="1" parent="3PP495jiauaJpkdDZrHe-56">
          <mxGeometry y="60" width="140" height="30" as="geometry" />
        </mxCell>
        <mxCell id="9Jy4nu5iVQ67U5WA-zAP-123" value="Rating Process" style="swimlane;fontStyle=0;childLayout=stackLayout;horizontal=1;startSize=30;horizontalStack=0;resizeParent=1;resizeParentMax=0;resizeLast=0;collapsible=1;marginBottom=0;whiteSpace=wrap;html=1;" vertex="1" parent="Phphtxd2D6d0RNNB2ZdB-20">
          <mxGeometry x="30" y="560" width="140" height="90" as="geometry" />
        </mxCell>
        <mxCell id="9Jy4nu5iVQ67U5WA-zAP-125" value="Word slots" style="text;strokeColor=none;fillColor=none;align=left;verticalAlign=middle;spacingLeft=4;spacingRight=4;overflow=hidden;points=[[0,0.5],[1,0.5]];portConstraint=eastwest;rotatable=0;whiteSpace=wrap;html=1;" vertex="1" parent="9Jy4nu5iVQ67U5WA-zAP-123">
          <mxGeometry y="30" width="140" height="30" as="geometry" />
        </mxCell>
        <mxCell id="9Jy4nu5iVQ67U5WA-zAP-126" value="Number slots" style="text;strokeColor=none;fillColor=none;align=left;verticalAlign=middle;spacingLeft=4;spacingRight=4;overflow=hidden;points=[[0,0.5],[1,0.5]];portConstraint=eastwest;rotatable=0;whiteSpace=wrap;html=1;" vertex="1" parent="9Jy4nu5iVQ67U5WA-zAP-123">
          <mxGeometry y="60" width="140" height="30" as="geometry" />
        </mxCell>
        <mxCell id="Q8bI6oUkw9Ppd8dmuiiR-20" value="Task Page" style="swimlane;fontStyle=0;childLayout=stackLayout;horizontal=1;startSize=30;horizontalStack=0;resizeParent=1;resizeParentMax=0;resizeLast=0;collapsible=1;marginBottom=0;whiteSpace=wrap;html=1;" vertex="1" parent="Phphtxd2D6d0RNNB2ZdB-20">
          <mxGeometry x="30" y="300" width="140" height="90" as="geometry" />
        </mxCell>
        <mxCell id="Q8bI6oUkw9Ppd8dmuiiR-22" value="Boxes Backlog/Doing/Done" style="text;strokeColor=none;fillColor=none;align=left;verticalAlign=middle;spacingLeft=4;spacingRight=4;overflow=hidden;points=[[0,0.5],[1,0.5]];portConstraint=eastwest;rotatable=0;whiteSpace=wrap;html=1;" vertex="1" parent="Q8bI6oUkw9Ppd8dmuiiR-20">
          <mxGeometry y="30" width="140" height="60" as="geometry" />
        </mxCell>
        <mxCell id="Q8bI6oUkw9Ppd8dmuiiR-36" value="Report" style="swimlane;fontStyle=0;childLayout=stackLayout;horizontal=1;startSize=30;horizontalStack=0;resizeParent=1;resizeParentMax=0;resizeLast=0;collapsible=1;marginBottom=0;whiteSpace=wrap;html=1;" vertex="1" parent="Phphtxd2D6d0RNNB2ZdB-20">
          <mxGeometry x="30" y="660" width="140" height="90" as="geometry" />
        </mxCell>
        <mxCell id="Q8bI6oUkw9Ppd8dmuiiR-37" value="Report pessoal" style="text;strokeColor=none;fillColor=none;align=left;verticalAlign=middle;spacingLeft=4;spacingRight=4;overflow=hidden;points=[[0,0.5],[1,0.5]];portConstraint=eastwest;rotatable=0;whiteSpace=wrap;html=1;" vertex="1" parent="Q8bI6oUkw9Ppd8dmuiiR-36">
          <mxGeometry y="30" width="140" height="30" as="geometry" />
        </mxCell>
        <mxCell id="Q8bI6oUkw9Ppd8dmuiiR-38" value="Team report" style="text;strokeColor=none;fillColor=none;align=left;verticalAlign=middle;spacingLeft=4;spacingRight=4;overflow=hidden;points=[[0,0.5],[1,0.5]];portConstraint=eastwest;rotatable=0;whiteSpace=wrap;html=1;" vertex="1" parent="Q8bI6oUkw9Ppd8dmuiiR-36">
          <mxGeometry y="60" width="140" height="30" as="geometry" />
        </mxCell>
        <mxCell id="Q8bI6oUkw9Ppd8dmuiiR-6" value="Login Page" style="swimlane;fontStyle=0;childLayout=stackLayout;horizontal=1;startSize=30;horizontalStack=0;resizeParent=1;resizeParentMax=0;resizeLast=0;collapsible=1;marginBottom=0;whiteSpace=wrap;html=1;align=center;" vertex="1" parent="Phphtxd2D6d0RNNB2ZdB-20">
          <mxGeometry x="30" y="200" width="140" height="90" as="geometry" />
        </mxCell>
        <mxCell id="Q8bI6oUkw9Ppd8dmuiiR-8" value="Word slots" style="text;strokeColor=none;fillColor=none;align=left;verticalAlign=middle;spacingLeft=4;spacingRight=4;overflow=hidden;points=[[0,0.5],[1,0.5]];portConstraint=eastwest;rotatable=0;whiteSpace=wrap;html=1;" vertex="1" parent="Q8bI6oUkw9Ppd8dmuiiR-6">
          <mxGeometry y="30" width="140" height="30" as="geometry" />
        </mxCell>
        <mxCell id="Q8bI6oUkw9Ppd8dmuiiR-9" value="Button" style="text;strokeColor=none;fillColor=none;align=left;verticalAlign=middle;spacingLeft=4;spacingRight=4;overflow=hidden;points=[[0,0.5],[1,0.5]];portConstraint=eastwest;rotatable=0;whiteSpace=wrap;html=1;" vertex="1" parent="Q8bI6oUkw9Ppd8dmuiiR-6">
          <mxGeometry y="60" width="140" height="30" as="geometry" />
        </mxCell>
        <mxCell id="nOtUrchcvmmtRtQINzbd-4" value="Header" style="swimlane;fontStyle=0;childLayout=stackLayout;horizontal=1;startSize=30;horizontalStack=0;resizeParent=1;resizeParentMax=0;resizeLast=0;collapsible=1;marginBottom=0;whiteSpace=wrap;html=1;" vertex="1" parent="Phphtxd2D6d0RNNB2ZdB-20">
          <mxGeometry x="30" y="760" width="140" height="60" as="geometry" />
        </mxCell>
        <mxCell id="nOtUrchcvmmtRtQINzbd-5" value="Update" style="text;strokeColor=none;fillColor=none;align=left;verticalAlign=middle;spacingLeft=4;spacingRight=4;overflow=hidden;points=[[0,0.5],[1,0.5]];portConstraint=eastwest;rotatable=0;whiteSpace=wrap;html=1;" vertex="1" parent="nOtUrchcvmmtRtQINzbd-4">
          <mxGeometry y="30" width="140" height="30" as="geometry" />
        </mxCell>
        <mxCell id="nOtUrchcvmmtRtQINzbd-8" style="edgeStyle=orthogonalEdgeStyle;rounded=0;orthogonalLoop=1;jettySize=auto;html=1;entryX=-0.007;entryY=0.175;entryDx=0;entryDy=0;entryPerimeter=0;" edge="1" parent="Phphtxd2D6d0RNNB2ZdB-20" source="nOtUrchcvmmtRtQINzbd-5" target="Phphtxd2D6d0RNNB2ZdB-21">
          <mxGeometry relative="1" as="geometry" />
        </mxCell>
        <mxCell id="nOtUrchcvmmtRtQINzbd-9" style="edgeStyle=orthogonalEdgeStyle;rounded=0;orthogonalLoop=1;jettySize=auto;html=1;entryX=0;entryY=0.25;entryDx=0;entryDy=0;" edge="1" parent="Phphtxd2D6d0RNNB2ZdB-20" source="nOtUrchcvmmtRtQINzbd-5" target="Q8bI6oUkw9Ppd8dmuiiR-20">
          <mxGeometry relative="1" as="geometry" />
        </mxCell>
        <mxCell id="nOtUrchcvmmtRtQINzbd-12" style="edgeStyle=orthogonalEdgeStyle;rounded=0;orthogonalLoop=1;jettySize=auto;html=1;entryX=0.007;entryY=0.156;entryDx=0;entryDy=0;entryPerimeter=0;" edge="1" parent="Phphtxd2D6d0RNNB2ZdB-20" source="nOtUrchcvmmtRtQINzbd-5" target="3PP495jiauaJpkdDZrHe-56">
          <mxGeometry relative="1" as="geometry" />
        </mxCell>
        <mxCell id="nOtUrchcvmmtRtQINzbd-14" style="edgeStyle=orthogonalEdgeStyle;rounded=0;orthogonalLoop=1;jettySize=auto;html=1;entryX=-0.007;entryY=0.073;entryDx=0;entryDy=0;entryPerimeter=0;" edge="1" parent="Phphtxd2D6d0RNNB2ZdB-20" source="nOtUrchcvmmtRtQINzbd-5" target="9Jy4nu5iVQ67U5WA-zAP-1">
          <mxGeometry relative="1" as="geometry" />
        </mxCell>
        <mxCell id="Q8bI6oUkw9Ppd8dmuiiR-148" style="edgeStyle=orthogonalEdgeStyle;rounded=0;orthogonalLoop=1;jettySize=auto;html=1;" edge="1" parent="1" source="Q8bI6oUkw9Ppd8dmuiiR-109">
          <mxGeometry relative="1" as="geometry">
            <mxPoint x="-430" y="515" as="targetPoint" />
          </mxGeometry>
        </mxCell>
        <mxCell id="Q8bI6oUkw9Ppd8dmuiiR-109" value="Client" style="swimlane;whiteSpace=wrap;html=1;fillColor=#FFFFFF;startSize=20;" vertex="1" parent="1">
          <mxGeometry x="-731.11" y="390" width="230" height="250" as="geometry" />
        </mxCell>
        <mxCell id="Q8bI6oUkw9Ppd8dmuiiR-140" value="" style="shape=image;html=1;verticalAlign=top;verticalLabelPosition=bottom;labelBackgroundColor=#ffffff;imageAspect=0;aspect=fixed;image=https://cdn2.iconfinder.com/data/icons/social-media-and-payment/64/-36-128.png" vertex="1" parent="Q8bI6oUkw9Ppd8dmuiiR-109">
          <mxGeometry x="51" y="67" width="128" height="128" as="geometry" />
        </mxCell>
        <mxCell id="Q8bI6oUkw9Ppd8dmuiiR-147" style="edgeStyle=orthogonalEdgeStyle;rounded=0;orthogonalLoop=1;jettySize=auto;html=1;" edge="1" parent="1" source="Q8bI6oUkw9Ppd8dmuiiR-141" target="Q8bI6oUkw9Ppd8dmuiiR-109">
          <mxGeometry relative="1" as="geometry" />
        </mxCell>
        <mxCell id="Q8bI6oUkw9Ppd8dmuiiR-141" value="User" style="html=1;whiteSpace=wrap;strokeColor=none;fillColor=#0079D6;labelPosition=center;verticalLabelPosition=middle;verticalAlign=top;align=center;fontSize=12;outlineConnect=0;spacingTop=-6;fontColor=#FFFFFF;sketch=0;shape=mxgraph.sitemap.user;" vertex="1" parent="1">
          <mxGeometry x="-712.36" y="210" width="192.5" height="120" as="geometry" />
        </mxCell>
        <mxCell id="nOtUrchcvmmtRtQINzbd-17" style="edgeStyle=orthogonalEdgeStyle;rounded=0;orthogonalLoop=1;jettySize=auto;html=1;" edge="1" parent="1" source="9Jy4nu5iVQ67U5WA-zAP-71">
          <mxGeometry relative="1" as="geometry">
            <mxPoint x="50" y="40" as="targetPoint" />
            <Array as="points">
              <mxPoint x="10" y="115" />
              <mxPoint x="10" y="40" />
              <mxPoint x="50" y="40" />
            </Array>
          </mxGeometry>
        </mxCell>
        <mxCell id="nOtUrchcvmmtRtQINzbd-19" style="edgeStyle=orthogonalEdgeStyle;rounded=0;orthogonalLoop=1;jettySize=auto;html=1;" edge="1" parent="1" source="9Jy4nu5iVQ67U5WA-zAP-71">
          <mxGeometry relative="1" as="geometry">
            <Array as="points">
              <mxPoint x="10" y="115" />
              <mxPoint x="10" y="450" />
              <mxPoint x="50" y="450" />
            </Array>
            <mxPoint x="50" y="450" as="targetPoint" />
          </mxGeometry>
        </mxCell>
        <mxCell id="nOtUrchcvmmtRtQINzbd-21" style="edgeStyle=orthogonalEdgeStyle;rounded=0;orthogonalLoop=1;jettySize=auto;html=1;" edge="1" parent="1" source="Phphtxd2D6d0RNNB2ZdB-6">
          <mxGeometry relative="1" as="geometry">
            <Array as="points">
              <mxPoint x="361" y="100" />
            </Array>
            <mxPoint x="361" y="100" as="targetPoint" />
          </mxGeometry>
        </mxCell>
        <mxCell id="nOtUrchcvmmtRtQINzbd-25" style="edgeStyle=orthogonalEdgeStyle;rounded=0;orthogonalLoop=1;jettySize=auto;html=1;entryX=0.703;entryY=1.036;entryDx=0;entryDy=0;entryPerimeter=0;" edge="1" parent="1" source="9Jy4nu5iVQ67U5WA-zAP-78" target="Phphtxd2D6d0RNNB2ZdB-28">
          <mxGeometry relative="1" as="geometry">
            <Array as="points">
              <mxPoint x="400" y="289" />
            </Array>
            <mxPoint x="400" y="130" as="targetPoint" />
          </mxGeometry>
        </mxCell>
        <mxCell id="nOtUrchcvmmtRtQINzbd-29" style="edgeStyle=orthogonalEdgeStyle;rounded=0;orthogonalLoop=1;jettySize=auto;html=1;" edge="1" parent="1">
          <mxGeometry relative="1" as="geometry">
            <mxPoint x="190" y="573.8285714285714" as="sourcePoint" />
            <mxPoint x="400" y="130" as="targetPoint" />
          </mxGeometry>
        </mxCell>
        <mxCell id="nOtUrchcvmmtRtQINzbd-31" style="edgeStyle=orthogonalEdgeStyle;rounded=0;orthogonalLoop=1;jettySize=auto;html=1;exitX=1;exitY=0.25;exitDx=0;exitDy=0;" edge="1" parent="1" source="Phphtxd2D6d0RNNB2ZdB-21">
          <mxGeometry relative="1" as="geometry">
            <mxPoint x="-170" y="50" as="targetPoint" />
            <Array as="points">
              <mxPoint x="-260" y="50" />
            </Array>
          </mxGeometry>
        </mxCell>
        <mxCell id="UBcfyfctAIULLASqHLvR-5" value="" style="shape=image;verticalLabelPosition=bottom;labelBackgroundColor=default;verticalAlign=top;aspect=fixed;imageAspect=0;image=data:image/webp,UklGRhY6AABXRUJQVlA4WAoAAAAYAAAA8wEAwQIAQUxQSCAYAAANHAVtGznJ82d96xeAiJgAAGWnHUG6KqDJyikt6u/4Id+jb2zt9ENt2zK3tm3d7/v9ZujMzMxktkW955PnjJiimTIz85zhjJhnNqdVpZIsMjMzM7Ol+t5noj3HP2TVX5MUERPgSds2t41u23reIPWbUR4NGq0YLRo9GE0ZNe9HzVa9HyMRCJBgEkolRRJvISUSiPiGUWlExAR427ZtS7Jt26YFdetFLQxY6Ycc//74Q7ECSYm9acwfOv7APBxfImICuB+n/K1/Ec4EeU0/8Ysp85+n/B1/mhMTZLP4kV8tmvznRfM7/yQnJsjxaT/8e0WTKf9P+X/K/6GGymOusoXKYx7Vmlt5hEfJ3MoDHhWabOOh6SqLz3oelUm2/sh0lcXmPY+qs/DfHI1cFq5BLlP4r6zPURYuQa4c7Ipc5QIPp7wS5fZwyitROUoV4VEyUImMkguVqHq0/lG2rmbeLNrD4T/9j4rSXIZcLqGJS6jCAZNRXlFq5yc7LJUlP/Cbf5pyRc7PL3YvS3745/425apBqEQlN954GiuLOH/MVJHx1pNYWcSFE6aqYUIPUVrzoOQhypuCSt2tPMJUMrfyCI9Kbcr/U/7//22rTFY612QVm5Wp/KqpgvUoShRxTyqTlc41WfWSaZboHoN/+mmiLH592R/LSnTlW99griVd6f798GrF+OrlmVaWmNVYbboLcXE/KouRXi+VGf6AawF7XVatJL7+NVIton+lx12AGeWdE5WbUd5wqterqbdocq9lsmqjTLIKZqOK8LgHRYm4bipTlIicqpeGTc8vGbOy+HRENZleXDRmZdGta1h15rHkh5KXha9QV8od3+upLMwFr85AFpQ4UbdMKg1mVOteptoNs/JM+X/K/1MLlMXE4WqbGD5x4HEPsuaEYUn3Ep41UViKlito/HJoonB/kbi7RDFhCI97SCSbKMCj1TL5N4TBOOhuxIH1tzVR+My3iLuZ+e2vP85R2Jx3UIsFSgQa4m6D1b9DTBRc515++k3C4ArklstzJPdszgQa4u6VCDRElayYSO7ZcyRT/p/y/5T//+///4O2sNxiuf9Y7r/lEmZz6vsGu/GPl+fFbmnXN7gN9l2L39/lZLicU/it+z85seubUFjNm/PjiT1uny7n66PCatbjeb4ccPvRl3OpsJpV4HjA7Rlens1mZcjJbNBD19otv8GJAmMVVvOGAaaHtcJoaN7BtN7h9dMRps1WYbXHC0zrHU63hgfid3oyW4FQTgqjwUAKdS1OtwoJ+kZhNCgQygmniw5gqMNpkLEY6kLhM9GDGKsQTssYxt0NPnc6PYEY7++cpnGL4etcKWwG4xbge3aadQAUGmqcvmdzoVjGSmG0HiA01Di9+wRy8pvIKeyG2/In8lpi/wm8liuFyZyenjGI888Bn0+XT2C+lgqTWdOFF+ffR5vBezSDit+3EpdbmRdDQ20zyMj87VqbWW9xcENORut5tWttlij4pdenwmTeMPCimO5vFBaD8wF/AtN6h8tP00vibb1VWMw6bHlRnNjj8pJeIpSTwmJWQfMrfYPHrR3yKzkpLAY9ab4Bl/fc2DcmE/mWoS585pfEWIXCZa+K4bAWBneixzfsb/D4kVvfV1uLWeMDfu1rrhUGg3HLjdfJY9aI5pdULGNlMdiRXqFYhhqPd9zcNybLt+UUHutukeUgJxwuyi2ib8Jg3szv8WvwdnOnsBdMF24U87U0mDVd8GtwvpQ4/PF8i/j8LhUG26EbWP0eD/jb6m6DnAwG+Q3O6rmzaw0GHfJbmyjc2Tf+8oYB33Y8rBTmQr5DvG3u8fdp4mZx3OwM9vSEb4FpvVOYy9p9zs2K789H3G0N3BnKSWEuKGi+CXLC3VYh3RbKSWEuKMh34e/M3UNtL5HxbWKoC4W/7v6Dv3ybGB82eNvp+p47xbi9NReMW3wbnK+PCmtZ45a7v0813rZG7lX8vtYKa8FIut5GsYyVvQryHaGhxt3vWDAne3XLhLvyfaJv7NXdBzmZK7G/T/RNKIzldHrC98C8PODt6XKfOF8fFcayHs8sOF8OePs9+B7Fz7lUGMvq0V0Uy+sT3l4EutZaVrdMTtaCvEzXmqtnUXMlCl5irMJYTgwsKKb9RmErdB3xfTBttjj747SEmNY7hbGmmQX/B762ynYJYjk+WWsAL6GuVRirkOZFcsLZC0HfKKy1aKhr8bXoloGhDmdlvIQYq0LhKuhZVAxVIVwtMl4Cxt0Nrnb6cGFRcby985XGLV4CPj8qhalgfGDhn5OvrAOal1BoqPH1nrQIxTJWClt1LBwaanydl4KcwlfdUiIn7AY5ha/6pUTXuspbRrwMTPu1wlLweGZhMV9LXD1d8DL8UVjKmi4s7isY0byMimUq8bSVkZchNNSmgsyKL8+msjLyYl1rKlglJ1OJwopd6yknCl7ueCgsxSpiurtVOIrnI4uLab3D0x8f8VIwbbYKQ1n7z1lcnJc9nh60HKGcFIayCppX6BscbQ2kNXJSGAoK8ip4umNVU4l+DTHUhacyXg7GKhRmE2O5FnZ2orCiGHa3OHrcrgHvxc5Q1viA1/g+1Qo7wbhhRXF9qwxljaTrchTL6CgYkFcZahzdsXLfOC6ncFReR67q1oG+wc9it47o2rCTN5cjXgPeN/cKM8F0YVVxvpR2sh4veA2YryV+Ps7rKD6/SoWZrIJWoViOB/yc14Kc7GS9xUG/3suzoTKr52Qn0b+9ecOA15rKlcJKaN6vJd7WW9x8OrKymDZ++vCM14HjZqewklUeWFnxcy7xsjWweignhZWgkK4rQU542SqkeaVQTgorQWH1P3hZ5PVgqM0EGa8l+qZQOElkKhyrQrjJa4lx/w8nOz0/sboYdrdWgnGL14LP71JhJGvcUuHXucLJ1sj6imWsFUaCkc1lLYplrMyUqTA01Hi5qwG61nF9E17KNYic/IabEvsaxFCHwkZOT894PZh/H3HydK5BnC+lwkbW45kq52uJkw9oXk/Fz1wqbGRlqgy9PuHkHrkC6FojWd0bHOQ3uUKlVkoUXMfrU9jIGwaqFMeHjcJEcD7gGuBttcPHp2MdYtpsFSayDluqFNNqj4/Lpg5CY2Uja0BzJTkpnOS3NiikuQroG3zcU2moa20kulpgqMNHGdchxqpQuKinUjE+FcLCTvS4Dhj2N7j4SK3ieHNvIuuwwXXA17lSWAj2n1Htz8lF1gHNdahYhhoX70iVEBorhYk6qg31DS7O9UBO4aKuHpETdoOcwkOi1CMbeTO/x7XAtNsoDASPZ6oV8+WAg63pgmuB+VoqDAR1na+PJtqharT6nUocbOWKgL6xEFTWtRayMlWbCDJyRTlZSBSq7loHeUPBNR0PhYEQQ01iurtV+IfTkYrFtN7h4KcnXA9/FPaxhs+pWHz87vGvNVB1KCeFfaCguaq+wb/WQKqraxX2gYJcVU44uKPyvjGQ6HFNYqgLB2UqH6tC4SDXJMbHNe51uh6oWgz7G/vAuMU1wYm9wjzW+EDlX3ONe61RdYnfqVKYB0bStSaKZagNNCBXNlb49x3V942Buvq6NvyTaxM5GairDfoG9yZ2tYmcwjxOz0+4LnhfbxXWgelcmzhfSvNY05Xq52uJe4/guhRfn6XCOlaPKqNYjgfcm+uDrjWP1URO5oEmutY+PQ3aJ1FwfX3jHScGqhdTuVIYB133uDZ4W2/x7ulYn5hWe/McTYPHf1uFcaxhW5/iMpc41yrg2gh1rcI6A2muDnLCu6WFUE4K6/Q0GOobnCtyCzDU4R7XJ/omFL6BngbFWBXCt6LD9cG4/4dvnZ4uNCjG7a1zNG5xffDxfVDYBsYtTX6fanxrjWiuT7G8VgrbwEhqgGIZvdPRZGiocW5uA7rWOu9a6ZtwTm5D5PT/Vd4ytgFDHQrTwOMFtzFfS3w7ndsQ50upMI01XWh0vpb49oDmFlRcTqXCNFZGboHQ6xO+zTT78mwbq0NuJCfbQG6na20jCs36xomCW3l9CtOQGGhUTLt/Cs/wfMRtwLTe4dqPUyti2mwVlrHGz2hUvK12uLaoFUJ9o7CMVdDcEJ61dqR2clJYBnrkhnBtpmHbiL6loQ7XZNyKGKtC4ZmOZsV4WAnDOjHgVmDY3+DZcUuz4nhzbxnrsMGtwNe5UhgGxi0NX949Y42kaysqlqHGswNyK/xRWKaj6aHGs43lFJ7JLYmc8Oy7liCncIzYtSTTeHOZcDswbf8p7ALThYbFfDngV+vxjNuB+Voq7ALTta2Py6NhrIIa0ur3eMCxuSmgbwxjNde1hoG3usZzMowob2/eMOC2jofCLmjetSWm2zuFWzhNNC2m9Q6/fjjhlvijMIs1PNC0+Lzucas10HgoJ4VZoJCuzeFWq5Dm5hRmgULjf3CryK1B39gFMm5LDHXhFpFpfqwKhVs63JYYH9d41en8gcZF/3BjFtg/4LZgXh4UVrHGLc1/n2q8ah1oXXE91gqrwJ7NpS2ksbJLT/NpGWrc2rUHfeO5cEtuz3StXbr2oG/Mkti3Z3LyitPHE24NTsVWYRSYLu2Z+VpaxZouBHi+lHj1PZpbc3x9lgqjWJkAi+V4wKs9cnPQtVaxuhhysgrkGF6ezdITYk5WSRQcwVA7xRsGAhTHcq2wCVxG3B5Mmy1O/fgYgZjWO6NY7xMhTuudwiZQNhEorqcSn1oFze0R6lqFUXbIIeSEU3vSHADkpLBKiKGc8KnIMcBQh1ccgRjqQuGUEMVYhTCpEz2OAMb9P3w6mRDFeH9nE2t8wBHA59dBYRIYtwT5faptYo1ojkCxvFb4dEcKgWIZaoVNOoIMDTU+zVFATn4TfRM+eRcFdK1NRIlC5OQSb3zAMcDroVBYBKYrYc7XEo9a0xnHoD8Ki8B0IUyn7NEcg4rre4lHrQ45BkKvTyaBHAe8PJvE6gm0a00CHXIYOZlEDATatR7xhoLjeH0Ki6BIxLS9UTiE00Sg03qHR5+ecBRi2mwVBrF2nxOmeI89DrUGAg0NtcIgUNAcSE441BpIsSgMAgU5kL7Box2h5mQR0eNIhjo8kglUjFWhcEiHIxmeVsKeTvOBQMWwv8Gh4zYSmDZbg1jjFkfyPVcKh4hQL2+1QWAkXeNQsYwVDi3IcVAsQ60wSEewQ41Dw+nacEiOReSEQ7tYoG/CH4ldLCInfzg9f8CRwNvdjcIcMF0IVczXEndajxccCcyXg8IccCSaj8ujPayMQtHq93jAn30wQN/Yw8rxdK094K0u3JzskRji6Vp3OFFwNFNZmANdx2jEdHOv8AanY0DrHe6cZsKdNluFNayyjUbx+fOAN62BgLtWYY5CugYT6hvcWUhzODkp7BFuqGvxpsjxwFAbxNGIoS68AZmAx6pQOENkHI0YHjc40+npTLhi3N14Q+MWRwPz8qAwBoxbAv4+1TjTOoCjUVyPtcIYsGdzjYbQWJmjI+BiGWq8mSOCvjFHF1NOYTf5o48Ic3jLPiLRN6GwBXw443jgxB5nTpeIxPn6qLCFNV0Ieb6WOHNEczyK749SYQsrI8dDsbw+4cyeoLvWGFaHHFJOxoAcVddaoxC0M7yh4JjGKmxBohCyOD6uFa7gecIRwdt6iy9Px5jEtN7Zwtp/TtDHzU5hChgUk+L37YArrYLmiAjlpLDFQIoLXxbkkCAnhS0yQYdywpWKC4Y6nOGYxPlHXda+CFpceMREW9KJgmOCC3Nn0K48bAhaXJg9q01hjQ84Jrh162FZWwLGLWHfuf5Im8IaSdeYZDr/KO3KATkmPC480nRvP9jzNhO26dxjiZCZtRHCbFLiXVyZ3z/S88njBllu1gZQyAtx/cvPv/1V5qjEob9rHHype/m7s0BNc6v0QhRuXP7F9340AjgqcI8z62rDtxZ0L342QQa3Sk6BFUZz90BtN0BKVxN3BOaM7V9V3/RkR9cHD4Gy3KxSk8IKR6dG68MASczXmeAV4K6rGxr1i+/2LH6jMCK7WUUWUuHGzS2NvpMAibiaf5MRmBNHR3o3pBUdCx81lDGvuhRYYaaDQ70bHXAPNbm/KsCNG7v6Gnte7+p4a45QNscqKiksJbiwoTZwDbBE5OC+HMLM4/zqvv788VcLXkgQ2c0qJ4UKN8Z3DNT3AyQUmfu5FJgzvm945faHujs+mecoY14dSaJw49RIfXgaYCnUZDKoADdd2VJrnP6oc/mr0yHC3KofESocu76l3n8csEREZhIZwtzy8aG+0VmLej57wiDLzSocKZK7xb6Rf94O4B45mHwqhCXd2r6q99CLPcvfnQXKuFUyIZI7F9c0+scAS4ocTFqVIaGz62qrbi7oWfRcAVluVqWITErY7Z2Nxh6AhHJm0pvB3MYOrqpteXRF14cPGTTNvBqRwlOCY6tXrnfAPdRksqwQ7nF1c1/fuXe7l706A0K4VRwhkhs3NjbqFwBLlnMwyY7AnDg2UhuZuaT7iycMstysolDIC6O5f7C2CcBNOcSkXAHm3Nk+UNv/YteK92aDmuZWOYQo3Di3rjZ0G7CkyGJSr8Dc4ty6+tC1Bd2Lnysgg1tloMCTMbZtoHYYwC3UpBVUCHPGDg3UNz62ovvDh0FZbtbySWGFE8eG6msccFOEaCEV4K5rmxq1c2/3LH1jmhHZzVo3SSrcuLqxb+A8QKHIogWNwMzi+GjvWl/WufBxh4x5K6bAk1neO9i73QD30DitqyTMubm70bfr1Y7Od+YKZXOshZLCCocza2tDY4A7kYOWV4GZx8XVjcadT75c8FKCyG7WEilUuHF7W3/tGEBCTdEqS4G5je8f6t02v3vFZ/MdZcxbG0kUbjo6VFuXAPdQk1ZbIdy4srXWf+zDzhWvzYAIc2tNpLDCsMsba6vOA5aIHLToIcwtnxrqG56xoOfzpwyy3KzFUCglp7l7aOUegGSRg9ZeISzpzvbB3gPPdS9/fzYo49YyhCjcODvSWOWAJUVTVILKkNC59fWBa1/0LH6+gAhzm+yJTErYje19jUOAJZQzlWIGc2seXFXb9PCKzo8fcsiYT96kSJ7QwZGVWwxwj8hUkQrhHte29DVOvd29/PXpEMJtEhYiuXF1baPvBmCJyEGFGYE5cWK0NpyWdi14yiDLzSZRCnlh3NnbX98OkFAOqk8FmHNnV39973NdHe/NATXNbTIkhRVunFzTuzYDlkJNqlMFZh7n19dXXfuse8kLBWRwm9QoSG7c2tRfPw2QCDWpWqXAnPFDg/X1jyzv+vgRUJabTUqk8OTkQ4P1dQBuikxVq8DcdX1Tf/30Gz1L35puqGlukwtJFGZcXF8bugpYUmRR7UqBmcWJNb1rtLRz0eMOGfPJggJPxviugd59AMkiZ6phSZhza0+jb8dLnZ3vzhPK5th9TgpPjk6M1EcccCOaolJWYOZxaW2j7+ZHXy18qYDIbnbfUqhw48amRuM0QKHIooqWAnNrHhheuWVeZ8dnDzrKmN9/FFhyiwODtU0OuIfGqbIVwo2r2+qNo+91rnh9pogwt/uHFJYSnF9XG7wBWCJyUIGHMLd8erhvaNoXX37+tEGWm90HFCrcGds+0HsIIFnkoDpXCEsa2zHYu/eZnhXvzzGUMZ/QQpbcODHUN1IAlkJNUbkrQ0IXNtT6r37WtfSFaRBhbhORyKQEVzfX+08DlojIVPYZzK15aLC+4cFlXZ887JAxn1ikSJ6IPcMrdwAki8hU/QrhHte3Nuon3upe/uZ0COE2QYRIblxY3dcfgCVFU7QJIzBHJ0drQ7aka+HTBllu9nWmUErGrR399X2AJZQz7UUFmDO2a6C+65mujg/mgprm9vUihSc3joz2bnDAPSLTnlRg5nFxQ33g8qc9S14sIINb6UIkN65taNQvA5aIHLQzpcCc5uHB2roHl3d/8igoy83KIkIpGeP7BupbAdyUg3aoAnPXjS39tROv9yx9ZzqoaW5fOyk8OZxd0zs6BlgKZdE+lQIzz6fW9K5uLu1c9GSCjPnXIkRy587Wgd6jAMkiZ9qvUmDO7b2NxrbnO7remy+UzbH/AoW8MOLIUH2NAW5SU7RtFZh5XF7X6Lv+wVcLXykgspvdVUjTHK5s6Bu4CFihyKLdKwXm1jw4snLz7M6Ozx9ylDH/dwqsMMt7Bmo7AdyzmrSLFcKNa9vrjUPvdnS8OVNEuEgJTq+uDQlwI0fQZg5hbvnscGPQvvjyi2cM49bmgdoJgEJqiva0QljS2K7B3t1P9XzDtn/Y6IB7aJwWG1ZQOCAOIQAA0NAAnQEq9AHCAj5tNpVIJCYiISYVSODADYllbvww1+C6fOfndz3xL/l/xz8V7WHmP8j+1n+D/absOt5vCP8r/YDoWTMesvzV/g+4D56f7v1Gf3P+9f8n+0/v/9AH+C/tH+d/uH5C/G3+s3uY/tP/N/ID4AfyP+pf+r/B+6R/if+j/pv3/+Rn92/yn7MfAB/aP6l/6Pa//5vsZf0v/g///3Cf4b/Wf+F+d3xtfut8G/9h/4/7h/BB/Qv8f//f3O+AD/0+oB/3fUA9XfsZ/te1L/ieY9lj3+/+etzsn4BfhXeJ5nPKM+q/rf4+Oopis8/vBI+m/872AP5r/XvSH0Dah/199wD94PYv/WQegPy+AUxB+XwCmIPy+AUxB+XwCmIPy+AUxB+XwCmIPy+AUxB+XwCmIPy+AUxB+XwCmIPy+AUxB+XwCmIPy+AUxB+XwCmIPy+AUxB+XwCmIPy+AUxB+XwCmIPy+AUxB+XwCmIPy+AUxB+XwCmIPy+AUxB+XwCmIPy+AUxB+V/nhoHPHJLLJjNp/Q6HQ6HQ6HQ6HQ6HQ6HQ6HQ6HQ6HQ6HQ6HQ6HmcFVSorBZjBVUqKwWYwVVKisFmMFVVRyH/eYw/LoyTGH5dGSYw/Lm64K0FhU2ALOQqMkxh+Wo0cmrw6tZFY0mtyc3XRb/pd3h5myYh9CG93xZBAjTD8ueMMah0OyTFoNKnl81IlfINLRtKpiD8vgFMMUFywPy6MkZV43tpGZZTMaqMkxh+XRZ2V+VGSYw+E8Z01fxOgXx5yG+eIcXrColoeoVarVarVarVardJfEChsQjMcksRKL5DBOCbBPAHXwcjh6Erp/LYoNBXcUzBTEH3u5w5JoUFDkJzrFoz2gnP1tenAOQ1IR5yTGHxaSNMPy0S/+gxcZGbUjQZaQAHWQ0DECFWPTZfAJ7wy+AUwr0xfdXAun6O0fny5o0AcGuMtBym9hQEGjndzxfEChsQjMckssmM2kdpbhoGYsls+cvLdnawRi6GWQyJunHUbk4xB+Dch4OBMqhYNsXywylca2jYCSO0scAQLI2/8qdzpzKjJMYflrJ2ti6JPv3vE962M713BRSkRSB8OarLGp2SYw/LnjDGoHYEJXWqiRsRNRhJwz+69cdM8wrFTkETXDPZTbUXUKtVqtVqtVqtVqtVqavtUMEsLP4SpMwUUsbm7vx7RYvRCMAFnyu/QVFYLJmoZPu0UV6rGqOhRLMuRwLzKlWQjOtPKf8u+zZPgs5R0Ox8SllRkiKAHTM6ChxTJd6dthtWIBh3FHv8WSFZv+Hl6zLE5tKooBSvy3ChtokINXTu+LYxzg5BIZrDcuGY9zxfEChsQhLAmnWO1XA1dfHhXCt3kyKUkwDJxYzLQvqZL7LdxY0m3MgYoHMlCRmRV4QDjJpf8An6vbX2sI1v/OSK61FbZ/uSv+gstKEq8MDCq18V66wTxIlot78B10fCcW1zM/pJKrAdouHypus3dDShAOi1xhfM18aYY9hYMt4xR6tFRK6TmlC53gyQJYM5ZQGZdlobntSPdr9aRj0MTU9T8ncpYBPwgdszLrMDWtzPpdU2lu+bgVoKWPdauIQbJ4bdtQOe42oeQ2NNaRL93mnSKrjVumG7OHFOP4aH+RSqehaT1KJ9moF/H6+R0Er4TZEQ1HxKf70CNtLgviSRT/JwWt17lzef8LamKPeHRv68TR+e1LMK9K9x5qHQ2KeH5c5arAvvwuMrTyVslnYiysSbr3cxYwJKtX7Ka2E5gqltgB9sDA4E+ATUTf/Muqvpb9+guWwQpD2p0b4wgMP4O7eZGVbeQ8DD+pQSxyOkjzUxcMyykOzD985tSL/H+PoVBo+tkFcKaoLJD/WIKSOOqTGFUvB0DD8ujJUbvrTif88iiif1NHyLaldQPY6gWVZOABl5y/MNy9TZYMkxh+XO2l1TeYw+DXuvbgZZNmECdjgv/U48xh+XRj40ZL/98+l+1Dzu+yyv9yCJ9CbAm2gz6QDkiZpMYflrJ06dtdX108Xt+c//yFMQeOBBJOb8p/HakszNSmo/f5b3MN3oj2HyUUAneu/YyV4vjBrJKgKRr6VFnHNMtbr9iAsjJMYYSkJhFsfn+Zn8W2oZlgsAZUD8vVFKxaVq/9oL97hfzl8ApiD8vfT8/uZAALQYPgdVczo6UNEJvSQgBya3BAv9Gb1IWBCHjzoxh+XRkmMPy6MkZyUZZOBEH4VLBe5X8YuTnxbD8ujJMYUAA/v3uqAAAAAAAAAAAAAAAAAAATwzLqXfgeLGYpjXfv+x9d+nABmXVw4S3+WYFgeAAFMJfpPWoijaHqXJvBxykwXtMddOttsJEBD1/HnIfQ2+2nujHCrAVofcegDdgHW1uhg3vnWmNqU0YDIFB+42cjlsuQ1KJ1hhijZNwL4E+Z5ss/k/NszhdZDHvZdB6L+wsDwn9MX2+WPqGnvguGae9rg6/D3TWNcNuTwvnuCuP+FYY4BmA/H+vbEqyTOs97HkurtuoRW26hFbbqEVtuoRW26hFZnvGjg0zcByoIdHUSW2iMAsPMEXygTChnC3Gd9bVhoJ6QArVZrNLNEYcTWqr/nuABbLad0IjS7xlTty2UC7rh7llI8Lk/Nd9H4QCg4uvSgl4KVuwi2fZL7s1bWoO3Dxdl3agKoOw6FnA+wYAsmWpB+gQEtxcNWMgdYRfhpiKZKbClcNcgMzz7Xxm25j0QmSkTLgOIWhgbQkQF8f5PvgPsM74AdXTbfokKUDuw/CGM2+qFmiOt+M1B+oOWSvVb8Ydxa7OVXh7tYej2XgWME8hPM9tC4evc+BeI+gvzTnycGek4S0MlqfNT+AGV96kvS2NQ1qIXsJ7A3SNKU87kTgplbLcYLOVFztDTGa5rdo3QMdbEvQYwXClNupoP+Zq2Krw1PWAJQdlQP0yOC5WMSNEzsAcmfUJO204smmAAbSi/Y3G4kHnBnLWeSpGpZUwyWRuayYR2O/XFVLgZOcTgfRMGaQtkGTg3OJ2SoGZjzoL20kaCrKykAnORMpr5Zllksk+TXh8PSqacJL3fTzHd1ap+agE6JjRk1Fkn+WR6ZwY5V9yxo4B5qE40310FFOCMVZMp0gyp1OZcT5bPr5lLmk//23KrYqauwJN+L72ReB6AW3BDSJrBsR9qMuMcwrH3Dzyof8pgRnhrUrrzvkUmNlyZeYB/iLgZ943hIkol+4n3S/wjPx8a4Ay2WhsTmUg/LFch1GV99WvXIJyh/4rwUqZK1uupRwDFBJJ0Lc7wRpNSE6diYByWYIF4Ero2+Zp3bJUKg1C0KSWwEIwaqL0zGTMud5LAQ/e/mFj4+PRwCslJGdhch6Lypwxk/M2IFXLUg9PgW59lXbfcVLO/KADimwkgTjDy/3qlF28T4mC/ZC0gAGp/afRF9mWA4BSoSsrMaFjSh4TGSCCCGOaqehVC9Caoo2TTTCWObLYDiLm3wjZX8BLAAemBZkTSTb3MaOGpTzNON8bVh9zXvGs1NFacUJjuR400YzpADQURbt1zyadUgAten6pBXyh4lg20hthY77vsdV8cK2Lnt6Ud2G+ZrJ8dgOn4NIB6h3ZyCxwyG3YeMo3ufokXt+UO4QB5C4dLIGqCxjKRESOExyYZRAvyqsT7ETQOjF57s2WX2o8I4X62Vp/ep00HvZkKQ3v/U/v9/68NO155m7IxlRpQkXCjfhYtNP79tK0Z9XbQRWbsyg2eK3fg4ImeHK/C7ZF4LLoJisOfiuESF7gKU+3MhLxAWGM3J0BW3LH8K23aL6YAAAabE3sCKKIip1Itf+NKyvD+JhmoCNCrn33tgVyHJOMohx9kh+guKTMcDitnKACiUNbrjeAfe/JhEjf3dwwkGLO0vU2+Qi8jZF6vgNXwGr5ZFFQXeY2oVM9WFl+qnBYb53uDYdrwC2UYdXeYAM2ntVAaf51jGyXqo++nNvEoKaVhiGwNFD6G03WMzc83VGz1ry66r/fGffUF+yWoOUIBjzZXLL/mJ6tjCfjwUSaGatD0c8XwCjIWOFjcm3tzZCuOd9suNAWn1YqYTSSnI2Lw4DYqt25XaRK7Y0x/88r9/M8s0dVJl72ddR1/7e00t+WDt7QtZt+mX3iW5mnmyDGduh8B/KE6em6nKNEufyrzpE33AIgmj1zNDtMVjMxpAUzCFy/qf4yl2YcmBkcv3QpUHObxulsQrg0znRU4r6z7+vvrZZo/hZQn/1bC1anAAu6gCeHbiWYD4Z0i2axoqgWAV/2sPmWree5eoHPZecz6qp4hXKBK1cQGY63+YMAgKkrFio5Q9w9+UHv+s6pnvIYO20eZhyTKhhkMGEpInoPSJupcGZKJH9QQdmnadv8pISsniELMvk9gSM+bKCocug9NuUwTgGnw0QM2uzIIwl1GhRCoKTyDMOLEGRQ+wgfnha1YHwPzas+qKa4currt28JpdNLniDd6ALfVsj7lvRJbP7VeYPA29aXxvh63GfN/bLy4la4IIMsBq5J5d6BhnZaPVu7DpBEDxjuwEgrq3/oeXtat55LxUhAHWiImZSYSnVGKyoboPURbT1SHosMkeuFgw074yRNiWSKB9LOLZmWNu9TVD7RF02hFkFqb4T6GgqPtHyXvDi3VhIoT0RACslff95PQBa91cAgO9Wnd/uEW9HSCJPZntxga9OckFaqFCK0p2SPTC8Xv0SivtFy2FBTQlcnSSZzITs123MXrBWxVu5/WF9izVrOmCPVtZf/c4quq7EAu1Vz9ooPiIok/4I4e3eW8jvwdoEnOZqO4se6seWbOEwvK+uMMrY8kU6/CvxpBST6/kca8h1Du0xAwBONzwAq2+AGGe0DPezPcNV694+8rit+FTpMs0XQmHR4Brf/dJD8aVUp6mLPMk9My6R0YV1kvTlUYuUxMOqbqW5opLB9yRlDpqR7tqjkl866ka2MQBeejmdkAS4Dnb1MIBdw9wADZyvUQ6QAgfBbaCphhosqN1WBvPPWOCViMvXmm7zMfTffNnFpoJii8tJZqCDoAINbl1R+YRSXYdTL+oqDgs8aTPtxedvX/IL4u6s1GGgbZ6zuePuyI9VBNkRHnUARqkji+/QgAd0nGsk+5E8ZS2zrMvmad8ktRM0sgq748G2rUxbDnq8jeNuvxLFYROAMd3XzovUILhqBGgnQA1GcyKf5TFc7btxteSDjIZJT1E0BAMtNmQVWkyS4IBi5AD6+UYmlLNhfNwBPxeEH11mVPyUackrpwwR9Ho/5PHHASvssh59igNjLLnBRwBHATf+iCJaM/l+aiOkzrqkSXmxuQlFOB8wYYJA0CMp+WHe82IPAt28BDouzI78MGVVnJ8yh7/8cF0RpIzpyW/LJR8Hg0MODOB3DUGyB6NM782X6aXNSSa56vihXE0nx1SAO7TRm49bYr81xkdqwdCzijXyTn+46yT1y9L7AbFK2LvMkmb5gLp9hTVcpqZnMNx4gp4G+aD13KHOQB4Y5Az+KZ9+LbK3w4904A9/Ti9lTURZu3c20tANtdSFN5ErYr3m+3KO997bYlL5PI7pzSKUJQo9ECn38NDyqfXp2HsEhJfX9dAQt96U4u5VtPQj+QsN+wspZeqWuoaNqjoiJuji/K3paZwhJO5TuO+GeYeWf2q8jb4/fdgrscU3STKwANqrYrl/DZdDk6hMFDt/B1XdG6v3IaK7fGoBc4zk3TGLpBoxrWUB9n10Pbv6iqLBFJ2Wgfw2fKKeo+qtf27axzoXhi60BPSpUgrvyGcMddABHJknR7NRyoThPV6pB8+uI6ARqO+YiKHBa7kpQDxdhIsg4Pa/3SZ7c17KguQ6gdVjHS6UWlKVmIOab9XKnbw/vCO/FY8MuWmCz9VhtyHHFme7Ooa8nOnFn94vDs52sRZVouvRGetBXDbV3c0Xg5FemGrAVq82D+Stb3JJHsHDO7cnLVI3udVn+xmcrovOZvwVv2nwHx8NZuMKRmfms97+SSAMMtXFxXbdknLEeIgxkdGa/zghGrlXJ/Zxda0+Cz3CF4Z+amKw3FoRFlj7oTAnnzBVoXhXqNggM2fC59g22SxS8Vgis+7xOjXkiraynQeahl3O/L//sgSVezkibW6ilZbQK4JRVZQIZNQ2cM0Az1c2V47XR5si//Rqv7YSnPnZkivcLOluQ0qjobxRL6L+3AI95Mj03mtyUJFrZHe7F2AqJKqR1JmaqtxcBDqNNiF2PT2aVS9vBEixzncsvGxxzG3cr2NbvHqaGQ92qczYfqB1Rc7a0m3T81wJHJd/R60s4exquDusQLc0LcLm6jv3lPza2gdqpFlQgr2SgOXFEUZauApEbNEIgE74yUyT3qprl7FDNSDyFKZ3DTGSPhIP4caIswVWF/HQTCJG1FmRe/gjHJvGsUp5g65KjyMAVKMyEqA/pqSGoBWCLUvLDeKNqp+AFuVaRTxWUcF1jkP6qR0MHvrNi6Sx0d0mU5jnosx0mm1OXTUYrZlh19YUaQgkgpzD5zXd2OulryLwJquMhl0bPz93VHPlypNVHzHK+NUHpS0rUa9iTg5fxSBqHFv3r/6ojrdCWoMxMBN10PjOYyI28vxz2gl5R5iZ8H18chpmGSiojkFEidweRKgIQ5wzvSXGtFK+Yck/1M2aI4rIAVVodc6HXUwqf10mGsqyPDiePMKM74mRabBjBNZoOywtdk1HU0g8zMfix2U6THvaX0hoiazGYquQZh3xIVuYkLSed2g+kmpg7mz/cRPup17upymoRVU3e+7tUw8TXw6WrAwNCvNP0nQQQmeKEMUvaZE7P+8PEwm+pZYBbLyxMkNUnbZjtWNdgkm5JAPThFLx8+D1v+sKHAbIU7WBCB1RDm7UjnKbY7PEhXlx1qdIygNXd8Ny0lqI9XftmWDJUJ9H+n0GZlrwdrf5F94iuTdK//pxM3N6cCAVDtHxFjcl2gnsez6o+DfwGNmjhXfOF0qLuOUxMkfwvscI+oj2vWineYQkZxmac5/FdJHpIWx7mYmwYnrbOil/h8JANek2Gqp8ZIZQgFvdfoMM2Gbbm7Nk9zvgBIhHXVoMfqEQ9XwKfh6tCy+cx8VxpYnkldEc8R3QO56jJPD73A8sOsGeAKmWYSewpmOe2WOPwFDEMJWutzBPfQ0HgrdDbcggxHSIqRBWlQ2zJiFx9Ej9l4xTsvJfx5wtKXvUQPAb+k3PjxRgc3XBLs1mqnRdfHwBq1dMwnLJ+q1FtVJbNgTnlDuTfqIMycBQGUMTrOcZ3J8jeo1S31cz+jXUfDN3MVIbtaPW3hY/4NLo+F8nBNuqu0fcqiEMwgCw9NszEEj7dSlaQNoINlvHRTuy7/rY23Wet+rW+q1pjyw/R8Elbd6QJXom8++kSm43c7O0Zrgq2xYQvCGM7jADVz3dJ9JiKK5Rfcp78stU+nVbqS6HPJYtZrWF2fx58z9b/EpHIDn9QFapb6qawyN1tnFjSSiARx3/USiHJgTcNI57aAADquwlRBwugg/LddWZRpSV7yHh1WDDv7U+nCGEIulQHWayQe6eDTg0nMFCzW8yOOeKXsh5G1lj07VICXEUOpLJV8wS3Y/2NtL3+e4EWqVLoPRHbNLZ63hbr3LQNZT20NS+EVtXNwBNYrAe3PnJtiJ+7dhM5l8V0ExzmjcTH8UydZ1WSw9Ic8HjKacPBfDaAB+LqHdzWRhjMhjcIXOsL4oiYVjtmfoJrIfzbzBAdHCnlUvvgGD0ThgoOsHnh9FxWj/hPyfO59f9uLGP89LBYgqwWhqeSIPXZbRFI7yAVXqrJQczh7RX6VZgnJSlGmPcpD/yaAVcY42S2AlXC9cGlsF+FsH9Q5Rb45R3qfJbLPjSckNNZdgxZ9kAL7ixnsXfAvInj1PHw3UWMyKSD3mXkaNmq7Cb2qrbL/9xhfwEahGVGbZhop775y0iGEcHXuALwL+hts3z+FSGFumJ/zDPJ9iR0MssNgJNTZmcXvMhNJcD3bs6mHlOOiw4Fo2irzkUSXqbY9YttLM5MYK0Q1Fx/CFyel8ixIEHDm3Ug0wjY9mOF7k/N3w0Y3bzZS+/FPkxJh11VjVy5aKSMO/XbrJoxI6/nxBYHWR0Dj/vOdbMhY+w3trjCqZIHOtFxHskUsns9MrA8Ss7yj8EC3u67lpufdzONJB7fow5C36RohzTFH6eHKqFyculp9oUEms/ZRnCvuxOJ/g4a7o3FnCY50BsGtvXzRS049xvvmXz9mhDNXxD9XfNM2W22yynW81WaFZ1+03n/y14PU7hEtxajOb6/TMwkKxUkGSQeILuhLi15abhzaREOpceAI5CysPZgz3bg9zLViyx7jUiIPJTGAtcTJzixaC1YnF62tOtIbEm1R6UNIvl7alQEciHNn0onPWxLn196vxUb1OWgXU4sJwkusm0bnMr+ckE9/CsOfmbd9UoE6LkwpGalrosWiyy8SDw6Dfj3MAnp8fBBgM/a3U0RUF+mxv9Q53Eq6TTWVML+r5CLh1V4hn5P17oUYMdqNC3y8D5G1dXMbhZZ2diuWMrcFrkwJHRbSYAVaziYOZJ8PzRMHCFYxq3P9RFWjHtY+yTUUno4WPw3QiIbmWwr7bL6w15U5q5x+PMd8KiVo/afk0YTf1+M7FhrwMCYBVWfkMR+jUKW+9opsALND+wnKxeHpOa4zA/5Mqqfr01Ec3HLNDinr8yktDXhAlG2OeD103/aF+XyvqSPmPkBuBD1XzemswXORl+3vVcPsemdKZJ6GA72HcfiG4AHChQhCbUzb9TABT7PGklIoaX8VcdCkypAkVLOlDw7hBya5FsLrn6cu3owair+s3NmsO4YbGb4vCb6qa7N8PSyQ26oL3StXzlTWnJoqVj4XbasASmzPfjhGfeg7ug1DjrUVUcCjsJwewgCu2iyjKLDyLaTALtH7m8uLl3CHbwr77CMtkIFZP1xvO9NpPylHjHVoGl/dpSbB7BfbrgCvNK3pF7pHzuWStpuivYMgjSEErdsCvm6vxPFUJpBI3AugACuhlXm2BV+CACz4COV/QB3XwZu0W4HMZWSGLa/CNh0Q2e6E28Q9jXvE7yhmlIHo7YZZWutf5Ym+Lk4b2THZOLehbqXp0uTMM30QmSanCd+l9mU2+Y7WbqoklHavLYCVsQQQZA5LJ6cJ3AIxQa32LCYG0NzktdPUd9uf4I9EDRlaFBYMRtN/6jrr6QfH+/E0SEWaCkFs0Qhw5aTa2G94cyo7xIju90kNCVP7y80zUcIiISTGhYy1q93gOGi/xut6mpB8C1txCwubGQdskq6OrmQX6zCpauVpFJ7IPB5YwgMiDsg8AzAvIJ6nhbxqy3L1FPCPNyLpOgUyDpVMlkoeT007HMsPWj2su5QoJOMssOHPhB5fUgiWhv7GMFoibpTHXUH1tl9iD7nN7zHvFuR1oyvvn+j0nb9o3IA0uC9OrpyZuq3wYIgJQURHGCIrBK5QsCISUCrEJK1R2NsWblP4GgF9VFea4fPUcC46dST246P8AVHAQbvsgVO+atBb9Uscdct5w74CfUZ4WJQB2VrgiJlUjGhSBYAViMpzDnQRHd0YuiqYvG7UF6jSZtw+xzVyMpMgYeq7dxvpFN3HlTzqJhD/JoaOlTuCO2aKEc0Lgc7rMvcLrm2gxnZxWbIoJvCCrtZE3j5zGJZ78NaFbudxnvTbUQAHuect6iSzGc1F5DqeDdAfeMx4EsHI9NHH7644VbB/sofNq9WDbeTqwII9Aa40ygXgmCBZPq2FEQZvdaBuPiOD9sDg1JmbPujux1FdQJ1ZACk4J19U5xaNQPzAOrWqk3fPfpd2K0RTa1peXQQVYzBR+WmkJXpYbfuPoqkXd277GORYF+lFMAMOEj7JPow+Yu2pxxQrCmNtso9xTB6EjGJ+J3O5SuGIZPjdO1ARNXEZmAD5dPVhILegBoA+1pSFi387rqL2iK5RA36Mrkvy1tJdHYD60lkcjwUrCIw3iqOQ8DlAcsfp/0jd9U801Vc9kADZmjrMQvaF3rZKIG9Qtus1CRSPlfcPCjpS0Pmm5KjrxfXcNQQTrVgL08Ofs21WAuYqA6tJOBRI6FhqB+MmKBje4BZ0VZ8CPS97+7mIR8LUQQfAKsr9/phv1EhJw2RbZ6kpVd2Nl/0561NC4/zIRzP+Ob+K4BScrUUuahCrcp0hxogboS2E0AD3rzUTsGhZsRx4iHC4i32XOvw8nqb0cJg4DtikEeokTty9obqFV1d0de5sXsPEFRaiDgP3Cl0UeffbdY8MjXM3mJnFxGu6hj5+M8O8e8ueuNR0+3RTU+V1xaSb/UW6Ail37hfqdeITbcoWQyHbSfejHH0SWUAHwv20Pa1yWfBXj5I5aHGmw4XfqXu6L9bygE76tdwHzDGr7SeODWPhrsYpXsjCZO8zNB/QSXrQx75X69S55DOZ2gQ4D5K0+cLdXYV/4zA0iwoPAh6ds/tQkyvo8rNROFqKZtuRH2N5FAEnPP5rZ/9hnppjPXRMCA7mKWcKcxYTvo1ZH08tbbyFj6kkhen24niyPEqIJDmsnuGHslr1WlrIe5a+A+UqJqULAJnXelWf5jZabol9Foe2vx0opUNTfbUFhegs5qWXnZ2x4j0n+zma5szYQw1g5QvzvhAjsPMPYbEhXXaQUBpUbU6InN3gnSSdVKJeizhQfam+y2STLe3/EAAACrqdVROgvxTOEbgh9Vncy6IsZLL7ZvXujXbNMfHMuXyEJKbTdrV79wn4J2Dbk6wMeyzAzb+dP5+IDZN1Kqxcl5LCL7M9zx2oesxnjRqOFKfibC/HpPEjelFtUa1hGq9oAcBQQPPWyW8Io7HMZTTT9Wow0khxJ/UXQS1+uDSa//HJK60LaWufD1lhfTFHR8rskF3/rwpR45w7EKk62yvOREdO+6l3Pl15wz7BvdRRgdYU0cFNAzIL//folvr9WyAnj4hmj+duJdLmfVHqTUSV++GB8SqASBR8LqdNG2hevq7jT4R0GmKuSVdHQlUwc8gewBuDoOeeMPqwY3DNyLzZ6pFWi8Uup6iH7M8MuX+w6vUqLAI2zL8BsfiJCOT5H8uloY+0mCw91YSapAqjfo5CUTnlaw7Jg1W+icFnSiDK/eaKOFiCrz5cxVZamP0UPNMVTxyWf+9oB/P6pvzMF1crO11L7f0A8kpDjTNGu2CVmQJH8MrKAW998n8dvmOdcpzQuLvOHiwEKDzFOl5EIwYZO2CAAAYA8Ce0b8PEbv7OB7jIjsZvp1UgbHgHdj657g1fr2/TsjV5wo4Dw6ixP4of+bvk7upBVz+gKy9DbIJeeorsiq5jX2vog5PHIIAAABFWElGugAAAEV4aWYAAElJKgAIAAAABgASAQMAAQAAAAEAAAAaAQUAAQAAAFYAAAAbAQUAAQAAAF4AAAAoAQMAAQAAAAIAAAATAgMAAQAAAAEAAABphwQAAQAAAGYAAAAAAAAASAAAAAEAAABIAAAAAQAAAAYAAJAHAAQAAAAwMjEwAZEHAAQAAAABAgMAAKAHAAQAAAAwMTAwAaADAAEAAAD//wAAAqAEAAEAAAD0AQAAA6AEAAEAAADCAgAAAAAAAA==;" vertex="1" parent="1">
          <mxGeometry x="-637.9" y="670" width="77.9" height="110" as="geometry" />
        </mxCell>
        <mxCell id="UBcfyfctAIULLASqHLvR-6" value="" style="shape=image;verticalLabelPosition=bottom;labelBackgroundColor=default;verticalAlign=top;aspect=fixed;imageAspect=0;image=data:image/webp,UklGRtoLAABXRUJQVlA4WAoAAAAIAAAAKwEAKwEAVlA4IPoKAADQQACdASosASwBPm02mEikIyKhJlQYKIANiWVu/HyZVOZlXPz38x/bHYLetfkV/ZP1063ffXvL+NXVvnd6+/132q/PT+9eoD9LewB+nH9c+4PuI+YD9jP2O96f0m/5j1AP77/letL9Az9pPTJ/bP4Qf3D/af2gP/zrK/iD+9dsX94yNQSD41914h1rbdf4DaSDHN6FWdx6m9g79bPS49johhl420/cAHO8do5C0qjNtP3ABzvG2n7gA53jbT9wAc7xtp+4AOd420/cAHO8bafuADneNtP3ABzvG2n7gA53jbT9wAc7xtp+4AOd3wqLdSK0DcyVg98WM0cZpYjbcXTGJJkhlr8bRUAH7IDeCtarxGXHIUIVFGbafdNuUdCIeyDCWvrHNZlOYc1gEXwB8KXdCTnhVXcAHNjWJDxv28r/na/xCGx/CPpKozbT9mFUlOua0OAcfCY61E3tZEZkKIK74uADmxrEl6co+GMJyCsGccB+8xcugv/cADdJ55HRyKQ+KmZQqJ8Ri7BSDCLE2d1VZbZv451KbjxN6ubk56B4l0ZPNOG6RBrlQ8cHYc360kfLyEG47Egzu9AY1G//81Tiu/JJnP3bpAdRmJ28PLImiFBBfxtKTPTKOwC8HXJRs0+AnDr+5k23LgAXsjkJnMr6P8T//ZrErptaCyQKCJI9YzO+w0FJJkhl421iOhaPAAD+/t1rz6hjHqdQzl5dAttMowAlr6wAAAAAAAAAAAAQu7TtmyrNA56FC4WluprMcC0E6G+5IutuV4xufC0GSVLXMsvqSJVmOwp8b3QHXOmzpP5fft9YyiMlLpQAxG85G+rFBdn0uZZp94dFmZRbs760AOzFoZHW0yWvI4Ne0UP8wnmZrlp4l6k9l1zm0inc0AKk/OxnNiKfXHoRFccChZV4jaQ5UkoMZHGmT0gFlBNJuIbWmtmIP+NyvtrsdT1qLmosKEWzgklsBLAJjytqWLIIoITbhtXTvEfyIt8idjER1OZEiLCumSeQE8GRO/7XLanBFply4QYOb5abqAYgIhNhm7HW3/kYg69M+epx/DD21KuBy94ODpX5oUU9lhgjNEGsuZRTxgDXmEVd7omwOjnLZM9Y8DLYOuakIfG7Vp2vgTvHmgttdtKtLKRZ5Cl0nP2SK1289lP8yfOCJrcmjH2miIL4x4RzOmCSYzpTY4SIZCyRGqFgNjVBNzRTEUKd1Qp//htmex0Vk8F9OLfkYvSok5SNW9vk/eZqzBHLC2xTeemIQE2qAfyE/14WPPCYgUTMZ1MA/aV1egS/4e/G3Tl1ZOGG3FcGG378dnlftUhbpiGmmXXZEuSwpGbDtCIANjl2uwPFZeEqV3McCuCeXsnsPu94GVqfQndfFoKlyYXZK7PkOEpHfzGA/fREqIW2UYfxNQTJxgdnEJ86f01qFvZ/2BpPny3xrKkmFLzPDRUI8pnJrLQa6AOuPRqX6Sbiw6U/U/I5fafbtGEOQCq6cq2wNoL+tBZnzJ0wOhQFHTbTbjPHpHIDC/XY26wG+oMBMBpxZvtzwvvp0CZ2/hcUWCYAgnY3IbcpqzpyBRd18Zp7AnYXyhaS3a+JXxUvzGG9/LZfmZCphcjDVe1GcCzcKCvOlHffQlZfhoBp68BKGUt2LraxKPlqVfNESbFkyJlZBhMiNuud+m7jMPeYSbbGCFqFMisb8kl2mw+QHp67tjmOih065j+XrmKFAMU4h7bUidhEbawF6ZHVKgRZAOiShdou4LUZlSSVm9K1R/5xNz1hL7GCcaE0ywF5cdDKSEyBgWOqdiOD+zbECmYk0NrqSVvmBthSvEmJwAd0FSma+HJR/EgazFTOOjwlg6ztd4ARf/f93wWxVrsOPsdkFAbEn4SGYr7g7tmr2WSrNYtnjozbZ8T1D6WT4wA4gyckuivltmVxyo5YuFindqb/VNkN2z3EEaIQNhnDdKaBhZMBo2CmZ8WJ/5K0MryoebD7LsRa2VTtdQAkgztn0f7EzdI/DtidGl1qhE0lwPNVnwN54LJCzly4cu7+i/JxGTN1vJofX/Nk703YIYQ0Y8iiixOUx35C6wYfEuM2rIjQVf/yfTVlcss7EX2fSk8YDwS5QJTP8O+5sviH0hStKz7SQD4QOmP1dDk0KM7dR+2d1trR5OF1NzcyrARAxeH9uxIkhEVRjoQk8CZseZFXr6rHm6DWcEFkUp1tYzr557+mFbLFpT1hetuvgJrwu1uvvyb2s7lcigLC7FotnnqMrL0F945cocDAXIoNkrDSmv1vdekNn63sapr3wx0YI+9REhAtdOnRidLX7mLh6qivK5PcDHn7a30uP5c47DkEH7YiAJ72WnBca1Sf54y3A2P8kmUGkh7atSLRWHn/uE+Xoza5eVJo5djWutPsNh9BsjhfDQwGsn7BukIh7DExewaexZhWRgI5totns2T0/IxAD8przS5zCfd0JAobneIfVCWtGdfvfCyfhj99ONppTVdD6kzyjzm9+NTsZ38TD0JIk6not8DWcTPNtVROZ73nhqTcNkIKu/hHty2hHmFJQ3Fea7YLP62Td/VWzsXb2fgJMlsH25Hb7r4DaeIDnyn35JQ31JK5Eevq77t53kNNVZnT+KAP5YBlIT5jPfbLr9XLeY7K3rLvlTI9I5IGTYff6w9PaOSP/udcmcYFqnfQrdHGldP+uJYSj1zVMmMzagJhCFr72xDkv56HzGRkUAzvpcwAJfV5QEbmKL5zSuI+xq9+teNHtoM7AHBej/OAI64ZFfjYI9UkGBBnXGhH/JeEO7Y+/D27YI69lAZCItCHJwmpvunG00pngJfNlCSs2BHHk0VFHBsZ+3jZKxmoktIYpwxqrotNuCuT5LMP2eCg/FlWzYzn9ay+OAhSGTTN1YJ2F+oVNaMjBW8JNy+FQGM6eLoERrfFpLLAsAsImwXxKzanHpots5sMgPmRHNbZc1JULXPPSGjNxZBRkrsgYeANfZbgXsAbuAlcIijPmJ2zK/XPyXjTK6v07cQrXbNSDwQHomPl9s/OrVMv/R2ZUkeFWwB5JAQekwfaU+VEXjo2kylbikbWIbwfEV4L9zHAY235lfHM4PmOIR/n3Vwj8P6ltCXjaho0tIWJMQYonsVK5y5PgllfpBn0GhMb567FFv4fYqTFumJJ2hQP0sXW8qyBvHgl3tQKsV60tvHpXsk4T6kHL8vNo5k3KFb2l7KPyjCp3WPl4Z6oJUlWilNP5jSZSUFOfPDRiPtZ/IRLywr/qRgBG/LX8AaEW96N+F0fB2SHH2+IO187ouE+x6WKGZU7Kl+lf1jJ2IF9ojhWY31XG6qBc9AI2/AoRfv4ebfwEnNeCTLIr3T5oEGQBA7g14OLRy3u5//ll3yJzqKIydAqsO3T75XZ4KxEf5rpnW19WJofN1I29IFssK8/4LpbzDVwBtTDShHF/6TZ/bTYyGCvSAoJaD4qi8LzS0q8DUUL93buCSBHyhs4VTPdoFk/vWJAlC1Jy3IoryFQrgnfOwF1+RDE2/LvWScB2oC4W1KG1EDkbY7987zgMdD3RDAv8yrmN+CAa22/8JOjMJR+IrFr4LtnSpNg9vpK1lqEsQCCi6ai0yTcX7zHaST3qxlgovS42GbHjP8uIIirIlO1ez6FQ7fCzf3+vvv+eSZXpkPo6F8+DGzYuhDrypQy3MAdwGKkUsRjGjuu90Txn912jTSE+nmJC23o3UlXZwV6Hv+0f5swR3cWWM0QnXU/Kt8eXIjIAAAAAEVYSUa6AAAARXhpZgAASUkqAAgAAAAGABIBAwABAAAAAQAAABoBBQABAAAAVgAAABsBBQABAAAAXgAAACgBAwABAAAAAgAAABMCAwABAAAAAQAAAGmHBAABAAAAZgAAAAAAAABIAAAAAQAAAEgAAAABAAAABgAAkAcABAAAADAyMTABkQcABAAAAAECAwAAoAcABAAAADAxMDABoAMAAQAAAP//AAACoAQAAQAAACwBAAADoAQAAQAAACwBAAAAAAAA;" vertex="1" parent="1">
          <mxGeometry x="-540" y="690" width="80" height="80" as="geometry" />
        </mxCell>
        <mxCell id="UBcfyfctAIULLASqHLvR-11" style="edgeStyle=orthogonalEdgeStyle;rounded=0;orthogonalLoop=1;jettySize=auto;html=1;entryX=0;entryY=0.555;entryDx=0;entryDy=0;entryPerimeter=0;" edge="1" parent="1" target="9Jy4nu5iVQ67U5WA-zAP-75">
          <mxGeometry relative="1" as="geometry">
            <mxPoint x="-260" y="140" as="sourcePoint" />
            <mxPoint x="-170.51" y="125" as="targetPoint" />
            <Array as="points">
              <mxPoint x="-180" y="140" />
              <mxPoint x="-180" y="175" />
              <mxPoint x="-170" y="175" />
            </Array>
          </mxGeometry>
        </mxCell>
        <mxCell id="UBcfyfctAIULLASqHLvR-22" style="edgeStyle=orthogonalEdgeStyle;rounded=0;orthogonalLoop=1;jettySize=auto;html=1;entryX=0.006;entryY=0.798;entryDx=0;entryDy=0;entryPerimeter=0;" edge="1" parent="1" source="Q8bI6oUkw9Ppd8dmuiiR-6" target="9Jy4nu5iVQ67U5WA-zAP-74">
          <mxGeometry relative="1" as="geometry">
            <Array as="points">
              <mxPoint x="-230" y="230" />
              <mxPoint x="-230" y="153" />
            </Array>
          </mxGeometry>
        </mxCell>
        <mxCell id="UBcfyfctAIULLASqHLvR-23" style="edgeStyle=orthogonalEdgeStyle;rounded=0;orthogonalLoop=1;jettySize=auto;html=1;entryX=-0.002;entryY=0.064;entryDx=0;entryDy=0;entryPerimeter=0;exitX=0.991;exitY=0.169;exitDx=0;exitDy=0;exitPerimeter=0;" edge="1" parent="1" source="Q8bI6oUkw9Ppd8dmuiiR-20" target="3PP495jiauaJpkdDZrHe-73">
          <mxGeometry relative="1" as="geometry" />
        </mxCell>
        <mxCell id="UBcfyfctAIULLASqHLvR-24" value="" style="endArrow=classic;html=1;rounded=0;exitX=1.001;exitY=0.094;exitDx=0;exitDy=0;exitPerimeter=0;entryX=-0.006;entryY=0.074;entryDx=0;entryDy=0;entryPerimeter=0;" edge="1" parent="1" source="3PP495jiauaJpkdDZrHe-73" target="3PP495jiauaJpkdDZrHe-91">
          <mxGeometry width="50" height="50" relative="1" as="geometry">
            <mxPoint x="-60" y="530" as="sourcePoint" />
            <mxPoint x="10" y="370" as="targetPoint" />
            <Array as="points">
              <mxPoint x="20" y="363" />
              <mxPoint x="20" y="570" />
            </Array>
          </mxGeometry>
        </mxCell>
        <mxCell id="UBcfyfctAIULLASqHLvR-25" value="" style="endArrow=classic;html=1;rounded=0;entryX=0;entryY=0.127;entryDx=0;entryDy=0;entryPerimeter=0;" edge="1" parent="1" target="9Jy4nu5iVQ67U5WA-zAP-71">
          <mxGeometry width="50" height="50" relative="1" as="geometry">
            <mxPoint x="-260" y="420" as="sourcePoint" />
            <mxPoint x="-210" y="370" as="targetPoint" />
            <Array as="points">
              <mxPoint x="-210" y="420" />
              <mxPoint x="-210" y="58" />
            </Array>
          </mxGeometry>
        </mxCell>
        <mxCell id="UBcfyfctAIULLASqHLvR-26" value="" style="endArrow=classic;html=1;rounded=0;entryX=0;entryY=0.063;entryDx=0;entryDy=0;entryPerimeter=0;" edge="1" parent="1" target="Phphtxd2D6d0RNNB2ZdB-6">
          <mxGeometry width="50" height="50" relative="1" as="geometry">
            <mxPoint x="-28.889999999999986" y="60" as="sourcePoint" />
            <mxPoint x="21.110000000000014" y="10" as="targetPoint" />
            <Array as="points" />
          </mxGeometry>
        </mxCell>
        <mxCell id="UBcfyfctAIULLASqHLvR-27" value="" style="endArrow=classic;html=1;rounded=0;entryX=0.002;entryY=0.054;entryDx=0;entryDy=0;entryPerimeter=0;" edge="1" parent="1" target="9Jy4nu5iVQ67U5WA-zAP-16">
          <mxGeometry width="50" height="50" relative="1" as="geometry">
            <mxPoint x="-28.89" y="60" as="sourcePoint" />
            <mxPoint x="21.11" y="10" as="targetPoint" />
            <Array as="points">
              <mxPoint x="20" y="60" />
              <mxPoint x="20" y="720" />
            </Array>
          </mxGeometry>
        </mxCell>
        <mxCell id="UBcfyfctAIULLASqHLvR-31" value="" style="endArrow=classic;html=1;rounded=0;entryX=0;entryY=0.152;entryDx=0;entryDy=0;entryPerimeter=0;" edge="1" parent="1" target="nOtUrchcvmmtRtQINzbd-34">
          <mxGeometry width="50" height="50" relative="1" as="geometry">
            <mxPoint x="-260" y="580" as="sourcePoint" />
            <mxPoint x="-210" y="230" as="targetPoint" />
            <Array as="points">
              <mxPoint x="-210" y="580" />
              <mxPoint x="-210" y="223" />
            </Array>
          </mxGeometry>
        </mxCell>
        <mxCell id="UBcfyfctAIULLASqHLvR-34" value="" style="endArrow=classic;html=1;rounded=0;exitX=1.002;exitY=0.207;exitDx=0;exitDy=0;entryX=-0.008;entryY=0.089;entryDx=0;entryDy=0;entryPerimeter=0;exitPerimeter=0;" edge="1" parent="1" source="nOtUrchcvmmtRtQINzbd-34" target="9Jy4nu5iVQ67U5WA-zAP-20">
          <mxGeometry width="50" height="50" relative="1" as="geometry">
            <mxPoint x="10" y="360" as="sourcePoint" />
            <mxPoint x="60" y="310" as="targetPoint" />
            <Array as="points">
              <mxPoint x="20" y="228" />
              <mxPoint x="20" y="930" />
            </Array>
          </mxGeometry>
        </mxCell>
        <mxCell id="UBcfyfctAIULLASqHLvR-36" style="edgeStyle=orthogonalEdgeStyle;rounded=0;orthogonalLoop=1;jettySize=auto;html=1;exitX=1.005;exitY=0.104;exitDx=0;exitDy=0;exitPerimeter=0;" edge="1" parent="1" source="9Jy4nu5iVQ67U5WA-zAP-20" target="Phphtxd2D6d0RNNB2ZdB-28">
          <mxGeometry relative="1" as="geometry">
            <mxPoint x="180" y="935" as="sourcePoint" />
            <mxPoint x="370" y="160" as="targetPoint" />
          </mxGeometry>
        </mxCell>
        <mxCell id="UBcfyfctAIULLASqHLvR-38" value="" style="endArrow=classic;html=1;rounded=0;exitX=0.994;exitY=0.139;exitDx=0;exitDy=0;exitPerimeter=0;entryX=-0.002;entryY=0.067;entryDx=0;entryDy=0;entryPerimeter=0;" edge="1" parent="1" source="9Jy4nu5iVQ67U5WA-zAP-71" target="9Jy4nu5iVQ67U5WA-zAP-78">
          <mxGeometry width="50" height="50" relative="1" as="geometry">
            <mxPoint x="80" y="170" as="sourcePoint" />
            <mxPoint x="130" y="120" as="targetPoint" />
            <Array as="points">
              <mxPoint x="20" y="62" />
              <mxPoint x="20" y="271" />
            </Array>
          </mxGeometry>
        </mxCell>
        <mxCell id="UBcfyfctAIULLASqHLvR-40" value="" style="endArrow=classic;html=1;rounded=0;" edge="1" parent="1">
          <mxGeometry width="50" height="50" relative="1" as="geometry">
            <mxPoint x="-260" y="680" as="sourcePoint" />
            <mxPoint x="-170" y="220" as="targetPoint" />
            <Array as="points">
              <mxPoint x="-210" y="680" />
              <mxPoint x="-210" y="220" />
            </Array>
          </mxGeometry>
        </mxCell>
        <mxCell id="UBcfyfctAIULLASqHLvR-41" value="" style="endArrow=classic;html=1;rounded=0;entryX=0.008;entryY=0.203;entryDx=0;entryDy=0;entryPerimeter=0;" edge="1" parent="1" target="Q8bI6oUkw9Ppd8dmuiiR-91">
          <mxGeometry width="50" height="50" relative="1" as="geometry">
            <mxPoint x="-28.89" y="230" as="sourcePoint" />
            <mxPoint x="21.11" y="180" as="targetPoint" />
            <Array as="points">
              <mxPoint x="20" y="230" />
              <mxPoint x="20" y="1060" />
            </Array>
          </mxGeometry>
        </mxCell>
        <mxCell id="UBcfyfctAIULLASqHLvR-43" value="" style="shape=image;verticalLabelPosition=bottom;labelBackgroundColor=default;verticalAlign=top;aspect=fixed;imageAspect=0;image=data:image/webp,UklGRipsAABXRUJQVlA4WAoAAAAYAAAAWwMAvQQAQUxQSHAvAAAB8Mf/v2ot8f89V1xIKS3YI+LYyljYjDKOIxN2MebY3U7oe+zu7u7ubtFRsLtFMAAxkPLiWmu9nn+ocF377L25rvW6fT5ExASgXA16TmBi8SMfgkWxHdZiZAMGHgWH1jS4n5E1NHI7OLSmwx0MbMjI62HR+AaPMrIhAy+DRys7rJ4oLH7k2XCYQ+74EPKPcA3nsB1FFAITR3eGaTCDvh8xUSMw8gi4BnM4g4E6Qfjdb2EbymJIM0UpMPLmBjP2cUZqBRFuBtdADnswUi0w8Z0eMA1jsOCXTIqBkcfDNYzDRYzUDMJpK8I2iMPQQFENjLyvUQw6vcBE3cDE7eEawuMgRuqHT/vBNIDFwG8o6oGRZ8E1xLWM1A/C5jVgC+cwnEIFwcinLEzBDLq+yqQiGLkHXMEcjmKkjhB+uTBMoSyW+YGiJBh5MVzB7mCklqCkYXAFctiSiXoi8aV5YApj0PMDVcHIQ+EK43ACIzWFcNIg2IJYrDydoioYeVNhDB5kpK6g8K9whXDYiYnaIvHN7jAFMOj/mcJg5P/BFcDhHEbqC+GPK8C2mcU6LRSFwci7YdrKwD7DSI3BxO3g2shhb0ZqjQ97w7SJwSJfUpQGI0+FaxOLyxmpNYQzVoNtA4dhIlQbjHzMmNYz6DyKSXEwcVe4VvM4jJGaQzh2QZhWsljyW4rqYOBFcK12IyN1h0gaCtcqDptQRHkwcmQTWtOg+5tM1B6MPACuFRyOYaT+EE5YHGa2LJafQlEgjLwGdrYM7mWkBhHhcLjZcNiGiSqEia91hZklgz4fqRFG/htulhxOY6QWEf6wNOwsWKzWTFEjjLx9lox5jJF6RIRbwP2Kw25MVCRMfL8XzC8YLDhWmTDyRLhfcLiQgbpEOGMVWAAWQyNFmTDyIRgAaBrJxIzkPrakYkujpIK3cNuKYeTOcHA4gJE5yQOMrKGRI6om8bP54bDYBErHkXDaex8U/b2xlHIZttuOOxV5l60fYmyMo7bbeaci77j74jDVwsDz0IRrGNlxVKGtV3yHUxkaYzlYlGGZCVvWw58p7FCS1IBlY12xO+GMRvkdmlyxTeUw8enurzJ1LFVmWxTd4fRGWREWZVhqZMsLiaWtAEREsTBRs5T5XP/N9d9c/831X54lZSL6IGmWn2aUyfSZuiDx5fOZyiLyjLeYdMFbfT5iKofEd3t+qA0+wKaUchAOxxht8K7BNYxlEHkZ3CcKYaFxTI2X+Hl/WH0Ahx0Zy2A7OCgEWNzO2GiRN8FCKQyaRGks4fjfaAV47MvYWJG7w0EpGGMfZWykxPthoBVgseKPlMYR/rAMrF6Axz8ZGifyUHgoBoNOzzM1SuIzTTCaARZr/ERpDOH01WChGuBwImNjRB4NB+Vg0P11pkZIfLkrjHaAwx8ipXjCMBQO6gEO5zEWL/IsOCgIgz4fMhUt8f1eMBoCDptQpFgi/DMcVAQsrmEoVuTlcFASBguNYypS4pgFYLQEHHYo2rZw6KCR1IDtPrC4nbE4kbfCoqOmMtsbBk6kFEU4YfHacg7m8SVq50SEMz4fW/QxE9p/4LAPY1Ei94RDTTkDDnPIDRP5RNd+fYo9/zx/Ymr3gcHDjMWIfAAG9STx/o232qI0N992GZg5kYdgUWyHtRjbfyxW+JFSBOEPy8LWlJINPAZuTuRhOFNs3z4Eh38xFiHyUDjUlhRK9CceOadiUWzXTgR0GsnYdpFPe4P6UqqB/5eVWKzRTGkr4U+rwWoMOJzI2FaRx8NBZRh0e5WpbSJf7gqjM+AwTETaQiSuDwelAYfzGNsi8mw4qA2DPh8wtV7iu71g9AYcNqG0xV/goDjgcBVja0VeCQfVYbDQ50ytkzhmARjdAYftW+/vcFAesLidsTUib4WFAhk0kTJ7wvEDNQgc9mGcvcg94aBAYPAw4+xEPgwDFWKx4mTKrAknrwCrQ+BwOOOsRR4OByVi4EcyzUrksx5Gi8BizWbKrwlnDIGFGoHHCYy/FnkcHBSJQbdXmX4p8eWuMJoEDn9I/EVh2gAOqgQOZzP+LPJsOCgTg94fMJGJH/SB0SZw2IRCCjeBgzqBw5WMkZfDQaEYLDSOHLsAjEaBw/bk3+GgUmBw9dWwUCow1hnoFWMUC4yBYinsXP/N9d9c//0/m75mSyz+TD7YAGtyZmzAZv6nNE5lc2xErlAat7E5Fr6Fb5fLh2yJxW/mJW3SEkOs+GYeVXN6TWRi8SMfboC1GNmAgf8tjTMY2JArlsYdDCx84vulYsYwsfiBV7TFkERhxQceXXO63/u/Z58r/tOvnl44i+Vefua5Bnz6tR1hS8Fi79effq4RX1iiNI5/45mRhX929PWlgltHPTey+M+8cThca1ks88xzzz5X8U+/vhNsjVGvtlEbwTaoKQ1jG7Q8jG3McrENatrC2Dpo6s5c/8/1/1z/z/X/XP/P9f9c/8/1/1z/z/X/XP/P9f9c/8/1//8vt1OtUK27/EOx7vIDhUpV+P1bDEmpBr71JBOVauKTNzNqlcibz2bQKoFn/0ez/Gd3Rq0SuftmFNEpItxsPVKrkOsu3aJXWpbqO02vTOvb7QsmnZL4RTf/ml55zeNxRp0S+RhwM4NOCbwZOE+vnAccrVf+C+zDqFMi9wa2YtIpiVsC65OiUYT8PbB80ippOaD/T1rlp/7AvOO1yvh5gU5vM2mUxLc6AXiGUaNEPg1Y3KlV7oD1uIRBowReAt+EE7XKCWjyOIhRo0QeCO8wgkn0iSSOgHPYiKJRhBvCWfyO1CiUlWANFm7RKTMXgjHo9Y1OmdjzZ13eY9Inie92+Zl5nlGfRD4HGBjcy6BPAu+BBRyu1ClXwANNOE2nnIomwOMwRn0SeSg84LAjkz5J3AHuZ8Mp+kS48c8sViVFmwi5CuzPFosaJSz6M4O+32mUb/vA/KzbR0zaJPGDbr9kX2TUJpH/sz+DwYMa5QEYAHC4lkGbBF4D9zOPszXKmfC/9G9GbRL5z19y2JVJmyTuAvdLf6NoE+FffsliDSrU1WF/aaDok7T4LxnMP5miS4Tf94P5pXk/YdIliR/P+2v+ZX0yyv2KwaOMuiTyYZhfgMONDLok8AY4/KLH+frkXDT92v8x6pLII+F/yWEPJl2SuDvcr22uTzb9NYu1KbpEuCbsr/2W6nTQrCwwjaJJhFMG/JpBz7FMmiRxTA+YX+v0ujZ5rWlW8BSjJol8AuZX4HA7gyYJvBUOv+pxqTa5GH5WjmfUJJHHztp+uiRxH7hfc9iWSZdsNWvrUzSJcL1ZsViOynQZ2FlZZAZFjwinLTwrBn2+ZNIjieN6w8xKl7d1yZudZw3PMeqRyGcwK3C4h0GPBN4Fh1n0uEqXXA4/aycz6pHIE2fnIF1yANysOGzPpEcSt5udDSl6RLjBrFmsqEuWh5213zRTtIhwxmKzZjD/eE3yVT+YWev2HpMWSXyn6+yYFxi1SORIzBosHtAjgffBYZY9rmPQI9fAz84ZjFok8tTZcThMkxwCNzs7M2mRxB1mb2NNsuHsWKxM0SLClWBnZ1Cg6BBh88DZW2CiHhnff3YM5v2QSYckvt8dZnbcKEYdEvmimR1YPKJHHoTFbHrcxKBDAm+An71zGHVI5Jmt8W89cgTc7Djspkd2aY2/MumQxI1bY3U9ssrsWSyVKBpE2LIk7Owt9K0W+WaB2TPo8QmTBkn8aD6Y2fOv6pDI0Xb2YPE4ow55FBaz7XE7gwYJvAW+NS5k1CCR57aGw/9pkf/AtcaeWmS31tmMSYMk/rV11tIiQ1rDYllS9IcwLQ3bGov+oEO+W7g1DHp/zqQ/Ej/rCdMand7UIJGv+9aAwbOMGuQpWLSixz0M+iPwLvjWuZxRf0Re3DoOx+uQo+FaZ38dsk9rba1DNm+toUz6I3Gd1rFYiSLaQ8gVYFtn4BQqkB9+0zoG/b5g0h6JY/vAtE6XdzXIW51aBwYvMGqPyOdg0aoOD2qQe+Fb62oNchlca52sQY5vvYM1yAGtN0KDbN16wzTI0NZbhaI9yMGwrWOx5DSK7hD+uETrDfiaSXckftEPpnUMun2gP97t0loAXmLUHZEvwKCVHR7VHw/Ctd71+uOqtjhDf5zcFofrj4PbYkf9MaItNtIfw9pidYpoDhGu2noWS8+g7uDUJWFbb8EJTJoj8esBrWcw78fa44OuMK2HVxg1R+QoGLS6w5Pa41G4trhZe1zXNudoj9Pb5t/a4/C22VV77Ng2f9YeG7XNWkyaQzikLSyWn0nRG8IZS8O2xSLfao7EiQu2hUGPMUya45PuMG2BNxn1RuRraFOLkbrjKbi2cLhTd9zSVhfpjnPa6mjdcWRb7a07dmurzXTHX9tqKJPeEK7TNhaDA0VrCJtXgG2bxb/XHJMWbRuDPuOYtEbimB4wbePe0Rxvoo0t/seoNSKfg20bh3s1xx1wbXWZ5rig7U7QHEe33f6aY8+224pBawRu1nbDmJSGJP6+rSxWTRSlwZbBsG016Ee98f3ibWXQ70smnZE4tjdMWzV9oDfesWhrg5cZdUbk/2DbyuIhvXFPEa7SG5fAtZXDKVoj8PgiHMygNfYtwgi9sWURNmLUGYnDijCEFI0hDKvAtpXFUlO1xuQl2s5gwHgmjZH4ZV+Ytuv8sdZ437UdDF5j1BiRo2HR5haPao37i3Gd1riiCA5nMGiMwJPhinCE1jiwGDtqje3gi/BnRo0RuRFcEdYmRV8IZfUiWCw7Q2dM/S1s2xksNIlJXyROmB+mCF3H6IxPmooAg7c1RuRrMCigxdOMGuMR2GLcrDOuLYbDeQz6IvAMuGIcpTMOL4bHbjpjR/hibMaoLyL/AlcEh99TRFsIuXYxLFZqpsKYvixsMRb7Tl8kfrMgTBEM5h3HpC/GdC4GgPc1xlswKKTBSEZtEfkEbDEsbtcYNxbnIn0ReA5cMRyOYdAX/y6Kx14aY1f4omylLyI3hSuGwx8ooiuEHFoUi5VbqC5mrABblIGTtUXid4vAFMOg51dM2mJct6IA+EhfvIvCGrzIqCsin4Ypzj364hbYolhcxqArAi8ojsMJ+uL/4IrisZ+2aOGe8MXZTltEblkch40ooilEuAFcUSxWD9QVbB4MW5wlp2iLHxYrjkGfCUyaIvHLeWGKAtjPtMWHKPTLuiJyJExxDB5g1BV3wBbH4ipdEXhxkRxOZdAVx8IVx+NgXdHCfeGLtIOuiNy2SA5/ZlIUIvwjXJHWTBRFwZZVYYtjsfQ0XfHjwCIZ9PtGUySO7wFTJP85k6b4BAV/TVe8WCyDhxn1ROQ9MEWyuE5TBF4OWySHMxk0xYlwRfI4QlO08ED4Yu2iKQK3L5bDJkxqQoQbwxVrXVLUBNMQ2CJZLPeTppi2ZLEMBnyvKSb1gilWp6+YtETiWIuiv60pXkHBDZ5k1BKRD8IUy+IWTXEtbLEczmfQEoGnwxXL4yg90cLD4Yu2l54I/EfRHLZiUhIi3ASuaOuToiQoaxfNYvBMPTFjGdhiGSz8o574vh9M0bpOYNIRiV80FQ2w7+uJ19GAzzLqiMhHYYpmcIeeuAG2aA4XM+iIwLPhiuZxjJZo4b/hi7e/lgjcoxG2YxINIYmbwxXNYUNSR5BDi2exStASzcvDFm+xqVpi8gCYohl0n6QjEr+epxHcR0w64i2LRnyeUUNEPoEGNLhbS9wCWzyLyxk0ROD5cMXzOJEtGqKF/wffCAfriMB9GmMHRgUhiVvDFc9hY4ooCHKDRrAYkqgiWlaCbYSB03XElIVgimfQ43sdMbFrYzR9xqQfEt91jYGXNETk02hIg/sZNcQdMI1gcTWDfgi8GK4RPE7TEC08Fr4xDmeLfgg8oFF2YdQPiSMaw+GvFNEOIvwjXCNYrEXqB8aVYRvjt80aYvoiMI1g0HuKhviue6N0HsekHRI/amoU+6p+iHwejQGDRxn1w70waEiLGxm0Q+AVcI3hcI5+aOEp8I3hcZR+CDyscfZi1A6JOzWKw+YU7SD8M1yjDCVFNwhlCGxjWCzboh+aBzaKwfzT9MPknjCN0u0r7ZD4aefGaXqDSTu8ZBoFwBOMuiHyARg0qMWt2iHwGthGcbiAQTucAd8oTThGP/yrcTz2ZdQNibs2jsPWTLpB+De4xhlG3SjkWrCNYrFipOiGlkGNY7DADO0wpTdM48w7UTckft61kTq9w6QbXnaNhGcYNUPkI2hggzt1Q+ANsI3jcAmDbjgHvnE8TtQORzXWQYyaIXLPRnIYwaQZhJvDNdIfKYpByHVhG8fid0LRDHHpRjJYeKZumNYPppF6TtINX8zbWF3eZ9ILia81NZZ5nlEvRD6ORoLBvZoh8BZYNLDDFQya4QL4RmrCqbrh2MbyOIxRL0Tu21gOOzLphcSt4RprOEUvCNdvLIvVSNEKQlkOtrEWi5qheQBMIxn0/kEzfN2j0bp9zKQVEt/q1Gh2FKNWiHwGjQWDh/VC4F2waGiH6xn0wmXwjeVxjmY4ufGOZNQKkQc3msNuTFoh8e9wjbYJRSsI/9hoFmuRohOEHAzbaINEL7Qs3GgG/afohYm9YRptvs+YdELie10br+kVrRD5vGk4g8cYtcK9sGhwh5sZdELgVfCN5nGBXji9DI5m1AmRh5XBXkw6IXEnuEZz2EIrCIc3nsV6FJ1ArgLbeEtRJwrjYo1nsMB0ik74th9M4/Ucx6QREj/oXgbzvKETIl90ZYCnGHXCgzBoeIfbGTRC4HXwjedxqVY4uxxOYNQIkf8uh/11QuI/4BrPYRsmjSD8azmsT9EI5OqwjWexHDWiUAaWw8I/UTTC9/3LwKDPVxoh8eP5YMqgy9tM+iBytC8HPMeoER6BKQFY3M2gDwJvgkMJelypE86HL4dTNELkUWVxMKM+SNwDrgwc/s6kETYriw0p+kC4JmwZWKyoEcgly2KxmRRtIJy8YDkY9BuvDxI/6wlTDt3eY9IHr3YqC/MCozaIfAKmFGBxvz4IvA0OpehxLYM+uBi+LM5g1AaRx5bH4RphH7hycNiJSRskblkeG+sD4bplYbEyRRuQS8OWxcBI0QXCqYuUx4BJ2iBxXG+YcjCY9yMmbfBW5/Jwoxl1QeSzKAtYPKoNAu+BQ0l63MygDa6EL4/ztEHkSeXhcCSjNjgIrjx2Z9IFiSPKZBN9sEF5WKxB0QXCFWHLYylSNIFwxuJlsvD3uiDxq/lhysKg56dMuuDdrmXS9JouiHwB5QGLJxk1QeADcChNjzsYdMG18GVyMaMmiDytXI7WBofBlYfD3rogccdy2YJJF/yxXNbWBcLfwZaHxbLUhMLmQeWy2GSKJhg/oEwM+nzOpAcSP+gOUybzvKkJIl9CmcDgGUZN8DAcStThHl1wI3yZeFyuC84qF4fjdcG/4Mplf13wj7LZhkkPJA4vm6G6YNVysViRogaELUvBlsvAqRQ9MHHBcjHo9wWTFkj8aD6YcunyjiZ42ZaMwfOMWiDycViUqsMDmuBW+HLxuFoTnAdXLg4na4Ijy+dgTbB7+fxdE/ytfIYxaYHENcrndxQlIIzLwpaLxaAZFC3w3SLl03+8Fkgc0xOmXAy6fcikBd7w5YPRjDog8llYlKzDY3rgbrjyuVEPXFJGZ+mBY8von3pg3zLaRQ9sUUYba4HEdctoCJMKEMpKsGVjsUwzRQf8sHgZLfSNDkgc2xembAx6fMKkA96ep4zMq4waIPJ5WJSuw1Na4H64MrpVC1xRTudpgRPL6SgtcGA57a4Ftimnv2qB9ctpLSYFIOTKsOVjsXwLRQP8OKicFv1WAyR+OT9M+Rj0GsOkAd7rXE7uDQ0Q+RIMStjiOUYN8DBcGTncpQOuLquLdMApZXWMDjikrPbWAX8vq810wIZltR5T9ifC1crJYqVIyf44dSnYclr8+/wv8esBMGVk0GcsU/73Ydey8u/kf5Evw6CULf7HmP89BldODvdpgOvL6zINcEZ5naABjiiv/TXAjuW1FUP+t3F5bcCY+YlwzfJaRSiZH2csC1tOFoOm5H6J3yxUVgbzf8WU+33aHaasOn2Q+0W+AYOStniZMfd7Bra8Hsn/boUrK4dr8r/zyuy0/O+oMjuUIe8L3K3Mts//NimzPzFmfSJcr8zWICXrY/OKsGVlsfS0vC/x28XKy2CBCUx53+c9YMqry8d5X+TbKHGD1xnzvudhy8viidzvznK7Ife7EK68HM7K+wKPKbd/MeR9e5Xbzrnf5uX2F8acL3H9cluHIvmesOV3sOVlsdwMZn3fL15uC0/K+RK/6A1TXgbdxzDlfO8ZlLnBWzlf5IuwZWbxDGPOd0/Z3ZL3XVZuDuflfIEnwJXbUQw5335lt1vetzV8mXlsmvFJ4oZwZeYwlCLZHsOqsGVmsVIzM77Jg8puse/yvcSv+sKUmcF8Y5nyvQ9duQF4L9+LfBkGpW4wkjHfux+23CzuyPmuLL+L8r3AU+DKzeEYhnzvoPLbO+cbAV9uHlvme4kbw5WbwzCK5HlCGVJ2Fiu3MNubthRs2Q2cnOslTpwfptwMen3NlOt95ssOwMf53hswKHmDUYx5XuSj5WdxX753HWz5XZHrBZ4FV3YOJzHkekdUwYH53i7wZecxItdL/Btc2TlszCQ5npDrlJ/FkMhMb8ZysOX326l5XuKkBWHKzqDfBKY8b2zn8gPcZ7ne26hAg1fzvMgnYKrgIcY87ybY8rO4Js8LPBeu/BxOZ8jz/lMNh+Z6u8OXn8dOeV7k5nDl5/BXpgxPyN9Xw1pCyfF+WhG2/CyWmZ7nfb8ITPkZ9J+U4yV+2bUKgKaxTDnee6jIN3K8yGdgqsDgMcYc7zbYKrC4IccLvLAaHM5myPH+C1cFHv/K8Vq4N3w17JrjRW5dDQ6bMWV3IhwGVw3rkZLdcebvYKvAYvmfcrzJi1WDwYLf5Xjju8NUQ+cvmXK7xI9Qme/keCOrwuBJxtwu8i6YarC4Jb8LvBS2Ks5nyO+Og6sGh6PyuxbuD18NHnvmd5EjqmMrpsxOhBvBVYPD+qRkdgyrwVaDxeCZ+d2UgVVhsMjk3C5x4nwwVdF1PFNu96lBdb6f372ICn2WMa+LvBemKgzuyO0Cr4StCouLGXK7k+CqwuGY3K6FB8NXhcd+bMnrInesku0YJacT4XC4qnDYkJLXMa0BWxUWqwRmdtOXrJLfTM3tvusFUxUG805iyukSx7oqsZ/mdq+gUv/HmNNFPgRTHQb35nWB18FWh8WVDHndGXDV4XByXtfCf8JXh8chbMnpInerlp0YMzpJ3BSuOhz+TJGMjly3SizWSMzqfloGtkoGTc/rfugHUx0Gvb7P6RK/7FQtTZ8z5XSvG1Tr6Jwu8jGYKjF4kDGfC7wJtkosrmXI6c6BqxKH03O6Fh4JXyUeR7Alnwvcq2p2ZcznEreAqxKHTSiSywn5+2qxWJvM6GYuD1stS/2U003pD1MlBn0m53Tju1RN5y+YcrnEt1zV2NfyucgnUbmPMOZzt8FUi8WNDLlc4AVw1eJwdj7XwmPgq8XjSLbkcoH7Vc+ejLlc4jZw1eKwBVMmJ+Sw6hlKSi4XVoKtFovlZuZz0xaEqRaD+afmcxO7VU/Xr3O5xHebqse/yZTHRT6LqgHwJGMudycMKtbi1lwu8BK4qnG4gCGPa+EJ8FXjcUwuF3hQFe3HmMcljoCrGoetmbI4EW5URcNIyeIoq8BWjcWKMZf7aRGYqjFYYEYu9/18VdT9mzwu8cN5qqjTe0w5XOQLqCI8x5jH3QeDyjW4O48LvAquehwuY8jhWngafPV4nMSWHC7wiGo6hDGHS9y5ihy2Z8rhhH+Bq6I/UTI4IYfAVo/FKkLJ4WYuXkUGi87M4yb3gqmint/lcImfdq2mLh8y5XCjbDWZFxjzt8iHYFDBBvfncIHXwVWRw1UMOdxZ8FXkcXoe95+qOoIxf0vcrZocdmbK3kS4CVw1/YUi2Ru5NmwVWQwhM7iwZFUt3pLDTe0LU0UGfSbnb4ljuldVt0+Z8rdXfFW5UYy5W+SjqCYYPJy/Bd4Ii0p2uI4hd2vhefDV5HE2W3K3wP9W138YcrfIvaprd8bcLXELuGpy2JQpdxOuB1tNFmsxdxempatrUKLkbtP7w1STQb+puVviuPmqa94xTLnb652qq+mV3C3ySVQXHmPM2wJvg0VFO9zMkLtdBF9VHhfkb8dV2dG5W+R+VbYXY96WuA1cVTlswZS3CTeosqGUrE3I5WCrymIpUvK25gVgqspgwIzc7eueVdbjC6acLfHtzlU2z5t5W+RzqDI8zZizBd4Ni8q2uIMhb7sCvro8LsvdTqm2E/O2yIOr7UDGnC1xe7jqctiOKWcTblRtf6BkbEIOhq0uixVIydlaFq22hWfmbRP7wlSXQZ+vmfK1xPe6VluXd3K2yBdMtWEkY74WeD8sKtziHoac7Vr4KvO4Km87o+pOy9kiD6+6QxnztcSd4KrMYQemfE04vOo2ouRsq8BWmcXgjE2YFq+6xQIlX5s0P0yVGfSbmK8lfti96rq9z5SrRY5yVWdfZMzXHoJBpVs8kK8F3ghfbR7XM+Rr51bfWfla5L+r75+MuVrirnDV5rALU772t+r7S74mXB222ixWpeRqlEHVNzAxUxd+v0D1DfiWkqclfjIfTLUZzPcRU672clP1+dG5WuRjMKh4g0cY87TAW+GrzuNmhlztgjpwXq4W+d86cCRjnpa4J1zVOezOlKttVgc2ydWEa8FWncUalDyNXKoOLMk8XTh54Tqw0PeUHC3xs54wVWfQ81OmPO31TnWg06t5WuSTMJUHgycYc7TAO+FR+R63M+Rpl9aDi/O0yGPrwdGMedq+cNXnsHeelrhVPdiCKU9btx6sk6cJl4WtPotlmKMLpy5WDxadQsnPEr/oA1N9Br3HMuVob3euB/O8laNFjoSpAwbPMuZngffBoQY63MuQo10NXwc8rszRIk+uCycx5mgHwdUBhwPztBF1YbscLXFYXdiAKT8TrgRbByxWpGRnwulL1IWB0yi5WeJX88PUAYN+XzLlZ+91qwtd383PIv+HuoAXGPOzh+BQCx0eytGuh68HHtfmaKfD1QOHU3O0w+vDoTnajvVhh/ws8Y/1YUOm3Ey4Sn1YmZKZCX/6LWw9sFhyBiUvSxy/QH0YMJ4pN/twXph6YND9g9wschTqA0Yx5maPwaEmOjyan90EXxc8bszPzoarCw5n5Wf/qhP/zM/+USd2yc+G14mNc7PE1evE6kxZmXDmMrB1wWLpmZS87JuF6sRCE5lyssRPesDUBYMeH+dlka/aOmFeYczLnoJFbbR4Mje7Ha4+ONyWm51fL87LzY6qF0fmZnvUiz1ys7/Vi7/lZYlr1Ys1mTIyYVwetj5YLB8pOdl3i9aLRb/LyRI/7wVTHwx6fc6Uk73p64V7MyeLHAmLGmkxkjEnuweuTjjcnZddWjcuycuOqxvH5WX71o1987It6sYWednQujE0IxOmwbB1wmJwouRjPwysGwN/yMcSx/WFqRMGfccx5WPvdKobnd7JxyJfhEWttHiRMR97AK5eODyQk11RP67IyU6qHyflZAfVj4Nysm3qxzY52bD6MSwbE3LV+rEqKbnYj4Ng64XFklNyscSv+sPUC4P+XzHlYu93rh+dP8jFIkfDoGYajGbMxR6BqxsOj+Rj19SRa/KxU+vIafnYoXXksFws8O91ZHuGPCxyozqyEWMWJuSQOjKEInnY1KVg64bF0tOYhSWOXwCmbhgsMIEpD/uoax3p+nEeFvkaDGqnwWuMedjjsPXD4olc7IZ6cmMudiZc/XA4Kw8L/Gc9+RdDHrZTPdk5D4scXk/+nIWJcO16sjZFMjDOWBa2flgs9xMzsMRJC9eThSflYWO6w9QPg+5jmHKwt2BQS9/OwSKfha0jFs8x5mC31pXb87Dz4eqIwwU5WOD/1ZX/MuRgu9eVPfKwTevKZhmYCH9fV35PkeyLzSvB1hGLwTOZgX33m7rym+/zr8SxPWDqiEHPcUz517uore/lX5HPw9YTi/8x5l931pe7crCL4OrKJflX4LF1xeE4hvxr7/qybw62JXw98dgq+xLhMLh64vAHJsm82LIybD2xWKWF2dcPA+vLEpNzr8Qve8HUE4M+XzHlXh+ivpqPcq/Il2DqisEoxtzrHti6YnFf/nVZnbki9wo8Ea6uOJzMkHvtX2cOzL+2g68rHiMyL0ncCK6uOPyJSbIuxtVg68uQyMzrxyXri8Vvp+RdieP7wtQVg34TmPKuTyxqq4H/mDHnChwNU1tg8BqTxJRlSYyMfKDe7PrsZAoZg2RVEoOQlPev+n2dAWAW2OKitxJJCVEkh5IUEimcdO+hg7ug5joLYJ7lD7hrAoVMUTIniYEkW0afObwPADhXb2Cs9wDQ84+nvthMkiFKpiQpJJIce+PuS3oA1luDOmystwDcwH9c9zlJSkiSG0mMpHDaU8es2w2A8c6iRhvjvAHQZc0jH/uRJGMUyYUkBSGZ3r1oqwUMAOeNQf021jsA6L/l+W8HktISRXIfSSGS5Df3HDS4CYDxzqC+G+cNAL/C/ndOJMkYkmQ7IjEIyebRpwzvBQDOW4O6b4z3ANBjo5NGzSApIYrkN5JCIiljr991kAVgvTWYUzTWWwBYfKerx0SSKSTJaERiIIWTn/j3Op0BwDuDOU3jvAHQea1/PT6ZJENMWYzEkEi2vHv+lgsAgPXWYA7VegsA/Tc/792ZJFNIkrVIipGkTLhnv5UcAOOdwZytsd4AcCvte9cEIRlDkjwlxSAkp486caMeMIDzBnPGxjvAoMeGx784jaSEmDITSSGSjJ9ds8MSAGC9M5iTNs5bABi0w9WfBpIpJMlEJMVAkt89ccRaXQAY5w3mxI13BkCXNY944juSEmPKPiQGIdn89nmbLggA1lvMyVtvAWDBTc9/p5lkCkmyDUkxkJSv7tp7RQ/Aemcw52+ctwCaVtrnnq+EZIxJ8guJUSic+tIJf+gFwDhv0X5ovDMAeg074cUpJCVGySgkxUQyfHTNiCUMAOst2h+ttwDMoL9f+0kkmWLKIlKMQnLSY4ev3hWAdc6gvdI4ZwB0W+Ofj39LocSYsgaJMVHY/MZ5f10AAKyzaOc0zjkAWHCTC99spjDFKHlCipEkv7hrz+WbAFjnDNpHjXMWQKfl9rrrC5JMMWUGEqNQOGXk8UN7ATDOWbSvWucMgN7rn/TCVAolhpQJSAyJZHz/qm1/YwE45wzaY41zFoBbfMS1HyWSKcQOP4lRKJz08GGrdAVgnTNoz7XOWwDdV/vXo99RKDGmjrsYhcLmV84dPgAAnLNoBzbWOQBmwF/Pe62FpMTUAZdCIsmxt+y2VBMA561B+7Gx3gHotMzet39BkimkDjSJkRROffrYdecDYLyzaH+2zhsAPdc/aeR0ChmjdIBJCkIyvXfFNotYAM5bg/ZqY70D4Bbb/uqPSVJCko6sFBIpnHT/YYO7ADDeWbRzG+u8AdB1tX8//AOFjCFJB5RIjKRw5uizhvcFAO8s2smN9Q6Amf9v57wWSDJG6VCSFIQkx9642yAPwHpr0L5urLcAmpbe59avKGQKqYNIQiTJqU/8d+3uAIx31qA93hjnAWDeDU4YOYNCxijSsSMpCMn03sXbLGgAOG8N2vON9Q6AWXSHKz4Rkikk6aARCZEkv73nkMGdABhvDToCjfMGwDyrHv7g9yQZo0gHi0gMJNk86tQ/9QQA541Bx6Ex3gFA303Ofn0mSQlROkwkhURSxl77jyUMAOutQcejcd4AcMvufevXQjKFJB0ekmIgyR+fOHKdLgDgnTHosLTeAUD3Ycc9P40kQ5QODElBSLa8f8FWCwCA9dago9NYbwFg0RGXfRRIppCkA0JSiCRlwp37rmgBGO8MOkqN8wZAp9UPefhbkgwxdShIDELh9JdO2KgHADhv0dFqvQOAfn87641mkhKidAhIColk/OyanZYAAOutQQet8waAXXaP275KJGNI0r6XYhAKv3vyn2t1BmCcM+jYNd4BBvNucMwLUyiUEKWdTlJIJJvfOX/zBQDAeYuOYectACy27eUftlAYQ5R2NkkhkExf3bnXih6A8Q4dysZ7A2Ce1Q555BuSEmNqN0sxCskpLx4/rCcMjPMWHdHWOwOg/1/Ofn0GhSlEafeSGBPJ8PE1I5YwAKx3Bh3XxjkLwC27++3jhGSMSdqvUoxC4bePHz6kKwDjnEHHt3XOAOix3tHPTaZQYpR2KEkxUTjj9XP/MgAAnLPoOLfOATCLbX3lBy0kU4ztSilGkjLuzj2WawJgnTPoaDfOWQBdVznk4YkkGaO0C0mMQuGU548f2guAcc6io946ZwD0H37OKz+RlBilfSfFRDJ+cPW2izsAzll08BvnLICmpXa9dQxJppjaaVJIQuHEhw5duSsA65xBHmidMwB6rHPssz9SKDFKO4vEIBQ2v3Lu8P4A4Jw1yAmNcx6AXXTrK9+LJCVEaS9JMZHk2Nt2X6oJgHXOIEe0zlsAXX936IPfUMgYUrtHCpEUTnnmuHV7ADDeWWSMxjoPAH3/dNbomSQlxnaMGIRkeveyrRexAJyzBvmjsd4CaFpyt5s+p5ASYjtECokUfnPfIYO7ALDeGeSTxnkDYL51j31qGoWMQdoRJAaSbBl15p/6GgDeWYPc0ljvANiFtr3sPSEpIUk7gKQgpHDsTbst6QE47wxyTeO8AdB58KH3f0shU5Q5OomRJKc+ecw63QEY7yxyT+sdAPQefvroFpIMUebIJAUhmd65eOsFDADnrUEeaqy3ANygPW4YR5IpJJmjkhQiKZx090ErdQJgmpxBVmqM8wDQbd2jn5pKkjGKzBGJxECSM0edsnEvAHDeGuSoxnoLAAtte8kHkWRqSSJzNpJCIimfX7frIAvAemuQsxrnDQA/+KB7J5FkDCJzKhICSf74+H/W6gzAeGeQwRrjHAD0Gn7aK80USkgypyGSgpBseff8LfsDgPXWIJ811hsAZsldbxiXSKaQZI5BUowkZeJd+6/kABhvDfJb6x0AdF3vqKenUCghyhyAxCAkp7900kY9YADnLfJd6y0ALLTVhe+3kEwhSo2TFCLJMObqHQYCgPXOIPc1zhsAfuUD7psoJGNIUsMkxSAkv3/88DU7AzDOGeTC1jvAoPfwU16eTmEKMdUqiSFR2PzWuZsuAADWW2TGxnkLwCy1802fJ5IxJKlHMUaS8vVde6/gARjvDPJk45wB0H29I5/9gaSEmGqOxJBITnnxhD/0BGCcN8ibrXcGwMJbXPzeTApTjFJTJMVEMnx89YiBAGC9RRZtvDcA5vndfvePJ8kYU+1IMZLkpMcOG9IVgHHOIKc23hkAfTc6dfQ0kilGqQ0SY6LwpzfO/esCAGC9Q4ZtnLMA3FI73/xZIplikupLMZKUcXfusXwTAOucQb5tnTMA5l3ryKe+p1BiTBWWYhQKJ488dmhPGBjnLLJvY50DYBbe/JK3WyhMMUoFSYyJZHj/qm1/YwE45wxyceOcBdB5pf3v+5qkxCiVIjEKhRMfPnSVLgCscwa5uXXOAOi74emjplMoMUglSIxCsvnVczbuDwDOWWTqxjoLwC+x0w2fCMkUUsmlkEjy81t2W6oJgHPOIG+3zhsA865x5OM/UMgYpaQkRlI45elj1+kBwHhnkcdb5wCYBTe/5K1IUmIqnRSFZHr3iq0XsQCcswY5vXHeAui8woH3jKeQKaTSSCGRwm/uP2xwFwDWO4Mc3zoPAL03PO3FZgoZozScxEiSLaPP2rivAeCdNcj3jfUWgB+487WfkqSEKA0jKSSS/PyG3QZ5ANZbg/zfOm8AdFvjyEenUMgYUvFEQiSFU57479rdARjvrIEWNNY7AGbAlhe+nUhKSCKFEUlBSMq7F2+9oAHgvDXQhsZ6A6DT8gfeNZFCpiBFEImJFE665+CVOgEw3hpoReMdAPTY8OT//USSIUqbSAxCsvmlU//UEwCcNwa60dgmC8D8ZperxwjJFJK0iqSQSHLMdf8YaAHYJmugIo1x3gDovNZ/HvuRJGMUmSVJMZLklCeOXLsLAOOdMdCUxnoHAAO2PP/dQFJClF+QGIRkeO+CrQYAgPPWQGMa5w0At8K+d0wQkjEyRpIy4c79VnAAjHcGmtN4BwDzbXjCi9NJCqe/dOIf5wMA7w0UqLHeAsDAHe/+9s6dBgKA9dagIxRWUDgg0jsAAHC5AZ0BKlwDvgQ+bTaWSSQjIiEjtQhYgA2JZ278JHXgQCgM+m3TP1P18qQgv/hP6j8hvG2275f+8f4r/Rf5D9vuyV2e71/0v9m/v6xXervIv3v/r/438n/np/qP75/d/6r8Dv7Z/Zv9N/a/7Z///oC/wX9t/1n9h/Gv4wf+F/h/cz/a/+j+tnuA/lf9H/93959z3/A/9z/G/v/8jP7t/gf+Z/sP9p///oA/qv+G/8ntm/9j2N/6R/xP///3vgI/iH9U/4f50/Gt+4fwbf1r/h/t5/1/ke/oX+Z//H+u/5vwAf/X1AP/H7F38A/f/3d/P/8555/HP+X5g9g/2U/DD8Hr6/bHh1+4Pbh/c98PAO/Jv1XvHYBvyj+reYP9z5l/wHqAf7Dzt/8niPfPv+n7Av8q/0vpCaC/sr95PgP+8Xsz/u////cd/Xv//iJT4nxPifE+J8T4nxPifE+J8T4nxPifE+J8T4nxPifE+J8T4nxPifE+J8T4nxPifE+J8T4nxPifE+J8T4nxPifE+J8T4nxPifE+J8T4nxPifE+J8T4nxPifE+J8T4nxPifE+J8T4nxPifE+J8T4nxPifE+J8T4nxPifE+J8T4nxPifE+J8T4nxPifE+J8T4nxPifE+J8T4nxPifE+J8T4nxPifE+J8T4nxPifE+J8T4nxPifE+J8T4nxPifE+J8T4nxPifE+J8T4nxPifE+J8T4nxPifE+J8T4nxPifE+J8T4nxPifE+J8T4nxPifE+J8T4nxPifE+J8T4nxPifE+J8T4nxPifE+J8T4nxPifE+J8T4nxPifE+J8T4nxPifE+J8T4nxPifE+J8T4nxPifE+J8T4nxPifE+J8T4nxPifE+J8T4nxPifE+J8T4nxPifE+J8T4nxPifE+JfrIiBZ3nXk8xu868nmN3nXk8xu868nmN3nXk8xu868nmN3nXk8xu868nmN3nXk8xu868nmN3nXk8xu868nmN3nXk8xvbqim0tGZowFXqm1Mp4SslJCJ7zkmFLGT8fY1Rai1FqLUWotRVW+ipNqbU2ptTam1NqbU2ptTam1NqbU2ptS3B+GEakSgjDxPifE+J8T4nxPifE+J8T4nxPifE+Jfbt6poeKe6JICQEgJASAkBICQEgJASAkBICQEgJAR3mW1MlGQazlVNybk3JuTcm5Nya4aF24vjMd66izHeuosx3rqLMd66izHeuosx3rqLMd3aMqSigf9NjbDt2eBdGGMMYYwxhjDGGNoT4eJ8T4nxPifCSnQODMmmRIFcWPHuQ7J/NjDxPifE+J8T4nzQDVAzGGMMYYwxd0bHgZAmQGenJqHGLSzW9YnZOydk7J2TsnZPZUN+2Tcm5Nybk3BFjbK2TXUZE8bpdN5ufE+J8T4nxPifFBVioh4nxPifE+J6N1RUzFwmL0q+hW3hnYk3Q87J2TsnZOydk7J7Khv2ybk3JuTcm4IkcVeOmvgKJrEGzOAxlMwz4nxPifE+J8T4s3cgZjDGGMMYYwoJ52N3vI8NDM6CwOtOR8G3jnE+Jc068U8XQsbvOvJ5jd515PMbvOvJ5jd515PPA5VgVl0LG7zryeY3edeTzG7fiG5xksn0wKyrIc5mHLovTiXokHCkhwEgIJk+TxmMMYYwxiX2O7iZtNptNpq6QNxn6Fx6i1d5OiZrvFdSNKyUxhN7t6+CZhGGMMYYwo5iJ8T4nxPifCCByGuRYUwdiaBpIN9zsEkfjY+J0hGofj+Ja4AE4nxPifFjeJuTcm5NyPVlH+lhRB3Msu+cYKYQAqwJVsYeJfJyj3+ydk7J2T1f8T4nxPifCE/L+9rYo884OSGj4IU04KhPQyUbUBICO/7dMIydJtTam1NqnkdEDMYYwxdfnjmG1FZRFf+qBLziuWOiw7RQ5MM+JekP4iBi6l0FmeF2tScqwKy6Fjd515PMbvOvJ5jd515PMbvOvJ5hJVi9baIJfTMa/OXdRNuaoT3NAi6BmMJwxLAn2TBCtQ3LU5d+Wq9I05NyMizDPYgmrPi1WFBQZaGprqMu1PfjlEPpGL4nZOkh8pwTa6LrleRdBWm5N6zEDGGMMYYwxhhlM785htPIgYUWxpqOuiSulRDxPPgA4kZ5+o4Qc4nxabICQEgJASAkBB1kDsgbnUBDM5F5GlgqBNqa8TOJXjOkV8MLdGfFBjOkpjDGGMMYYu63lAve0Soo9jdxwzV8qSZvo026MKDdH8MRA5/pqcX6THxGoglzjam1NqbU2ptMl6cKlxYGYGj6C+Kkn4CHifCGPHxBGOcblufE+bGqF2TsnZOydkxWqdNAXzVG/WVHxqL8hosaiBV/ogFR2yPJsjL7yZ5HryeY3edeTzG+1dywKy6Fjd515PMbvOvJ5jd51VlpAQCIzRxq6DgKuxF66r4UXeLbJuAeIvKgSBiMgJAXnRDBwzGQMZAxj9GjaW7pspf/HNAac1IOcc5wElAOTCsnZMBCLFwMxhjDGJfJASAkBICCHWlbFzplYo7dX74YEjuiNGopxhjCcR4QSPbJuTcm5PAwaiBmMMYToAA1GFdS30fvwUP2/YQo2tlJw18MRY1ECqXmDzwMxhjDGJfJASAkBICCkO/wbu+pz6p0eJdtx0TntCcgSqF2TAFqztujDGGMM5buSmMMYYus0bztW93qoFRpbLExCkzw7VC7JgDjFFpaoGYwxhjYJkgJASAjxbuqgK1fxNSyjsQcr/KhZ6oFbBvS5Im5NSTBrcJOdD15PMbvOvJ5jd515PMbvOsOT0PM2SF7hdrUnKsCsuc/HoBhz7pPNiGXZztcMQAKhJHiFEPrM3DzsnZZ7Oydk7J2wT4w8KLgHySy/2K1HKyQgj12y5rYotxpmqfKqBEYqMc48T4nxPifE+J8WmyAj/xViggXRddd68TsaPHJzsMVCv3GRNUsJnMXAKmrxnZOkEljyrArLoWHYpteCwNBjOkphZxebETcATp1FGYhqAErdLSmOk18WPOamp1UQMwuViG7orRSAd3jJvuAk0UsYYWd5S7Fwm+ce4T6X04sYDsx2m3QpEO8l8T4l/EloRXPhLNCpM/SLqBmfeNk3AHVgIPtTXnUnf2gDS3dgRUUEIhpt0KHReZAz4nnvvhv2yPQBPlnxabICP/AtWdt0Lav/y9IlCNNQOY4TVySgkF+51AzF1mx9GHU2l5turY4jUfbmptLwy7gePE9AEIWkVSmCWaSRHDj1luZr0QKjJtHTLE+J8IUVFSvGdJOcBudk9vtdGE3+k04uGFzuv/Gbps/LUnGXn7df2OlZKYUgMNANzfUjPiXs2esTsUeDjlRNYbGoQO8dYwz4209cVdw2GUdxov/gTmoAediwRJe/CEdUOsS8y7+x3iKIwwpjz7KRHNRAycGpGezNRAzJpqrmCbmSPqhLJHbnX4hm4ZW7xX3bsGuv/F/ffHeZtS3Q6GgKJLXuCbqQYuQlXgoL+BjCY+fBBOydiucoQSF2TsnhIHcWM5jLjNxPfcgyes+J8IFk26GQnYxQPX76ZksKUIBAR/09HbtIJKgZhZyYlbXJTGGMKwhymYI1EDJwXL/EH2NaEU63sBXKkA4nEuNdzgTxpt0YTc8j+8CSbifE+J8WHbowxhjCcuURSyCEFuZPaIfL49M+BmFIRP+G3iCNQ/BhZa9m9L9H3HOrCMMYYbCAEA8T4nnqqEf/+r4huZYzEpZjOoiU0JMs+JfAOWv8u1sjc3JuTn4P4POGAfvKltIroe//MBt0YZwCcT0rGc8Jkv5TPw/e+esN/jULj2NXKRk60abdGEyc7Y0MwnZOydlHcdKQUNAFfHRrYIBhiL+NWDTMudOE/9scuk+HB6nLZYtTF4T5OzREedA92fyptTXTIwj+eYRhjDGGMapxRYg+m/jJenbTRWq0gGogce6e8XNGR4vlGgJ3MXYmMMYXGGkeZ5v0GAiwM859JH+C3ZOydk7J2T6tpL1Q+r5oOoVxrxoOvrPifE+JiAIckVBV2TzPQhEkBH/YBFgZ8T4nxPifFB5mjPifE+J8TEoEW6c6J019oFa3RhhR1j8P1ICQEgJASAkBIKXUeJ8T4nxMOE5p/+kvEnmPdr9KK4b06j5qbU2lnnMOAsWKWMMYYwxhjDGGfsPOydk6i2Mff77GjfD//I4ChSZlxecPyTam0stsIlTNRAzGGMMYYwxt8SbGHRjmQtD9fgr9XTWz6hcHhCAjuc5r2n2ybkcR2afJIQe/2TsnZOydk7K4oEt0rDhdxp5jc1dP4vWGoRQm5NyQX+QtIHF9qk+J8I+MB6r5Hec8n/FzPVqNwsKlv4w8T4nxPigup0G1s+5OP/6obtIxV8kwIwxhhqX0g4jWzJf/bNJ3jN/RVPDGGMMNKGGfvq8nKfN7Jd42sCB4FO/ZyabGHifEx60YvG6CJpsYeJ6MOwEg1q/DC1SDpNSwbdqBmMMYYwxd+/zVJz/HkzcIzKH3iX9XwCybpnGM1clMYYwxhjDF3AM3f9O/myoSMK2xUbc7UTifE+J8T4nxPiek/bxmK0xPFtuUMjGUuYgNjD6YT4nxPiellBO57+f90c9seuF6CZWGGMMYYwxhjDGGMMYUTwKGGluYzHFkaM0LpZ8xqKQYTNXJSokbHTvFyLl9K7/OuGAg1JTGGMMYYwxhjDGGMMYYwxhho2NGItsbXFeja4J4Rncs5ZyIaDiy3wj9AK0ZSGjJq0XMUzCfAzGGMMYYwxdAAD+/tywAAAAAAAAAAAAAAAAAAAAAAAAAAAAAAAAAAAAAAAAAAAAGq8O2/d5XgqrxvVG7f6cdrwIs2tuB8oUo7k9dTovTRemi9NF6aL00XpovTRemi9NF6aL00XpovTRemi9NF6aL00XpovTRemi9NF6aL00XpovTRyvaxbUaWcuhCJgAAAAAAAAAAAe64YL9n8Mr7Kr3TTyUWNuVXmD72hUJsDYDxrfYHIQiAAAOrw/uS2eM7qZYEBZAcDcm9HIvqXmr9u95DdnZrph0ox6FnWaw59OcZDLWPvb25oAX40P6YIoLuKaJJBP3RAYksKcb1cbhAABabiFXxKixrfoiAh2hJrG7APBWAIroNqysQFcEbnWefYXMlpMsIDPtioMOA+JQKMZtAGYEAXs7bXhOBAyOA5i7/YQfdA9xQAAoKVqzoPvhFfYR6hsaT8Q+KAKu+G/eePAH2jMiRcW3+PjTXjiWlkT7oTzd8Z0eYidqt//gH7OR3rBQtbs/rS7OBxJDVOeJuUBm1DBLvoAxKyfKoQiqMlrTyBJ/MC5NrwoNd3KJquI851wCPKL3sR5zrgEeUXvYjznXAI8ovexHnOuAR5Re9iPOdcAjyi97Eec64BHecNsYUNL4QV0/tsAkrJt+leuRRy/233zXITHb19hVCS1G7gFUFYrmY2saEFmEH5dnMnxxI11UM7IT3eiBEoZYNC+71/c51VtzXcMhSgQOYFOupVS2FnvOpyXkjobY2zqtD4s16Wpt0CLIh34LJ3YFxS1r0bXkAAAAAAByZ4ZgPGzKtGsEy3Pqs7IvIxlPhOXuVqozN71C3/A24iUzHtOL33mrjpDEfbCl8AAnTVo2ZYt7EJ90+Vjx7ch/OlDLQg4vK0g6FQATS9Gw1Pk3TieVxDIW4/Ut4VnOqhfOVA81SDBp0WgRFOez3kLxgh1uPsluqsqXG8DyzSRxU3GvwxEajDqShSkx+/uSNOIR77OAPeTJw5/+/tYSHj3Y6eweuCZXe6jzsPbJOXx4wzYTjzRrwE22BHD7wwGBIzy3qjN4gYDrVsjHR5vaS35s41l4gSAUxj4f6WhpL18BqoTBSE7EnlqMEsbDctKzLbor0+uYgZXXQVLQx4zwyWLr/OHCAqkWLsBocBQllwlfYABLjtvgANiQMWlmIUCCsu/VCUwuRIeicq1V6FP9DR5QmFODSaVcrSbk6kYJxrh9AGaPYr2bz8Ir69bwtwRruW9swyEFAFLbNKM3EOPzeRtBiF8K5Fnqpsk26ggO+4hADL5A0usefa2O5ARWfRYH4lTa3wG8MG5cyFI7fo5ztZS3atFoil4HHnDGj7Yztr+oEW3Gn90IekoOIjQO5WM2kA9pGCnwyKNQth5CK26pQE1d9v9VD4TE/YEzgBu8nU+udpzArdP43GiV5fvXTYXYrNR97ABB9sd8GMWNIdVrL2TsFrP1WTGv71yaXfJZWJrUdMouFZn7mnBWK0BmR+m1uEFllmGSg3MGHI5J2/TpymmNdI1Hk44Uooe95mFkjoiJK1a/mXfuZcyU4Cj8PpxE/5DkKf7uxIbbA9sIIsmfqiTqH7OuhOhHw0KwPUE3jvDI6f1XVy1vctb3LW9y1vcvw5XuAwV8I6g/QHtR/1CXegQGDUyIe21VmOAqW8GyaqekaTjNEPSNgB3NVPSLyGsrXuAR3TA9UxsOHBaALG/Jdqi8tykza8U9r5dHozd9CPIZiG78oCN0Ma92GaHU6T2zC8qDfycGloL82sB8nDPhO1AGsbO/2gbQWOTV4v3I7aIUl+mpYCT2BnUSJwFghy3vgCXAXIbLyhVvHp8AlhcLhYIiuvDOyWGJNaisoidG2CqNPP4GorVwBhVfRx+giBybkC+Rl/QpoqwmogiMIPiz0Y3152LsX4pgABd+nrDcirITPt86Wm6G9wTXVbX6IOA6REoRRiGk4RA9Y+k0Xtj7anXVuYFTQufH321xa2fZZJ0C7FMenZaN5Gk+Et0hliHfY+p5//VFTeN4s43Bs6zX3CZsM+CO3U7/sGwECG2+Xve0tBnldnKmx2W8DEHqag3WqHP4d6D28ojjmsygQvcX2ABADiu1yLTgzcDNmHDfx4AeMDUHynNwAP1lmiWWeUDZwpeKsqoOBtHr/3SlJOO+hBcK4mGRJ+8VoEY/1kXJ+1z0yq/lneskPWeZZHA5woQ3HDaL6R38NS3xv0kA6VSw21jEkPiVlbXdS54Npl5+VJDyFvGQuxExYhZpE6GZRIXlrq6ALnjag4HXdPVy8oBb5rZrF7uTRBCI6ihpUsvHhcIs2xSmP0c1AiAq4J9eB0hMtauSiKhUbV277nP8mROpoU3otnLwvTW9LobnL6NtOPuN4I6+75c5qMDKzI8iQsgtde0F7wRaCc2u/7wsQpN/ECXR1b6oCbgxHAcZav4ADncYvTzj4N11cZOr6WxmDycCRchbyzZSZbHXAe7fKU5uAIdt7irQUP5wdf16lwHkpwaR8eVn39Mr7+qcPZIMiLDVp6+jmqFI+7fRWLb1D3UVfbMfiWvdffch8U6ToUDrL5mbBSluFG8Ke5eipZLGcpOMzvWitZGaURU4e57yOyYiAjPKI2WBU1y+uNAE3Hirwfw/0YRkgMr4J0an79aJedY8dnklAszGKT+pUZbZbzzXPtKh8CGixcD8+TegAgW6jF4jiydM6K8dviDDsUnKDzFY1OWZKMVfijNGLWrwouPtsjKrkX34cFhT6BDqn+T3Kd3ttdhmg6phpZFOeZNWwtV7DePzV4hbiP3x4MxikW8A4+PP5Mo4dBb7l7fS6F/7Z6YFhU9vORDY7arL0WlfZHogejRzkB0iDCOJf1BPen3/9u8C//P7BuXVe/d9sh4cmLqr4ZQsidIfRpzv8TqAoY0RTvKk5NfqTSaTSaTSaTSaTSaTSaopt9j4G+s2GWGUhoeRDewH+F8BW0HaKOoioVkmJONyqN8WYssMJqbOCU1v6UHQj38bfGxi/keWUgk7vRG8fvN+UOaG5cJ9sYXZ7QsGnLvm9Y6lb6T1Tc8o96evyVgsa5BeZislZLsGBvkDD09bA0D0kG5gTdrV/GiRFg/+RTlQCTFvIPTWdvUvk/zTPyw5iE5noTudZYftw3PdkH1sWKYmhy6nAGFTS6kf/T4kav6OmbB2zRKdmiU7NEvfPXga0Mp3FVzG+8wXhWL8ugAAGVOC7p0bac/+bU8jgFT4AOIDuUdYRhkx4/FIhbCt1PKYKRlIcilW7S9tcIJ4pZ6y/3WfPESfKoWWBupFq/TRnEIkii3YyjfsTY1sQ/yzwf2AsdC9aUl7i3nlKrN/wVFDl57TTIfy3gzo/QY8oncKQErYFDmfoyAFy+5Lhk6dX/za/c85p1SaC8VceonHJAfFomARfoXstCMth/FzYk577KyWRlw4vUzTNKi1zijUsyv7U78kbAWfpK+YLYBL0DTOiMqJQ4a0cr1NOfHL36wAengvF8HBLeD8+/V0nXPJtjiLMzlF+L3/qo+mjWCOJwkIM5/O3DeyWWG/mvGri3aDBsH91TcCNDMOBajN9HE1T+hhJoSOyIxKMsLYMdcA8eTrlqLd4nXPCe5oJynkd2krxVr7EOpLszLByp43u/XEYmGMmvquNgxs+CSYHfNQ4OAkyVLlWQmmTe52kRbbLPZ6vQRD0wcgQtBpkxrrnifq69rbo+mMr4wJP14VJTOvFSjVqig6EXyTAabcXle+yuCwEdgEbYhWeSgU5tzTz8GV0HGQf42IuEF4P3AqKE/c7KsG72nF8wOOxcRSDkdSz78PtHlKRsneWqijUZKuSYjC0YgcBUMTTL6wokcSbv+rimrofL/fzo3QCqZ6K0RweS62+6Czc5zeDR8CyA2MwCWhg8hYhQ4mURcA4SJZjYnad6mgfoqcGcnBUVu/Dw5yuL+RBIjelXIJE+/JfK3QWfgri4ip4IUSl5GwjR0RL5hL5A2pAFYRhz34FoEu2JqBCpcmgb9k0CWg8eE0dxUjb+i/hLz2hOQ43xJ2RcKnS4pWmjq3uBhLrTagcwitd01Ss6U11kFVWrWXw5gGhUHx37tvXdlHjrnkq931hX9cBgVlRtX47f+AHKhs9CStU8JkZjfHiu9QbHq+6qyRgY8J066c/c+NXsqqsle2SDh6RWD+AwGC9KmQVZVJOl4+Kc9ErdwIpNJ/N5tL+PL3VZhwNd6g6PdfhVFKk7AL1WTxA5QPt0bpb5MEeZLOMsX7t8OmEAD09iTtMB43hiFnFXUvw+XIxWMnCuCungUYIIvgg4zlKQCCk3lEt17W2Q/TM5wHXQBYRAC5g9/UFpgy00u6iVb7cfus8rHbrPKqZwaM7nOSfemljKgXJPRx9MVOB0s0g9OsfbTg9AlfUDE8hWUPFLrjtDVFFUT1r1XPEztdc9HFd3Igx3aqSP0+JWAnP+kiA0+TKrLrAKxZBscyJzPS/2ujDJQIUYnImWaa9i5yZIrlcG8hSbhtPbZ0BZ8j0XNYvEpRffuos0yBlOVFax6spuCYVhz6r6x78gj3KnigIALsDCKVrW7Gw4p7yOuvRudhJ93+mraHnAmy0sKH2PWRU9B8shoWQz6TFW6KHIpvFiyKSkNowlnP7RaPbHvJ9vwDdTJRmm6UNPsH3OE0Yf0k1es5wesfzHkJAMa/jtM0l6POdcwyxEeFBXZ3gEQsLYfrs7iEG5tCEsA46/Fs0GwaXLnn+tbQHMhYRA5Q4QlX30O7yn6WpUEDYVJachMQwAjnFJad0wmOHKaebzA9b1JbxOmSP0yLyfi1xSFCZx4mdabKItteGvkkBrq4kw0iY69YbhUfPABkD+ESLgIISdSqMm9bfV38So93e+U8TZ8hnQxhfWZdA3YBW2sk1+BPIRqB1/Lcqy1h2y0q+zAh246xh5TkhnOVqhDyGWp6/IonX82f7w1aAPCdz1Hb/m+AViGEHUbqVCbudsOT2VPjL/nCJk/N+v1Zhjhon28KE9N2VeBqd5oLWq8JDDp5J7DhZoabuxU+rWTEtevVwLaHgT5U4464bHV8BbjGqtPB2Gf7JGj6ota6IDPUZJa5IzFG12YLxoO1Y+gq75dPwM3zfzJySXh1xIT67HhkKBU9lmltglgBJ9pZI+N1Nx9RT2XNdZicleYY5ohV9JaI9T8sFezcZKKTj1Pq5kYANj3yg9tF8LLzE9YYahuRnlzdwTRfos+jgGtjtt2P0cYTntZYLFo1CfmaNMSsMigFVwwsvtpz7r9SQZ8eo+R549cy9xhjh3ymjckU9KLjI8UPc4Vgkv9shl7oltTDfYUOPlQJgAvP4IrdNACy9I9mxtH+8Ev5OA2Lc6ZEg4vdyzlqJzAiknrGyvhTD/w2UpXOzkUoqhN1bwjMQV1aGCGKWtNdSMc8seOR6lPfYxbqoP3Gwo5a6aVlkfrQqIGi0HdLd7XRko/yrICe25Eka+dhjyKl9awXwxbRbLMSEc7sHysHROQAU0EwN9TzoaQLh1R2ZVM7bLIzIx9hApOScDFatu1IiUXV/v3QYcX8l1OL3J6qvLaH0tpg+IP9YQ3ekfISKUp6+3fQX2MLgHHqI5IkPQz7XxnvOQ5FM/Uk5pLzS/X4mVz7Ok5Dz+mP74bjCEyptE6Dmy8Y5Nr22FuXyM01rvqadudcQMH8coGVNtbH9tXTso/rY/tq6dlH9bH9tXTso/rY/tq6b+vX/6nIdVJqlsLIa/9V70HspYclOiinRRTmY7qkTn1WbVZwoiyhOXthTz9IVdSbVe8uTIlBSUJvSDO0dyRONIt6RIJQpjOhvLMWWGEy3OzcPARSDzNLQBrQz/2O7PSVjIPHj4vGWmvyc10dTfw/1PJum3jJj337auHL+il9H5uAPalLMdpnEmtAJTf8AmpMxHr578BvGiDen/JV2g6ABs373qSgB2Gyt1pLGjscVXKIFFIGt0RtwTC6ZwFRw2+ePSpfTJz+1X256PzX7L/R7wYDppdKatY3J4cLZXkAU5pM//3s57dRtHyHbWFSv3CiZJ1H2/i1BiJUIkFhwRbPR7kNHdjXA+T1CA4Ax+7D5nVPgVVPLSnJmCYWJhMDt7USr0e0cSai4yPkmC5ragZwrrWv/uAgSumbYqKkb6r8R854CC3+XoArXeD6r01HEfu3UT6Hq6Y7+dvvV/1Ks4GwN/hh/xbfeFae6xJsTdvegMKVdjsugsxRxW6lD/6dnJNzFuzsyXdoPeuWaU8B3aVfPSzVeJqdfNEy+wjnpY3J1DesZ1/a88z9Ih4SeMzahBc/YZc6tY2F23XFdOVvw6/RJYqSXSw07Y1xPvtMwQq/c8gcI2Qb0G9tUrpY+w998unLNIPcP1eyDxj793N8c7cm2rBf/hZfhT5vDbhHFodJK29vVabgztVE8uhm7q8E/7M+ROKNUofggPIHqFguZ7JWEQGJkkajkh9qeHJtkfKLazJLmWsEvZYuexlwogmeKteVBp8paZAyHYll1C5fux2emN8T9YtBQgMEPgJ8jWeyC8LKF/CeKA4+4J73bwBqdHSOOfruwlHL56cB8sCypirG0TBFY0qDFB8ordrRuMxZPUUr/5vbN1FNX0Wnv3nvyItqkVImsd41hv8mYtSkjnKCibZLnh7ODSniAa/kMPAj1DqjJQ+5Fcqr+3762ZTv3mbt2LOHgVBqsn4WWh5PWEJynwnFIt62wmfwrz0TuTpdypobRcBNULIVlWo4sho+m9aIjWflbsvd1F9r2QAN7XxK8X4pv33xWxRd6/TxEf4RjTQZPlp5fpsZXZI8zfYHnvGBh7ekk+rz9IssLYfZhml81eE7g2q5SFNHuLDV88C/2TP7Ud4TR2rTPWD4kijKwFdq5zmMnwQDEgoylm1/xA4mzVCTQ2z8C0hv7QaQSAm0p5xP+Gz/Ayu30SNhqQPjfNVZkpVoXIE/0R0I8EJOJbHUMFrqs5J7dstk5HG8V29ONUlGd0I0I7pOtx/YdyTJdiWoFbjsx8ELl+9Mv/R8SGUclrucPnVKevk9xB3pzNR+i9Z6w0oBl8nrfzdl6QlIxyVpbss0qdHZO4MUiX+cSAP4Vf3+tzh51K+DPwZq5LbYGR+PYXByL1a8k8pXl0GhTrkjGuauvwu2oX4nyzwMk0Jkic0RzY1KqWZehDR5FllZa7n64C4/5iTGTVwayiqAz0EaW9MFQ4tK3XxLbRabxSGmr91zoAicP+9T6TqaARXvPhPdCPMNA8rIl23/X8SCoZO0fxcjFs7Jd4bMhZV7UfaclnArl14pf6SJLlwc9xYygi6bm6RnsIIFophab7yK0Mt+5bRIk/DWkD3y5ubVjrciUKxHVBDuUABqPp6ILxU7jnFiLSSpDYmI1iLjU6pxcAGveRRy4RNo/T5muZrnGShss/bCCyT/hOUZuczZgYJd3VM/Rs2xT1ZTlNaczSByrdISg/+TvlwqRJytxp+Ka5Eq+N0QM9hC2zfH1BVH90mB7UQvZ8My9j0IqgO7KhDffDldou3HKSFKAkNavwGLZ3WJ3LC3MgCAiznOZ6DwjRMNoNwbOWugANWXDv3BIMc/yf1Imm+Le5gf+nOwFJOG2WzYk3H3cUXyICSMUN8xxwmiHDXq22gjxnqr10uTcRGwGiLRGBwBrIp/76SQ1Fgw0r0Yodxh8ctGrL+uJnzD5bS8yPab5MvGRQ4d4pGNcWs6mNRroJtaBFAAPNvsRW6ed1I1Oevh+IEJR5imnYHzy09VbgaF5YXjxvPlFDoXqQn8/5NZjViYtUSfKzRQ0dLkk07mBSPnn/4I6lN0Va+QdvHqvn1kLIcUFz1BrtlDWkQaOJnR1JmAf0u5smn3/eMh7QMyEszWwYI0KZVvtrbG5SWy1pvObVU+WeebyQmYc/X5fLuyaFEFB5F4CqyTBZC6Eft8pTH5r7IBk9Nrm75JbKTatCrgj444mQGhYBGtKKPYJgRxGCq/gAoZAgACm39PflAODcr7gkM0LN22HRCMNhJ2lnp4h8SCcYlfZ+PbTGYTcdgma+XzejjcgjpKlPLsu+ps/hSRBC3RSepqYfBkeuZMY6G7pBRr8SdIFQAZi07q5ZmcK3a7XLvLn4e/c0Dj9q1zA1yxP9QZzWHAGeCU6/mlkANH6nAbzwdzku79QbLUIrHQaR+RYfy1L8tyqyL449ozUq9wiEOZ/zzgipyu9DX2dMeZKzbrPGYAL9O8NeTKLDzIKc0xTHTVWVtE2pRU/3E84JfkfPL3QEGA6+M+0SIIOehhZWRBrTxlroPIfZWBMp2lB7r6oF4dcl0TV3rbRlnQGkmSBl12/Wnq8ycP7Z5LpILuQK+7SdmJjzJbvNmA16SYnqhEwhAv6QFmek3jfUxb4zEaPJMrl3RPE6rOUGdQRcW0drIzB563aTE4j3Zn5NtQ0oU7JSoIMAC4Upj819knwQLSYReBUJnXLHgULggnz5AFXQ+/3wJ2zqXqebJD7GHEYpfdXi46eBJWF3qLwS1aQnUDVf0m0gNUuLwtlMDF1gUyWcXSzYo4bu/xGFUpZeRj5z/dp+9IKRYZk+65qRIeMSKb22iPxXqWMLpeupeBpw49D0woQvuATYgA5+aVjottdaSfkZVjk6RqPLBma0z1D22LrlRUXj/cQh1Y/KwI5VF9krkjjuk6M3C37sWOJYpPyb5Ih1mwWFBFFX9nx6L9Gh/zd8U7Cl33piJbU/LboEqVHq8DfKL34xk6qGvoJwIQGXsRDqIWkqeH/gLh88Fwt0znmlhQII7ce5Gdd0CyMoofFs8xcoadWNQ57pPv0ryO/mUkauUAbCFyVoYHY7zHgJ4gK47dz1myDEnWLbSNMxDiYBy0dG1jhe2hF5WaVuEGS8LyU3sl2fTwcB8SaU/0mTGfJwy6bJIoxsVWYtGhyNYGVvZIkZaN7IbH2N4vKOdc4aJtyMUSDMIz/6a3duXekYyBpP1NPt1mgT7uSXZu8Df0OhlzYn58b8azvy2xwTTgBCQLvpOzH6BMCxk2gf+BBfQM4V9Vo0AVtnX/VFDnvRVxnELruxacJMbM6WJSc5H6JhC2QzbGDGgXG8Kd/dJ8RCs3Z44pc2owNyvaW5GwFn7vDkgJ0NqmfCsYZPQFZJT6AYoUsTp2CKYA8fhQ0DONWPmsU4ud4kWor4MrsJnKYNmxyq0FaRXaFtdIjZ+BOinF5vLAGkJ12R1oEVyGj7Dxu39Se6z9G0X8wxLbfnQcRt4ICQFR0PUhwfGR7XDoZYDUMAKw74LzBbfWEEb5/l1e3lCnWgVL/p97Uy1SVO4DVRUA3WgU/A31zIOgTWeR7GDTJ6ASRKJUgUDigAeit3LOWonMDfvkmKdAv2KzQYKY7j8twpO60+ZUu0hficTDM5KoS9QGE1KjGK6DzvgngI6Lha5JXs+l0rFciRiNmktXpQA8MLDMk1YauQBjlvRqvuGtYuc43CBCn4as1l96RcMCydyk5qkXh5zbWc0fqAHIHU4R0zDPobvnn+DCPSyW12sTZKFJkbC7BVotKnI+nLYDZtX5T7IuMFJDblGFSYIOcbBIFyl38kg0wfVGo6g4HWfA9OZMhNCAcXI+pKG3kUW4+iAa5t9p1Sk41LZaxGX99OMfoPvbxj2oRuLYRh1vWUxlx1XQULaEJP5mcrRR2KQcWDVrr4D0ZDhXgGvk6ClxdK2fc4hGFMqDBUtG3ek8Fc9tB8xZYkx4dj8uSBMoNOnzTvdnIWVr/hD/iolzVEVpK5OmAD5h2uVSm7hSyn2rZZzlLM4z/9Q1eRVfKzPibiyQ49fUA1+lIQhkplRFvaz8Tz84EJQ4ExSr1ZFI0I55Tl38jSZFLfU82noS6yfqaIvcI3rD4ablUzIRmjzIIQ1fqlfwmv1Ve03SpiqEMsjCkbaLfCHyIA2FADp+YxMp0SVpHJEkDevCXHgZkOLxUoCk1Xlbg3EqJdMBH7i4gPPWYRd0Z3FYwoyADfpVCM8gm6yyG40fpktmM4tUnEI99n8pjfPavQmRoDgHmwtieDD4IjVi8HtG0aahYsGk633qQRUONbQIrqEwHY/weQ6wHpq6ShyHiKlTox9Epic18XH+TWZpSuA466gN/LFfO70xCXLwx0FmRtsgUvuawLn0tMzCKckvZB08n7ep+ga6ghXQ+ik1LdZ3ZeMo6jzDEo/6jKcKT3CzRMlsf9o7BuU1Acew1ZxE8gfD1WQUnDm5M3XEoGCwFkM9cq3sa40XKD4+SvVMlemSTI+WuOTmxfwWvRcFTQDPNJkJPoa+aMYMxWT5gBut50jVC/E7rY6L6/s2vgvskrrwOjKQFo0kwtWXORhmG7nzXD/c+dlez2AQW7FSKomigGKGxU3HLao0VPtclBbi0jfYXazfPWxrIzeFZdQiSYJD4GCI5IIpaAARrj7WnRvlcr0t7GBQWesaZUzZAphpdqpOt0X4qaZpYULKkXITWHgGXMy9ctrqUZYJ2DVAoLhi03brRhtoeQKZCMEiyOJDRiyPWurob0KgaX/SKqaQP88n5E6wdtuj1R992BC1hd9KPcrA7RSJYXV37gSYPc7U4fLt0czzNplRh/AiNcNjYn9g/GZDrDSpSgpoGzrqmwaHdJeR8EMF2pipiG406fEoLvFkwhc2ak2aDH23HpzMrV6pTkKRlZda6L8r53em1HHiwJKv9RYAzcAD2X7OPxKKrqS9CV33tAeU20k9f0Ukgj66STQPgQAZeYnujlJLCp3iyOpM2o0K0GBvDHPr7208bJX+uZq/00vTxptpkCrJF578+x6LUx13A9hcdXeA9g2ec+/pKXZXfUikWGg6+YcdLKS4eQ8vFe6dXe5RSI3r6Vh/PhFuZ/LDJmSH0x+v6p3YzMS6DuiVdIXFRzLic/6jDlxbQABopXxrQ6ijn6cDsuhGg50IfZA9hARhqGD8dqzvyAfYC3D6uwWZwVMMOOI7NwCy7vYd3S7YRIscQQBKlgKPRrk+MqIBrQIOwyiC9ZM4w0eL+9O2gBZ5LuUbLaBcnFSzNOoSLsQXdoogAcascWH6fS0c5QAeUizVJezsDRspy235XVJpykICKUapR0y0+Ogn00JogMisGMYHOWJFfGq4uT+EeEMsy8/+uGl6mXmgn8GWHPx9y1Yt+PbKDkM3y/l8Ok9m2Nr0EdG3xN8kfMw/XMQ9lY1BKIsNJ4M7hgoc5CkR9fKgsCi9O75P0w8ZFtUbMXOreb+XMtEUfJ10OuVltaZvq+zPbPFGKUk8PjvvtAbr8uQ+F2dCWOqFVBDP92RnhCEoVeZkB8LUSvIEniAlB/CcZ+Byv4DWWN6udUo6lNGrVimppks6DxmZ65z4fHxDxSoM7YW56CHcTDI272vxYu/1GP8joVjGZmHqDU63/d9pPNAx6jb50HOzuMlzqgp6qIxX3dAxTvqtbCuuUP7QAaXWqj4VPipFWNq4xsCvT0O0722XH6vCaEFLUrZxCk+xUtHhKnQ4b5BnOWJYr3q/5SMDIJsili230lq0kwbqWexNqOs+/Ovj04rfTsYMRf+IAAtVmv0TaqU2gr9eNbw0bHHlOvAwSbjfnFfMzTZ0VEw/FzoptvcAISPmmClUSzHJSZuUgELeIOZ/kWQpL0ZCeWqaCZZM6/V9ORE5PhG4OQAT6kXxES/wPOWa88A4vdaKKC+pIG3CfwZK1eqP1MYXqpNRpMcO7PDY/YYbTav4iuoRKEIuW/1xafU1ELKkt3Ca9GimT7kq7leY95SyzvNuFf4CDWctBF1HLl63WU4RXvBbLznUI0ExWwEtrB/AvpoVgGyDTnIYkDqiI/0QdRw5tmnqG+B4ixG3IruZ+jAi9tawFuORaXMsc3MmjuSV1AliErenrK0x22CuoElfjAufVM9FVbuQjeFPj/BA+qhS9N/QO5hWhw8s6YWPo/SsEvSB+HtnNkwiPIKCVpxmwO9j5xr5WjS/ge4XFmovDBNwmGSmquTIolGzEiVcAnlWjX+vcAJDT6yxEltRLfJ2Y8x1N5PQfnoyleK6CyGvARS5lL3JxeIAvG5okWX8Cg6kxPhKx4mX4AtrrYWbbEnoWDUH360AUw+PL4GVaF4Ca3S3RsrEsl2Nr9eVsp/5AqEBkPqHF3WSBC9p7kvmzUGR8UjE+Z6g43Mf3QFBuo1n70JpfsTttgrhjVJJG3oYQKLMBSaOwQqFm0XbE/BTb+3i9IV7AYDSEEB8MqtHkkivYjraC6GRY+R/cPLQGiw8kj9aJMQBpSAUgKgGafKGIfz5klgR/yRxxQxN3lySli9Ejt4wYRIKeM2a5G0Rq2G0P5dtH+OKafOWsRYUMdOcT/0+EeAA6hwUTxkxyj2FiqwiYCfO6o2MX48uBTa7ZA7xGTmi43s/uX8nDoyyNOkbJ4OCXe0tNYRwwsR7bPSm/GmiVZO25lhJ2+601hAdCE8w/3LZrtJc9CvluQHo4TfIuVPPIxASsc/QdHenSTWZ5w5xs5XjwpG0rBl4N4yU6kMLAYi9O0wZbE7W1cK6b14gtdwX1O9ZFfQQM1uxA2OtzelUz1sfIdXx6qGx8DuusLHdPLn3FVYdbmIh+iLDb24gKBP86iampBgnXML+uJQwDl4pVuW50c8QFWt21cXYaEakQyiM5imRg0r7FqlY18FKpKTWbDHIfnA0SQW+QkVt80K3xC5Iudiv8JRvL6P/7r7N7OaBdaValGpjXCjG+AySH9apzoq492/epH113i+4OgCD07pBRz/FVQ4V517VbeUwW+mADPgSEMkxPiP0vnBtNQlBcVzCWkC0XmqUTyNJ+PhlwQzw004Xm2g3OtscOQAQoCEWgtG3y5XrNtkF9HYtZNxbUuzSpk3gKHjcS55TYFLwpyFw17OOunTBieyODLJnj45h4OX7o8kAqSZZ8EjZiY7KzRe7+vkB8A9lFJg3ZkR2pmfFjDs678X3xiV9rmy+KgM7YU9e/fqaLLTm0b+SE7JSjnqiggCf0PV53ZfM3s1x29nFDhoNDMMkfDvbf6a7w9A8fCe/kNEmL2nOeaRsbj9LwWWvXUVFbErB3g5jJPQuf7C/Kr3m0jI6MlxQMSgt9KJLpQQ+WD8dqzfHAABapNQnsGXpiZtUtJWxDTwVDRAYPmBQkT65SlT8ZUNHapLSY1+Z8EcYcysH1Xc6FKK9RT6x65+VOs5qgM76asgq61911D54uWXiul+mW6m6azGls2seDjMtmchexIi17xqD6Ng1LisQZd+0DWkM2tBjajQha9zfoYaKJGMa1wQNDIWCV+oMidrmXrdA1L9am0Q08ilCu5UlPW0cLK4ElQWeGoSXQ03tH+VaMTh39WRMgh8Xmw8oKwF3m9ZeJKKWn+dDRWyiJoNw5pQqdw1+kCpTHkF9WO8JMADGDiylgwEqiZVzxcKyY9Pa0LXgSV6VBWUdQ/ddsE0/nwS6SrxeQrwK98FlsGf+M+RkK9igUgDvl7+p+GVgYYgPPaVwg/w0mLkC7bKMsZHsugwl/r1T2IwdWS6yA0ksbTfCsG/yo8mBxCykGcQi2KCA85Or51c/4a1MBHnFvuvu5SxpnqK0PjsvODm3/YIjJ+tONRq562vG5H8ApgAStwNOwjCG0VUsq8i0In9zSvEl+xR0ST6cZVNkIiModAezpIPgbPrWg5ZHW6/8QTIAAAB3sMq8+q3DYEH+8HMDs8VW+t60UF63Z2gIUOfVvpyWMsPIi0o3Guur6DtZoO9cbIMt4RmE4w2abzhxIVEc7ka32173uW2TpXnPY+4N8AWf9A23+tJOtuF5XGrSg6BtfGC0ZvWAZHZOn6vAa1usXQkqCzAzG+mpxy9p8+ARWOQjzPoXpv7MIi2reTgQ/N5cqmZNLH9Evz9czEYxm5vz7FHA9kvbKHiV5oyh3svdHixjvd5VyPAi53s8EI4l9jl5KKwVD7BUsI5wGCVrclslfFKlzJRWDqOiNJSGLaaepUES2xUU+lsNlABNcTul6olQxucNgzMQ68p2YbamBMYKqGy4gBsCiQjBSPfvG87usggzi3WClkVjXzMzdzRW2oYFPajxwKn616cnQt/agwgLv0mrIPHdyiDMZc9nsHrfHU+8AOeOLZM0LVrUFn4iZJWTb/ADn2wbDBQSBPqAcn12+qHtMjGcvHgbLjT6CIiXC9e8iv6qB9hpVnwrfxO6MwdtRxo2GpMVNh6z5V+VPLk4/DcbAABsu6ve2R78ot1swumwkx/mKH0AY7wgQuC3WnWAobD/Bw/XNQ8gQWELABtptrefj4vSx/w32OJs+zycpGtc+w80Er0Yo8Fx0YXwA7jnjQB8+Y/tVt5C3aBBQjDWjoIncAQIfIYRQI/iwkUSp61uuQMuQ/k14xSrKCgTPpkOh7s10p7nOux9pB/H1FXE1DC00pfqfJSxuZTl71WFg7C7MZUuT8+kb40XMgQg6vx10bov1txeaYIhcEUNcExUwdFYqUXg5BWbTNljcT/jujpXStnt9NHI0KmGUBeozB3noFjV8qu0KNP1xN+BYA0ol6s3IC3Wq640ox+3OjeTFTvQdLlCUFxV2slXSFMqTudGUhAOaaIZEeN4d/xgd1DNGbDBjsz06/QHvto+axw5pnXv5FgD4FOhSvrwniG8pyqVsk/mC8zBeto/x/hI9T0MMfOrjgxzND0/PZsZ1+rzqVX6lgb95S78u7lkhUL9pibRkFOnJqUbfN5zJU8HgFe9paETvv5xHIZnxp4AAAAhDMECKjh1ToK298LaWPg2dvQzwkOweY6O++AcpcsNjf5B6K/ns8g8gSr9T+bcDTETsbLBmgyoE+C9TAELi/Tg24PdI/ZYdHVi/hPuc4dKd2lvCYOESDnTdT3poq/eNgAfAf9r7MyTp1z59vlm1h5U/9UXdJU4YiB4GrskRZKHUDEm0V0vvBBnY0D/LUyWmm4Jm5BkZgGnhBBhMod51GoHXrQWD+0EKxGXXYeEvlL46sNgG5A0F0YndEDMERawD/BqL+cv/MD/qR8gz4xTJfowBd3T4f1wa4Ek3oVooCf0q99zkIh1W+YfFW3TtAI/RPCLlHg/UzLsuk+AFZl24EF1r7xxKA7OXAev05JnShjcW1re2B/JyRy5ICQOH60v0uwomgvjsmPcqJUptHfbV8hhl8ZQ2/X7WnPMw9stuWpkaeiywzrFf0ac4k8uUH0IcIg6H2ZNoneL0isiAs1f9NZsu5Zk+CGyZdI6uY185GBhupjeaWZszYQOvGOUhgAQ/6GAm/5HpFoCFMb2SXcWPIu7vooGG7xmja8WT6UF5hsgPKU2jQGCUKzvW9a4PtF0fwAAAAPl9bh4NlFnjseG2MuIeyyLUywmk0HQrLyVA80Vl63GRxHQMvyW8m1kiNOCKXmwvAJ7MHqHZZSRLbI9lvnrD8Nni8VUMSerweBWe79mif7GMJ9ACiG4hE5D8jQVTjLHSvNLArR8r6KQJoqEfrhJ+TMnMxI41aDFy6dfRWXV9I6rs/s7LDClqaB9Pto4SFNa/EhoLGVgBQMRVeJqaXPRZEOFuyWKSHeb80sHsGQYiY9RVX2TKnKWhX5zDtV9hAtadvZ1OTnmKAfyBS9RqlZeECPizPfxYcc5t1k5oxm202snBjV0fLvuf7ZFjVWQEEc4rVO7SR4pjUrL4WFMc/gRxzBbQCjhYojBxmT5JLIGp0BXf7ogPpaVpOBjYoD7CjmYaDT2sOLeCDIihvYa8jp2VIbIke7rE5zpyF01eYDZrGL9TT9R13gz/sWdoOfADOHAw9h84LwKF7HiSIuM14z8aJltZ6U12rOpgAAAAAARVhJRroAAABFeGlmAABJSSoACAAAAAYAEgEDAAEAAAABAAAAGgEFAAEAAABWAAAAGwEFAAEAAABeAAAAKAEDAAEAAAACAAAAEwIDAAEAAAABAAAAaYcEAAEAAABmAAAAAAAAAEgAAAABAAAASAAAAAEAAAAGAACQBwAEAAAAMDIxMAGRBwAEAAAAAQIDAACgBwAEAAAAMDEwMAGgAwABAAAA//8AAAKgBAABAAAAXAMAAAOgBAABAAAAvgQAAAAAAAA=;" vertex="1" parent="1">
          <mxGeometry x="-740" y="670" width="77.92" height="110" as="geometry" />
        </mxCell>
        <mxCell id="UBcfyfctAIULLASqHLvR-35" style="edgeStyle=orthogonalEdgeStyle;rounded=0;orthogonalLoop=1;jettySize=auto;html=1;entryX=0.624;entryY=0.984;entryDx=0;entryDy=0;entryPerimeter=0;exitX=0.998;exitY=0.087;exitDx=0;exitDy=0;exitPerimeter=0;" edge="1" parent="1" source="9Jy4nu5iVQ67U5WA-zAP-16">
          <mxGeometry relative="1" as="geometry">
            <mxPoint x="190.53" y="701.2" as="sourcePoint" />
            <mxPoint x="386.568" y="129.99999999999994" as="targetPoint" />
          </mxGeometry>
        </mxCell>
      </root>
    </mxGraphModel>
  </diagram>
</mxfile>
